<?xml version="1.0" encoding="utf-8"?>
<!-- Generator: Adobe Illustrator 21.0.2, SVG Export Plug-In . SVG Version: 6.00 Build 0)  -->
<svg version="1.1" id="Ebene_1" xmlns="http://www.w3.org/2000/svg" xmlns:xlink="http://www.w3.org/1999/xlink" x="0px" y="0px"
	 viewBox="0 0 50 8.1999998" style="enable-background:new 0 0 50 8.1999998;" xml:space="preserve">
<style type="text/css">
	.st0{fill:#FFFFFF;}
	.st1{fill:#FFD914;}
</style>
<g>
	<path class="st0" d="M44.0040894,3.3048801l0.7375755-0.0001822l1.6699371,1.3820148h0.7371635l-2.0000534-1.6412389
		l1.9358788-1.6169283L46.362442,1.42874l-1.6211853,1.3870487h-0.7371674l0.0004158-1.386942l-0.5261383,0.0001945
		l0.0006142,3.2578783h0.5255241L44.0040894,3.3048801L44.0040894,3.3048801z M38.9241524,3.1388743l0.000206-1.2212375
		l2.2890396-0.0000942c0.3146935,0,0.3979912,0.0197786,0.4913712,0.0980142
		c0.0689049,0.0628757,0.0985222,0.1462271,0.0983162,0.2880352v0.4493272c0,0.1414127-0.0289993,0.2251718-0.098114,0.2884433
		C41.6113892,3.11919,41.5282936,3.1385732,41.213398,3.1387739L38.9241524,3.1388743L38.9241524,3.1388743z M38.3980179,1.4297506
		l0.000412,3.2577658l0.5259285,0.0002069l-0.000206-1.0595565L40.977478,3.627677l0.7274933,1.0596318l0.6583939-0.0003891
		l-0.7910538-1.0645719c0.255249-0.0439949,0.3930588-0.1027343,0.5259285-0.2293711
		c0.1616669-0.1614048,0.2303658-0.3714054,0.2307777-0.7427983l-0.0002098-0.2440467
		c0.0002098-0.370991-0.0639648-0.5811925-0.2307739-0.742183c-0.1725693-0.1665142-0.3881226-0.2349075-0.751976-0.2350079
		L38.3980179,1.4297506L38.3980179,1.4297506z M37.1501465,1.9178439l0.0002022-0.4885013L33.647171,1.4299452l0.000206,3.2579854
		l3.6354332-0.0006218V4.1991215l-3.1097069,0.0001068V3.3056018l2.9132805-0.0002069l0.0637627-0.488903l-2.9770432,0.0002007
		l-0.0002098-0.8984532L37.1501465,1.9178439L37.1501465,1.9178439z M29.8642654,3.5894003l0.6828671,1.1087742L30.91078,4.6979609
		l2.0140362-3.2682104l-0.6236267,0.0000942l-1.5720291,2.6039739l-1.572649-2.6034656l-0.6242428,0.0000942l1.0368481,1.6653423
		l-0.5746784,0.9378221l-1.5722351-2.6030641l-0.6238327-0.0001005l2.0146561,3.2677271l0.3587074-0.0002136L29.8642654,3.5894003
		L29.8642654,3.5894003z M17.9547768,3.140883l0.0004139-1.2212313l2.2888107-0.0001067
		c0.3149605-0.0001945,0.3981171,0.019992,0.491703,0.0980268c0.068697,0.0630641,0.0980282,0.1462207,0.0978222,0.2878282
		l0.000206,0.4495277c0,0.1414065-0.0293312,0.2249711-0.0982132,0.2882426
		c-0.0936089,0.0780346-0.1763515,0.0974114-0.4911079,0.0976186L17.9547768,3.140883L17.9547768,3.140883z M17.4291382,1.4313512
		l0.0002041,3.257772l0.5256424,0.0004077l0.000206-1.0599394l2.0536118-0.0001004l0.727108,1.0598328l0.6578312-0.0002007
		l-0.7905998-1.0648608c0.2554951-0.0438883,0.3928909-0.1024518,0.5258713-0.2294779
		c0.1618881-0.1616056,0.2305851-0.3714054,0.2307701-0.7425973l-0.0003929-0.2442474
		c0.0002079-0.371192-0.064064-0.5809919-0.2303772-0.7421831c-0.1723461-0.1663133-0.3884754-0.2349075-0.752243-0.2348008
		L17.4291382,1.4313512L17.4291382,1.4313512z M12.8450813,3.3074913l2.8498068-0.0000815l0.0002041,1.3821211l0.5549917-0.0002069
		l-0.0006142-3.2578721l-0.5549736-0.0001005l0.000392,1.3871491l-2.8500137,0.0003014l-0.0002069-1.3871491l-0.5254602,0.0002071
		l0.0004206,3.2578788h0.5256357L12.8450813,3.3074913L12.8450813,3.3074913z M9.111249,1.9550974l0.9139261,1.3377497
		L8.1923275,3.2931297L9.111249,1.9550974L9.111249,1.9550974z M10.3788862,3.781631l0.6289215,0.9084964l0.5897045-0.0003891
		L9.3074913,1.4226137L8.9146185,1.4227142L6.6197829,4.6901274h0.5899172l0.6339316-0.9081888L10.3788862,3.781631
		L10.3788862,3.781631z M6.3550472,1.9205556L6.3548403,1.4322551L2.8512142,1.4328576l0.000797,3.2580733l0.5260563-0.0003958
		L3.3778727,3.3082948h2.9130809l0.0640936-0.4888906L3.3774648,2.8196113L3.3772702,1.9207501L6.3550472,1.9205556
		L6.3550472,1.9205556z"/>
	<path class="st0" d="M46.2966232,6.2644792l0.6448135,0.4949355l0.000412,0.2719536h0.1524124V6.0873256h-0.1526184
		l-0.000206,0.5013504l-0.6446075-0.5013504h-0.1524086v0.9440427h0.1524086L46.2966232,6.2644792L46.2966232,6.2644792z
		 M44.139431,6.3994646c0.0004082-0.0883794,0.0061684-0.1175041,0.0289993-0.1420217
		c0.022007-0.0222955,0.0493622-0.0279074,0.1417122-0.0279074l0.3037949-0.0002069
		c0.09235-0.0002074,0.1192932,0.0054359,0.14254,0.0279136c0.022625,0.0245175,0.0281754,0.053843,0.0285873,0.1422224
		l-0.000412,0.3209763c0,0.0875759-0.0055504,0.1177049-0.0281754,0.1409922
		c-0.023037,0.0233002-0.05019,0.029326-0.14254,0.0291438L44.3101425,6.890759
		c-0.0919342-0.0003829-0.1194992-0.0060258-0.1419182-0.0289178c-0.022831-0.0235071-0.0287933-0.0540318-0.0290031-0.1414003
		L44.139431,6.3994646L44.139431,6.3994646z M44.9368591,6.3709421c-0.000412-0.1080632-0.0185127-0.1687174-0.0668488-0.2155304
		c-0.0501862-0.0478053-0.1125069-0.0680861-0.2180214-0.0678787l-0.3803062,0.0001884
		c-0.1046944-0.0003958-0.1680412,0.0196781-0.2174034,0.0678911c-0.048336,0.0466123-0.0668526,0.1072664-0.0670547,0.2153296
		l0.000412,0.3776131c-0.000412,0.1080637,0.0180969,0.1687174,0.0666428,0.214922
		c0.0493622,0.0486212,0.112709,0.0682993,0.2176094,0.0682993h0.3805084c0.1057281,0,0.168045-0.0200925,0.2178192-0.0684876
		c0.047924-0.0458088,0.0668488-0.1070652,0.0666428-0.2147336V6.3709421L44.9368591,6.3709421z M42.781723,6.088129
		l-0.1520042-0.0004077l0.0002098,0.9440551h0.1522064L42.781723,6.088129L42.781723,6.088129z M41.0848465,6.229743
		l0.3992271-0.0002074l-0.000412-0.1414065h-0.9504585v0.1417956l0.399231-0.0001817l-0.000206,0.8022404l0.1526184-0.0002069
		V6.229743L41.0848465,6.229743z M39.266201,6.6276369l-0.3889427,0.0004077l0.1953964-0.3515134L39.266201,6.6276369
		L39.266201,6.6276369z M38.7986908,6.7690368l0.5458755-0.0001817l0.1450043,0.2629213l0.1608429,0.000596l-0.5265427-0.9474568
		l-0.1042824,0.0003953L38.492836,7.0321717l0.1606369,0.0002007L38.7986908,6.7690368L38.7986908,6.7690368z M37.2377663,6.7859282
		c-0.0041161,0.0393686-0.0113144,0.0598502-0.0283852,0.0763211c-0.0240669,0.0228982-0.049778,0.0291309-0.142334,0.0285096
		l-0.3035812,0.0004144c-0.0919456,0.0002069-0.1193008-0.0056367-0.142128-0.028924
		c-0.023037-0.0235071-0.0285912-0.0534291-0.0285912-0.1405969l0.000412-0.3217926
		c-0.000412-0.0879645,0.0051422-0.1173029,0.0283852-0.1416073c0.0226212-0.022892,0.0495682-0.0281205,0.141922-0.0279136
		h0.3033791c0.09235-0.0004144,0.1182671,0.0052223,0.1425362,0.0281143
		c0.0174828,0.0164771,0.0240631,0.0365505,0.0283852,0.0763335l0.1526146-0.0198913
		c-0.022007-0.1645055-0.0999603-0.2267666-0.2854843-0.2267666h-0.3798981c-0.1053085,0-0.1682472,0.0196781-0.2178192,0.0682869
		c-0.0483322,0.0466061-0.0666351,0.1074672-0.0668449,0.2153234l0.0002098,0.3778205
		c0,0.1074734,0.0185089,0.1689305,0.0666351,0.2147145c0.0501938,0.048213,0.1129189,0.0678973,0.2180252,0.0683055
		l0.3801003-0.0004082c0.1851158,0,0.2634811-0.0618715,0.2848701-0.226377L37.2377663,6.7859282L37.2377663,6.7859282z
		 M34.4445992,6.4000669c-0.0002022-0.0881715,0.005764-0.1175098,0.028183-0.1411991
		c0.0234489-0.0233064,0.0501862-0.0285287,0.1427422-0.0285287h0.3031769
		c0.092556,0.0003953,0.119709,0.0056114,0.1423302,0.0281143c0.022831,0.0243106,0.0285912,0.053442,0.0285912,0.1416135
		l0.000206,0.3213787c0,0.08777-0.0059662,0.1172967-0.0285912,0.1408038
		c-0.0228271,0.0237017-0.0499802,0.028924-0.1425362,0.0291309l-0.3031769,0.0003891
		c-0.092556-0.0002069-0.119503-0.0058184-0.1427422-0.0291247c-0.022419-0.0232997-0.0285912-0.0538244-0.0283852-0.1411991
		L34.4445992,6.4000669L34.4445992,6.4000669z M35.2418251,6.3713312c0-0.1076488-0.0189247-0.1679139-0.0672607-0.2149153
		c-0.0497665-0.0480061-0.1120949-0.0678911-0.2171974-0.0678911h-0.3807182c-0.1055145,0-0.1676331,0.0196781-0.2174034,0.0680919
		c-0.048336,0.0464053-0.0668449,0.1070657-0.0672607,0.215518l0.0004158,0.3776321
		c0,0.1072664,0.0185089,0.1683092,0.0668449,0.2149153c0.0497704,0.0478053,0.1123009,0.0678978,0.2178154,0.0678978h0.3803062
		c0.1049004-0.0004082,0.1678391-0.0198855,0.2171974-0.0680985c0.0485458-0.0459909,0.0674667-0.107059,0.0672607-0.2151227
		V6.3713312L35.2418251,6.3713312z M32.3680344,6.0887256l0.000206,0.9440551l0.7686348-0.0002007l0.020359-0.1410174h-0.6371994
		l-0.000412-0.8026299L32.3680344,6.0887256L32.3680344,6.0887256z M30.8227463,6.2303391l0.3990231,0.0003953l0.0002041-0.1418018
		h-0.9500465v0.14221l0.3990269-0.000596v0.8026295l0.1519985-0.0002069L30.8227463,6.2303391L30.8227463,6.2303391z
		 M28.3280277,6.2660861l0.6448116,0.4953246V7.032969h0.1522064V6.0889325h-0.1522064v0.5013504l-0.6452236-0.5013504
		l-0.1519985,0.0003891V7.032969h0.1519985L28.3280277,6.2660861L28.3280277,6.2660861z M26.951807,6.2311425l-0.0002041-0.1420088
		l-0.8254032,0.0001879l0.0002079,0.9438543l0.8642712-0.0002069V6.8919768h-0.7122726V6.6328592l0.655302-0.0003891
		l0.0180988-0.1414127l-0.6734009,0.0003953V6.2311425H26.951807L26.951807,6.2311425z M24.3937416,6.8441715l-0.4169197-0.7544417
		l-0.1709194-0.0004082l0.537035,0.9468799L24.4466,7.0363898l0.5368309-0.94666l-0.1705093-0.0004082L24.3937416,6.8441715
		L24.3937416,6.8441715z M22.6688061,6.2313433L22.668602,6.089529l-0.8255463,0.0002007l-0.0001888,0.9436469h0.8640976
		l-0.0001888-0.1411929l-0.7118626,0.0005965l-0.0002098-0.2599211l0.655611,0.0002069l0.0184917-0.1416135h-0.673893
		l-0.0002098-0.2599211L22.6688061,6.2313433L22.6688061,6.2313433z M18.7325249,6.1379428v0.3539181l-0.3563251,0.0002069
		v0.1414065l0.3563251-0.0002069v0.3543129l0.1408081-0.0001879l-0.0002041-0.354125l0.3577232,0.0003953l0.0002041-0.1418018
		L18.873333,6.4916534l-0.0002041-0.3537107H18.7325249L18.7325249,6.1379428z M15.7744484,6.316308
		c-0.0214958-0.1639032-0.099637-0.2263708-0.2852421-0.2261829h-0.3798141c-0.1054516,0-0.1681204,0.0198917-0.2181473,0.0683055
		c-0.0483923,0.0461984-0.0664759,0.1072602-0.0666828,0.2165227l0.0002069,0.3764143
		c-0.000411,0.1076617,0.0182629,0.1683345,0.06668,0.2149215c0.049612,0.0480061,0.1126766,0.0682869,0.2177401,0.0678978
		l0.3802242,0.0003891c0.1044445-0.0003891,0.1697273-0.0200739,0.2181482-0.0668683
		c0.0485954-0.0464053,0.0670681-0.1046486,0.067276-0.2163401V6.4922562h-0.4374676L15.318882,6.6336627l0.303093,0.0002007
		L15.622179,6.733089c0,0.0891824-0.0042181,0.1090741-0.0283213,0.1311626
		c-0.0261021,0.022892-0.0512161,0.0289178-0.1428061,0.0289178h-0.303709c-0.0919847,0-0.119318-0.0060258-0.1420059-0.0289178
		c-0.0227032-0.0237017-0.0285254-0.0534167-0.0287294-0.1416135V6.4030738
		c0.0002041-0.0893707,0.0062304-0.1187029,0.0289364-0.1430135c0.0226851-0.022892,0.0498142-0.0281205,0.14221-0.0281205
		l0.3030939-0.0002007c0.091794,0.0002007,0.1187181,0.0054293,0.1432142,0.0283213
		c0.0164766,0.0168848,0.0238991,0.0367575,0.0281172,0.0765347L15.7744484,6.316308L15.7744484,6.316308z M12.8199615,6.2672977
		l0.6449594,0.4953241l0.0002041,0.2719541h0.1526613l-0.0002079-0.9444509H13.464921v0.5013504l-0.6447458-0.5009422
		l-0.1528625-0.0002007v0.9442434h0.1526489V6.2672977L12.8199615,6.2672977z M11.4549198,6.0903325l-0.1526613,0.0002007
		l0.0002069,0.9440427l0.1526546,0.0002069L11.4549198,6.0903325L11.4549198,6.0903325z M9.7580423,6.2327433l0.3985023-0.0003891
		l-0.0002003-0.1418209L9.206872,6.0907402v0.1418023l0.3988981,0.0002007v0.8018327l0.1520643,0.0004144L9.7580423,6.2327433
		L9.7580423,6.2327433z M7.2737875,6.5866609V6.2327433h0.4744287c0.0913792,0,0.115489,0.0032072,0.1426177,0.0279322
		c0.0196848,0.0182657,0.0283027,0.0423694,0.0283027,0.0839601v0.1297441c0,0.0413837-0.0086179,0.0656753-0.0283027,0.0839601
		C7.8635044,6.5818529,7.8395953,6.5866609,7.7480092,6.5866609H7.2737875L7.2737875,6.5866609z M7.1215219,6.0909476v0.9440427
		L7.2737875,7.035398V6.7276783h0.4063239l0.2105217,0.3075128l0.1912198-0.0006151L7.852457,6.7264671
		C7.926374,6.7136054,7.966157,6.6967392,8.0043077,6.6601701c0.047617-0.0469952,0.0673018-0.1080637,0.0671005-0.2145014
		V6.3741498c0.0002012-0.1080637-0.0186796-0.1687236-0.0668926-0.2153301
		c-0.0498204-0.0481877-0.1124892-0.067872-0.2179413-0.067872H7.1215219L7.1215219,6.0909476z M5.5903616,6.630857H5.2016821
		l0.1948481-0.3513193L5.5903616,6.630857L5.5903616,6.630857z M5.1233649,6.7722697l0.54532-0.0002074l0.1448212,0.262928
		l0.1612978,0.0002007L5.4475365,6.088129L5.3445134,6.0885248L4.817246,7.035398h0.1602874L5.1233649,6.7722697
		L5.1233649,6.7722697z M3.0145144,6.6336627H3.132621L3.5315318,7.035398h0.2044706L3.2519326,6.5585403l0.4641845-0.4672036
		L3.5170698,6.0909476L3.1328156,6.4934611H3.0145144l-0.0002007-0.40171L2.8620605,6.0913367V7.035398h0.1522532
		L3.0145144,6.6336627L3.0145144,6.6336627z"/>
	<path class="st1" d="M25.387392,2.6515844l-0.2832241-0.1166942l0.1065407,0.1482358l0.1390438-0.0247059l0.2394142,0.098918
		l-0.282814,0.0572455l0.3566513,0.4938116l-0.022007,0.0510314l-0.1065464,0.0342469L25.428112,3.3825257l-0.8782597-0.4138813
		l-0.2603951-0.122124L23.74543,2.5902214l-0.9344139,0.1211193l0.2277718,0.3575335L24.235981,2.856369l0.259573,0.1233227
		l-1.3400631,0.2728827l0.4186039,0.6566978l-0.0818634,0.1130915L23.230217,4.1047168l-0.1817818-0.0359545l-0.5481415-1.1105566
		c-0.0036221,0.0486023-0.0060291,0.0974116-0.0060291,0.1472251c0,1.0721986,0.8747444,1.9404285,1.9525394,1.9404285
		c1.078804,0.0002007,1.9525433-0.8689265,1.9527473-1.9407296c0.000206-0.013257-0.0010262-0.0255032-0.001442-0.0385654
		L25.387392,2.6515844L25.387392,2.6515844z"/>
	<path class="st1" d="M23.6374454,2.4760315l0.1589947-0.018178l0.0872078,0.0113549l0.6411133,0.2909417l0.070755,0.0325394
		l0.3414307-0.0609612l0.0872078,0.1409104l-0.1740055,0.0350442l0.3469849,0.157877l-0.4444771-0.6976922l0.0279694-0.0220947
		l0.0355873-0.0042181l0.0355778-0.0033143l0.0732231,0.0096414l0.6647663,0.2678487l0.2457924-0.043587l0.1114807,0.1129847
		L25.8232288,2.709734l0.3163414,0.1272457l-0.564806-0.5623116l0.0148125-0.0176759l0.0870018-0.00934l0.0853596,0.0213919
		l0.2873383,0.265137l0.1147709,0.1059544l0.2165813,0.2010624c-0.0104885-0.0799429-0.0259132-0.1584797-0.04669-0.2353091
		l-0.1400661,0.0286226l-0.1155968-0.1055527l0.2202854-0.0393689c-0.2587471-0.7702973-0.9897423-1.3258801-1.8515491-1.3259867
		c-0.9013004,0.0003012-1.6593018,0.6077063-1.8844585,1.4326442L23.6374454,2.4760315L23.6374454,2.4760315z"/>
</g>
</svg>
