<?xml version="1.0" standalone="no"?>
<!DOCTYPE svg PUBLIC "-//W3C//DTD SVG 1.1//EN" "http://www.w3.org/Graphics/SVG/1.1/DTD/svg11.dtd" >
<svg>
<metadata>
Created by FontForge 20120731 at Tue Mar 26 13:53:53 2019
 By www-data
2004 Achaz Reuss, published by FontShop International for the FontFont library.
</metadata>
<defs>
<font id="QTypeSquare-Light" horiz-adv-x="760" >
  <font-face 
    font-family="QTypeSquare-Light"
    font-weight="200"
    font-stretch="normal"
    units-per-em="1000"
    panose-1="2 0 3 3 0 0 0 0 0 0"
    ascent="800"
    descent="-200"
    x-height="533"
    cap-height="667"
    bbox="-200 -267 1328 933"
    underline-thickness="50"
    underline-position="-100"
    unicode-range="U+0020-FFFD"
  />
<missing-glyph horiz-adv-x="380" 
 />
    <glyph glyph-name=".notdef" unicode="&#xfffd;" horiz-adv-x="380" 
 />
    <glyph glyph-name=".null" horiz-adv-x="0" 
 />
    <glyph glyph-name=".null" horiz-adv-x="0" 
 />
    <glyph glyph-name="nonmarkingreturn" horiz-adv-x="333" 
 />
    <glyph glyph-name="space" unicode=" " horiz-adv-x="380" 
 />
    <glyph glyph-name="exclam" unicode="!" horiz-adv-x="300" 
d="M200 667l-7 -467h-73l-7 467h87zM196 93v-93h-80v93h80z" />
    <glyph glyph-name="quotedbl" unicode="&#x22;" horiz-adv-x="383" 
d="M53 734h77v-267h-77v267zM253 734h77v-267h-77v267z" />
    <glyph glyph-name="numbersign" unicode="#" horiz-adv-x="761" 
d="M184 167h-133l12 67h133l35 199h-133l12 67h133l24 133h73l-24 -133h187l24 133h73l-24 -133h134l-12 -67h-133l-36 -199h134l-12 -67h-133l-24 -134h-73l23 134h-186l-24 -134h-73zM305 433l-36 -199h187l35 199h-186z" />
    <glyph glyph-name="dollar" unicode="$" 
d="M345 600h-39q-83 0 -114 -25t-31 -92t31 -91.5t114 -24.5h39v233zM345 667v100h73v-100h57q105 0 153 -48q23 -23 33 -50.5t14 -75.5l-73 -13q-5 73 -34 96.5t-113 23.5h-37v-233h63q105 0 152 -48q46 -46 46 -135q0 -91 -46 -136q-49 -48 -152 -48h-63v-100h-73v100h-64
q-105 0 -153 48q-23 23 -33 50.5t-14 75.5l73 13q5 -73 34 -96.5t113 -23.5h44v233h-59q-103 0 -152 48q-46 45 -46 135q0 91 46 136q49 48 152 48h59zM418 67h43q83 0 114 25t31 92q0 63 -27 87q-18 16 -43.5 22.5t-74.5 6.5h-43v-233z" />
    <glyph glyph-name="percent" unicode="%" horiz-adv-x="981" 
d="M146 545v-117q0 -35 10.5 -45t47.5 -10h91q38 0 48 9.5t10 47.5v113q0 37 -10 47t-48 10h-91q-37 0 -47.5 -10t-10.5 -45zM73 416v141q1 57 28 82q29 28 91 28h115q62 0 91 -28q16 -16 22 -36t6 -62v-109q0 -42 -6 -62t-22 -36q-29 -28 -91 -28h-115q-62 0 -90.5 26.5
t-28.5 83.5zM639 667h80l-380 -667h-80zM627 239v-117q0 -35 10.5 -45t47.5 -10h91q38 0 48 9.5t10 47.5v113q0 37 -10 47t-48 10h-91q-37 0 -47.5 -10t-10.5 -45zM554 110v140q1 57 28 82q29 28 91 28h116q62 0 91 -28q16 -16 22 -36t6 -61v-110q0 -41 -6 -61t-22 -36
q-29 -28 -91 -28h-116q-62 0 -90.5 26.5t-28.5 83.5z" />
    <glyph glyph-name="ampersand" unicode="&#x26;" horiz-adv-x="858" 
d="M366 434h320v66h73v-66h66v-67h-66v-367h-466q-105 0 -153 48q-26 26 -36.5 60.5t-10.5 92.5v32q0 58 10.5 92.5t36.5 60.5t59 36.5t94 11.5v33q0 105 47 152q48 48 153 48h193v-67h-173q-90 0 -118.5 -28.5t-28.5 -118.5v-19zM686 67v300h-373q-90 0 -118.5 -28.5
t-28.5 -118.5v-6q0 -90 28.5 -118.5t118.5 -28.5h373z" />
    <glyph glyph-name="quoteright" unicode="&#x2019;" horiz-adv-x="241" 
d="M114 734h80v-94q0 -60 -13.5 -101t-53.5 -99h-80q39 81 53 122.5t14 77.5v94z" />
    <glyph glyph-name="parenleft" unicode="(" horiz-adv-x="261" 
d="M241 823v-89q-42 -28 -58.5 -57t-16.5 -76v-535q0 -47 16.5 -76.5t58.5 -56.5v-89q-60 34 -86 65q-62 68 -62 175v499q0 107 62 175q26 31 86 65z" />
    <glyph glyph-name="parenright" unicode=")" horiz-adv-x="261" 
d="M20 -156v89q42 28 58.5 57t16.5 76v535q0 47 -16.5 76.5t-58.5 56.5v89q60 -34 86 -65q62 -68 62 -175v-499q0 -107 -62 -175q-26 -31 -86 -65z" />
    <glyph glyph-name="asterisk" unicode="*" horiz-adv-x="572" 
d="M240 501l-173 45l25 76l165 -66l-11 178h80l-11 -178l165 65l25 -76l-172 -44l113 -137l-64 -47l-96 150l-95 -150l-65 47z" />
    <glyph glyph-name="plus" unicode="+" 
d="M347 633h66v-266h267v-67h-267v-267h-66v267h-267v67h267v266z" />
    <glyph glyph-name="comma" unicode="," horiz-adv-x="227" 
d="M47 93h80v-93q0 -60 -13.5 -101t-53.5 -99h-80q39 80 53 121.5t14 78.5v93z" />
    <glyph glyph-name="hyphen" unicode="-" horiz-adv-x="220" 
d="M0 266v67h220v-67h-220z" />
    <glyph glyph-name="period" unicode="." horiz-adv-x="247" 
d="M67 0v93h80v-93h-80z" />
    <glyph glyph-name="slash" unicode="/" horiz-adv-x="380" 
d="M300 734h80l-300 -801h-80z" />
    <glyph glyph-name="zero" unicode="0" 
d="M680 467v-267q0 -105 -47 -152q-48 -48 -153 -48h-200q-105 0 -153 48q-47 47 -47 152v267q0 105 47 152q48 48 153 48h200q105 0 153 -48q47 -47 47 -152zM460 600h-160q-90 0 -118.5 -28.5t-28.5 -118.5v-239q0 -90 28.5 -118.5t118.5 -28.5h160q90 0 118.5 28.5
t28.5 118.5v239q0 90 -28.5 118.5t-118.5 28.5z" />
    <glyph glyph-name="one" unicode="1" horiz-adv-x="413" 
d="M333 0h-73v600h-240l13 67h300v-667z" />
    <glyph glyph-name="two" unicode="2" 
d="M157 480l-73 13q4 48 14 75.5t33 50.5q48 48 153 48h189q104 0 153 -48q46 -45 46 -136q0 -90 -46 -135q-49 -48 -153 -48h-175q-86 0 -118 -29q-27 -24 -27 -87v-117h527v-67h-600v184q0 89 46 135q25 26 60 37t92 11h175q84 0 115 24.5t31 91.5t-31 92t-115 25h-149
q-84 0 -113 -23.5t-34 -96.5z" />
    <glyph glyph-name="three" unicode="3" 
d="M73 174l74 14q4 -73 33 -97t113 -24h160q82 0 114 25.5t32 91.5t-32 91.5t-114 25.5h-173v66h140q82 0 114 25.5t32 90.5q0 67 -31.5 92t-114.5 25h-105q-84 0 -113 -23.5t-34 -96.5l-73 13q5 49 15 76.5t32 49.5q49 48 153 48h145q103 0 153 -47q46 -45 46 -140
q0 -57 -12.5 -85t-46.5 -48q51 -17 71.5 -52t20.5 -108q0 -94 -46 -140q-50 -47 -153 -47h-200q-104 0 -152 48q-23 23 -33.5 50t-14.5 76z" />
    <glyph glyph-name="four" unicode="4" horiz-adv-x="761" 
d="M494 573l-331 -307l330 1zM60 267l434 400h73v-400h147l-14 -67h-133v-200h-73v200h-434v67z" />
    <glyph glyph-name="five" unicode="5" 
d="M82 174l73 13q5 -73 33.5 -96.5t113.5 -23.5h157q84 0 115 25t31 92v66q0 67 -31 92t-115 25h-348v300h534v-67h-461v-166h295q104 0 153 -48q46 -45 46 -136v-66q0 -91 -46 -136q-49 -48 -153 -48h-197q-104 0 -153 48q-23 23 -33 50.5t-14 75.5z" />
    <glyph glyph-name="six" unicode="6" 
d="M680 493l-74 -13q-4 73 -33 96.5t-113 23.5h-160q-90 0 -118.5 -28.5t-28.5 -117.5v-20h327q104 0 152 -48t48 -153v-32q0 -105 -48 -153t-152 -48h-200q-105 0 -153 48q-47 47 -47 153v266q0 105 47 152q48 48 153 48h200q104 0 152 -48q23 -23 33.5 -50t14.5 -76z
M153 367v-153q0 -90 28.5 -118.5t118.5 -28.5h160q89 0 117.5 28.5t28.5 118.5v6q0 90 -28.5 118.5t-117.5 28.5h-307z" />
    <glyph glyph-name="seven" unicode="7" 
d="M213 0h-100l503 601h-503l13 66h587v-66z" />
    <glyph glyph-name="eight" unicode="8" 
d="M312 667h136q103 0 153 -47q46 -45 46 -140q0 -57 -12.5 -85t-46.5 -48q51 -17 71.5 -52t20.5 -108q0 -94 -46 -140q-50 -47 -153 -47h-202q-103 0 -153 47q-46 46 -46 140q0 73 20.5 108t71.5 52q-34 20 -46.5 48t-12.5 85q0 95 46 140q50 47 153 47zM461 301h-162
q-82 0 -114 -25.5t-32 -91.5t32 -91.5t114 -25.5h162q82 0 114 25.5t32 91.5t-32 91.5t-114 25.5zM428 600h-96q-83 0 -114.5 -25t-31.5 -92q0 -65 32 -90.5t114 -25.5h96q82 0 114 25.5t32 90.5q0 67 -31.5 92t-114.5 25z" />
    <glyph glyph-name="nine" unicode="9" 
d="M80 174l74 13q4 -73 33 -96.5t113 -23.5h160q90 0 118.5 28.5t28.5 117.5v20h-327q-104 0 -152 48t-48 153v32q0 105 48 153t152 48h200q105 0 153 -48q47 -47 47 -153v-266q0 -105 -47 -152q-48 -48 -153 -48h-200q-104 0 -152 48q-23 23 -33.5 50t-14.5 76zM607 300
v153q0 90 -28.5 118.5t-118.5 28.5h-160q-89 0 -117.5 -28.5t-28.5 -118.5v-6q0 -90 28.5 -118.5t117.5 -28.5h307z" />
    <glyph glyph-name="colon" unicode=":" horiz-adv-x="227" 
d="M47 0v93h80v-93h-80zM47 300v93h80v-93h-80z" />
    <glyph glyph-name="semicolon" unicode=";" horiz-adv-x="227" 
d="M47 93h80v-93q0 -60 -13.5 -101t-53.5 -99h-80q39 80 53 121.5t14 78.5v93zM47 300v93h80v-93h-80z" />
    <glyph glyph-name="less" unicode="&#x3c;" 
d="M515 650l46 -46l-269 -270l270 -270l-47 -47l-317 317z" />
    <glyph glyph-name="equal" unicode="=" 
d="M680 300v-67h-600v67h600zM680 433v-67h-600v67h600z" />
    <glyph glyph-name="greater" unicode="&#x3e;" 
d="M245 17l-47 46l270 270l-270 270l47 47l317 -316z" />
    <glyph glyph-name="question" unicode="?" horiz-adv-x="661" 
d="M369 93v-93h-80v93h80zM173 494l-73 13q11 88 56 124t143 36h64q65 0 96.5 -7t56.5 -27q35 -29 41 -73q4 -35 4 -89q0 -55 -10 -85.5t-35 -50.5q-43 -35 -137 -35h-7l-7 -100h-73l-7 167h74q75 0 102 17q17 11 22 30t5 70v14q2 65 -24.5 83.5t-120.5 18.5h-24
q-80 0 -109.5 -21t-36.5 -85z" />
    <glyph glyph-name="at" unicode="@" horiz-adv-x="986" 
d="M820 -67h-527q-105 0 -153 48q-47 47 -47 152v401q0 105 47 152q48 48 153 48h400q105 0 153 -48q47 -47 47 -152v-240q0 -94 -32 -137.5t-101 -43.5h-267q-105 0 -153 48q-47 47 -47 153v39q0 106 47 153q48 48 153 48h187l-1 -374h76q38 0 51.5 24.5t13.5 95.5v220
q0 90 -28.5 118.5t-118.5 28.5h-360q-90 0 -118.5 -28.5t-28.5 -118.5v-373q0 -90 28.5 -118.5t118.5 -28.5h507v-67zM606 180v307h-93q-90 0 -118.5 -28.5t-28.5 -118.5v-13q0 -90 28.5 -118.5t118.5 -28.5h93z" />
    <glyph glyph-name="A" unicode="A" horiz-adv-x="827" 
d="M87 0h-80l370 669h73l370 -669h-80l-128 234h-396zM414 600l-162 -300h324z" />
    <glyph glyph-name="B" unicode="B" horiz-adv-x="845" 
d="M100 667h433q103 0 153 -47q46 -45 46 -140q0 -57 -12.5 -85t-46.5 -48q51 -17 71.5 -52t20.5 -108q0 -94 -46 -140q-50 -47 -153 -47h-466v667zM173 301v-234h373q82 0 114 25.5t32 91.5t-32 91.5t-114 25.5h-373zM173 600v-233h340q82 0 114 25.5t32 90.5
q0 67 -31.5 92t-114.5 25h-340z" />
    <glyph glyph-name="C" unicode="C" horiz-adv-x="852" 
d="M686 187l73 -13q-4 -48 -14 -75.5t-33 -50.5q-48 -48 -153 -48h-266q-105 0 -153 48q-47 47 -47 152v267q0 105 47 152q48 48 153 48h266q105 0 153 -48q23 -23 33 -50.5t14 -75.5l-73 -13q-5 73 -34 96.5t-113 23.5h-226q-90 0 -118.5 -28.5t-28.5 -118.5v-239
q0 -90 28.5 -118.5t118.5 -28.5h226q84 0 113 23.5t34 96.5z" />
    <glyph glyph-name="D" unicode="D" horiz-adv-x="860" 
d="M100 667h467q105 0 153 -48q47 -47 47 -152v-267q0 -105 -47 -152q-48 -48 -153 -48h-467v667zM173 600v-533h374q90 0 118.5 28.5t28.5 118.5v239q0 90 -28.5 118.5t-118.5 28.5h-374z" />
    <glyph glyph-name="E" unicode="E" horiz-adv-x="774" 
d="M680 600h-507v-233h507l-13 -66h-494v-234h534v-67h-607v667h580v-67z" />
    <glyph glyph-name="F" unicode="F" horiz-adv-x="747" 
d="M680 600h-507v-233h507l-13 -66h-494v-301h-73v667h580v-67z" />
    <glyph glyph-name="G" unicode="G" horiz-adv-x="853" 
d="M687 214v87h-247l13 66h307v-166q0 -106 -47 -153q-48 -48 -153 -48h-267q-105 0 -153 48q-47 47 -47 153v266q0 105 47 152q48 48 153 48h267q105 0 153 -48q22 -22 32 -49.5t15 -76.5l-73 -13q-5 73 -34 96.5t-113 23.5h-227q-90 0 -118.5 -28.5t-28.5 -118.5v-239
q0 -90 28.5 -118.5t118.5 -28.5h227q90 0 118.5 28.5t28.5 118.5z" />
    <glyph glyph-name="H" unicode="H" horiz-adv-x="867" 
d="M173 301v-301h-73v667h73v-300h521v300h73v-667h-73v301h-521z" />
    <glyph glyph-name="I" unicode="I" horiz-adv-x="273" 
d="M173 667v-667h-73v667h73z" />
    <glyph glyph-name="J" unicode="J" horiz-adv-x="677" 
d="M47 174l73 13q5 -73 34 -96.5t113 -23.5h93q90 0 118.5 28.5t28.5 118.5v453h73v-466q0 -106 -47 -153q-48 -48 -153 -48h-133q-105 0 -153 48q-23 23 -33 50.5t-14 75.5z" />
    <glyph glyph-name="K" unicode="K" horiz-adv-x="720" 
d="M173 301v-301h-73v667h73v-300h100l330 300h97l-367 -330l380 -337h-100l-340 301h-100z" />
    <glyph glyph-name="L" unicode="L" horiz-adv-x="626" 
d="M100 667h73v-600h440l-13 -67h-500v667z" />
    <glyph glyph-name="M" unicode="M" horiz-adv-x="923" 
d="M462 404l288 265h73v-669h-73v574l-288 -267l-289 267v-574h-73v669h73z" />
    <glyph glyph-name="N" unicode="N" horiz-adv-x="867" 
d="M173 581v-581h-73v667h73l521 -334v334h73v-667h-73v251z" />
    <glyph glyph-name="O" unicode="O" horiz-adv-x="853" 
d="M760 467v-267q0 -105 -47 -152q-48 -48 -153 -48h-267q-105 0 -153 48q-47 47 -47 152v267q0 105 47 152q48 48 153 48h267q105 0 153 -48q47 -47 47 -152zM540 600h-227q-90 0 -118.5 -28.5t-28.5 -118.5v-239q0 -90 28.5 -118.5t118.5 -28.5h227q90 0 118.5 28.5
t28.5 118.5v239q0 90 -28.5 118.5t-118.5 28.5z" />
    <glyph glyph-name="P" unicode="P" horiz-adv-x="814" 
d="M100 667h466q105 0 153 -48q48 -47 48 -152v-67q0 -105 -48 -152q-48 -48 -153 -48h-393v-200h-73v667zM173 600v-333h373q90 0 118.5 28.5t28.5 118.5v39q0 90 -28.5 118.5t-118.5 28.5h-373z" />
    <glyph glyph-name="Q" unicode="Q" horiz-adv-x="853" 
d="M736 77l89 -89l-52 -52l-88 89q-50 -25 -125 -25h-267q-105 0 -153 48q-47 47 -47 152v267q0 105 47 152q48 48 153 48h267q105 0 153 -48q47 -47 47 -152v-267q0 -79 -24 -123zM537 172l52 52l91 -91q7 28 7 81v239q0 90 -28.5 118.5t-118.5 28.5h-227
q-90 0 -118.5 -28.5t-28.5 -118.5v-239q0 -90 28.5 -118.5t118.5 -28.5h227q64 0 92 12z" />
    <glyph glyph-name="R" unicode="R" horiz-adv-x="860" 
d="M100 667h466q105 0 153 -48q47 -47 47 -153v-32q0 -106 -47 -153q-48 -48 -153 -48l207 -233h-100l-195 233h-305v-233h-73v667zM173 600v-300h373q90 0 118.5 28.5t28.5 118.5v6q0 90 -28.5 118.5t-118.5 28.5h-373z" />
    <glyph glyph-name="S" unicode="S" horiz-adv-x="851" 
d="M754 493l-73 -13q-5 73 -34 96.5t-113 23.5h-216q-83 0 -114 -25t-31 -92t31 -91.5t114 -24.5h242q105 0 152 -48q46 -46 46 -135q0 -91 -46 -136q-49 -48 -152 -48h-267q-105 0 -153 48q-23 23 -33 50.5t-14 75.5l73 13q5 -73 34 -96.5t113 -23.5h227q83 0 114 25t31 92
q0 63 -27 87q-18 16 -43.5 22.5t-74.5 6.5h-242q-103 0 -152 48q-46 45 -46 135q0 91 46 136q49 48 152 48h256q105 0 153 -48q23 -23 33 -50.5t14 -75.5z" />
    <glyph glyph-name="T" unicode="T" horiz-adv-x="693" 
d="M383 600v-600h-73v600h-297v67h667v-67h-297z" />
    <glyph glyph-name="U" unicode="U" horiz-adv-x="861" 
d="M764 667v-466q0 -106 -47 -153q-48 -48 -153 -48h-267q-105 0 -153 48q-47 47 -47 153v466h73v-453q0 -90 28.5 -118.5t118.5 -28.5h227q90 0 118.5 28.5t28.5 118.5v453h73z" />
    <glyph glyph-name="V" unicode="V" horiz-adv-x="827" 
d="M740 667h80l-370 -669h-73l-370 669h80l327 -600z" />
    <glyph glyph-name="W" unicode="W" horiz-adv-x="1114" 
d="M519 468l-92 199h80l260 -581l260 581h80l-303 -669h-74l-172 381l-174 -381h-74l-303 669h80l260 -581z" />
    <glyph glyph-name="X" unicode="X" horiz-adv-x="694" 
d="M20 667h84l243 -277l243 277h84l-284 -327l297 -340h-87l-253 290l-253 -290h-87l297 340z" />
    <glyph glyph-name="Y" unicode="Y" horiz-adv-x="761" 
d="M344 265l-337 402h84l290 -344l289 344h84l-337 -402v-265h-73v265z" />
    <glyph glyph-name="Z" unicode="Z" horiz-adv-x="734" 
d="M160 67l507 -1v-66h-600v66l507 535h-507l13 66h587v-66z" />
    <glyph glyph-name="bracketleft" unicode="[" horiz-adv-x="251" 
d="M231 801v-67h-65v-801h65v-67h-138v935h138z" />
    <glyph glyph-name="backslash" unicode="\" horiz-adv-x="380" 
d="M80 734l300 -801h-80l-300 801h80z" />
    <glyph glyph-name="bracketright" unicode="]" horiz-adv-x="251" 
d="M20 -134v67h65v801h-65v67h138v-935h-138z" />
    <glyph glyph-name="asciicircum" unicode="^" horiz-adv-x="759" 
d="M696 216l-46 -46l-270 269l-270 -270l-47 47l317 317z" />
    <glyph glyph-name="underscore" unicode="_" horiz-adv-x="500" 
d="M0 -54h500v-67h-500v67z" />
    <glyph glyph-name="quoteleft" unicode="&#x2018;" horiz-adv-x="241" 
d="M127 440h-80v94q0 43 14 85t53 115h80q-39 -81 -53 -122.5t-14 -77.5v-94z" />
    <glyph glyph-name="a" unicode="a" horiz-adv-x="713" 
d="M620 0h-333q-105 0 -153 48q-47 47 -47 152v133q0 105 47 152q48 48 153 48h333v-533zM547 67v399h-240q-90 0 -118.5 -28.5t-28.5 -118.5v-105q0 -90 28.5 -118.5t118.5 -28.5h240z" />
    <glyph glyph-name="b" unicode="b" horiz-adv-x="720" 
d="M100 0v734h73v-201h260q105 0 153 -48q47 -47 47 -152v-133q0 -105 -47 -152q-48 -48 -153 -48h-333zM173 67h240q90 0 118.5 28.5t28.5 118.5v105q0 90 -28.5 118.5t-118.5 28.5h-240v-399z" />
    <glyph glyph-name="c" unicode="c" horiz-adv-x="706" 
d="M545 174l74 -14q-8 -74 -46 -112q-49 -48 -153 -48h-133q-105 0 -153 48q-47 47 -47 152v133q0 105 47 152q48 48 153 48h133q104 0 153 -48q38 -38 46 -112l-74 -14q-4 63 -34.5 85t-110.5 22h-93q-90 0 -118.5 -28.5t-28.5 -118.5v-105q0 -90 28.5 -118.5t118.5 -28.5
h93q80 0 110.5 22t34.5 85z" />
    <glyph glyph-name="d" unicode="d" horiz-adv-x="720" 
d="M620 0h-333q-105 0 -153 48q-47 47 -47 152v133q0 105 47 152q48 48 153 48h260v201h73v-734zM547 67v399h-240q-90 0 -118.5 -28.5t-28.5 -118.5v-105q0 -90 28.5 -118.5t118.5 -28.5h240z" />
    <glyph glyph-name="e" unicode="e" horiz-adv-x="706" 
d="M546 173l73 -13q-8 -74 -46 -112q-49 -48 -153 -48h-133q-104 0 -153 48q-47 47 -47 152v133q0 105 47 152q49 48 153 48h133q104 0 153 -48q26 -26 36 -58.5t10 -93.5v-87h-459v-33q0 -89 29 -117.5t118 -28.5h93q81 0 111 22t35 84zM549 313v7q0 89 -28.5 117.5
t-118.5 28.5h-95q-89 0 -118 -28.5t-29 -117.5v-7h389z" />
    <glyph glyph-name="f" unicode="f" horiz-adv-x="487" 
d="M114 0v466h-67v67h68q2 61 12 94.5t35 58.5q49 48 153 48h165v-67h-145q-88 0 -118.5 -27.5t-29.5 -106.5h260l-14 -67h-246v-466h-73z" />
    <glyph glyph-name="g" unicode="g" horiz-adv-x="713" 
d="M88 -46l73 13q4 -58 35 -79t109 -21h94q88 0 118.5 27.5t29.5 105.5h-260q-105 0 -153 48q-47 47 -47 152v133q0 105 47 152q48 48 153 48h333v-533q0 -57 -11 -92t-37 -60q-49 -48 -153 -48h-134q-95 0 -141 36t-56 118zM547 466h-240q-90 0 -118.5 -28.5t-28.5 -118.5
v-105q0 -90 28.5 -118.5t118.5 -28.5h240v399z" />
    <glyph glyph-name="h" unicode="h" horiz-adv-x="723" 
d="M560 0v319q0 90 -28.5 118.5t-118.5 28.5h-240v-466h-73v734h73v-201h260q105 0 153 -48q47 -47 47 -152v-333h-73z" />
    <glyph glyph-name="i" unicode="i" horiz-adv-x="259" 
d="M93 0v533h73v-533h-73zM93 633v101h73v-101h-73z" />
    <glyph glyph-name="j" unicode="j" horiz-adv-x="260" 
d="M94 533h73v-533q0 -105 -47 -152q-48 -48 -153 -48h-167v67h147q90 0 118.5 28.5t28.5 118.5v519zM94 633v101h73v-101h-73z" />
    <glyph glyph-name="k" unicode="k" horiz-adv-x="653" 
d="M173 234v-234h-73v734h73v-434h67l290 233h103l-333 -263l346 -270h-106l-300 234h-67z" />
    <glyph glyph-name="l" unicode="l" horiz-adv-x="430" 
d="M170 734v-520q0 -90 28.5 -118.5t118.5 -28.5h113v-67h-133q-105 0 -153 48q-47 47 -47 153v533h73z" />
    <glyph glyph-name="m" unicode="m" horiz-adv-x="1042" 
d="M486 0v319q0 90 -28.5 118.5t-118.5 28.5h-173v-466h-73v533h266q62 0 98.5 -13.5t65.5 -46.5q28 33 64.5 46.5t98.5 13.5h66q105 0 153 -48q47 -47 47 -152v-333h-73v319q0 90 -28.5 118.5t-118.5 28.5h-26q-90 0 -118.5 -28.5t-28.5 -118.5v-319h-73z" />
    <glyph glyph-name="n" unicode="n" horiz-adv-x="716" 
d="M553 0v319q0 90 -28.5 118.5t-118.5 28.5h-240v-466h-73v533h333q105 0 153 -48q47 -47 47 -152v-333h-73z" />
    <glyph glyph-name="o" unicode="o" horiz-adv-x="707" 
d="M620 333v-133q0 -105 -47 -152q-48 -48 -153 -48h-133q-105 0 -153 48q-47 47 -47 152v133q0 105 47 152q48 48 153 48h133q105 0 153 -48q47 -47 47 -152zM400 466h-93q-90 0 -118.5 -28.5t-28.5 -118.5v-105q0 -90 28.5 -118.5t118.5 -28.5h93q90 0 118.5 28.5
t28.5 118.5v105q0 90 -28.5 118.5t-118.5 28.5z" />
    <glyph glyph-name="p" unicode="p" horiz-adv-x="713" 
d="M93 533h333q105 0 153 -48q47 -47 47 -152v-133q0 -105 -47 -152q-48 -48 -153 -48h-260v-200h-73v733zM166 466v-399h240q90 0 118.5 28.5t28.5 118.5v105q0 90 -28.5 118.5t-118.5 28.5h-240z" />
    <glyph glyph-name="q" unicode="q" horiz-adv-x="713" 
d="M620 533v-733h-73v200h-260q-105 0 -153 48q-47 47 -47 152v133q0 105 47 152q48 48 153 48h333zM547 466h-240q-90 0 -118.5 -28.5t-28.5 -118.5v-105q0 -90 28.5 -118.5t118.5 -28.5h240v399z" />
    <glyph glyph-name="r" unicode="r" horiz-adv-x="558" 
d="M558 373l-73 -14q-5 63 -35 85t-111 22h-173v-466h-73v533h266q104 0 153 -48q38 -38 46 -112z" />
    <glyph glyph-name="s" unicode="s" horiz-adv-x="705" 
d="M616 373l-74 -13q-7 64 -36.5 85t-109.5 21h-90q-93 0 -118 -17q-27 -17 -27 -66t27 -66q25 -17 118 -17h114q67 0 97.5 -7t55.5 -27q45 -37 45 -116t-45 -115q-25 -20 -56.5 -27.5t-96.5 -7.5h-134q-97 0 -142.5 36.5t-56.5 123.5l73 14q7 -64 36.5 -85.5t109.5 -21.5
h94q92 0 118 17q27 19 27 66q0 49 -27 66q-24 17 -118 17h-114q-65 0 -96.5 7.5t-56.5 27.5q-45 36 -45 115t45 115q25 20 56.5 27.5t96.5 7.5h130q97 0 142.5 -36.5t57.5 -123.5z" />
    <glyph glyph-name="t" unicode="t" horiz-adv-x="500" 
d="M114 667h73v-134h246l-13 -67h-233v-272q-1 -78 29.5 -105.5t118.5 -27.5h145v-67h-165q-106 0 -154 48q-26 26 -36 59t-11 93v272h-67v67h67v134z" />
    <glyph glyph-name="u" unicode="u" horiz-adv-x="716" 
d="M163 533v-319q0 -90 28.5 -118.5t118.5 -28.5h240v466h73v-533h-333q-105 0 -153 48q-47 47 -47 152v333h73z" />
    <glyph glyph-name="v" unicode="v" horiz-adv-x="654" 
d="M87 533l240 -456l240 456h80l-283 -535h-74l-283 535h80z" />
    <glyph glyph-name="w" unicode="w" horiz-adv-x="994" 
d="M499 247l-135 -249h-74l-283 535h80l240 -456l131 248l-111 208h80l240 -456l240 456h80l-283 -535h-74z" />
    <glyph glyph-name="x" unicode="x" horiz-adv-x="627" 
d="M270 271l-250 262h90l204 -215l203 215h90l-250 -262l263 -271h-93l-213 226l-214 -226h-93z" />
    <glyph glyph-name="y" unicode="y" horiz-adv-x="654" 
d="M288 3l-281 530h80l240 -456l240 456h80l-318 -606q-29 -56 -47.5 -78.5t-45.5 -33.5q-35 -15 -101 -15h-128v67h108q65 0 93 14t48 57z" />
    <glyph glyph-name="z" unicode="z" horiz-adv-x="667" 
d="M164 67h436v-67h-533v67l436 400h-436l13 66h520v-66z" />
    <glyph glyph-name="braceleft" unicode="{" horiz-adv-x="259" 
d="M239 -133h-36q-64 0 -93.5 33t-29.5 103v191q0 53 -10.5 71t-46.5 26v83q36 9 46.5 27t10.5 70v193q0 70 29.5 103t93.5 33h36v-67h-7q-46 0 -62.5 -17t-16.5 -65v-204q0 -47 -11 -69t-45 -45q34 -23 45 -45.5t11 -69.5v-202q0 -48 16.5 -65t62.5 -17h7v-67z" />
    <glyph glyph-name="bar" unicode="|" horiz-adv-x="499" 
d="M213 667h73v-867h-73v867z" />
    <glyph glyph-name="braceright" unicode="}" horiz-adv-x="259" 
d="M20 800h36q64 0 93.5 -33t29.5 -103v-191q0 -53 10.5 -71t46.5 -26v-83q-36 -9 -46.5 -27t-10.5 -70v-193q0 -70 -29.5 -103t-93.5 -33h-36v67h7q46 0 62.5 17t16.5 65v204q0 47 11 69t45 45q-34 23 -45 45.5t-11 69.5v202q0 48 -16.5 65t-62.5 17h-7v67z" />
    <glyph glyph-name="asciitilde" unicode="~" horiz-adv-x="521" 
d="M49 289l-36 64q47 27 78.5 37t69.5 10q44 0 90 -16l12 -4l13 -5l12 -4q35 -13 63 -13q47 0 121 50l36 -65q-44 -30 -77 -42t-73 -12q-43 0 -87 14l-13 5l-13 4l-13 5q-34 12 -66 12q-46 0 -117 -40z" />
    <glyph glyph-name="exclamdown" unicode="&#xa1;" horiz-adv-x="300" 
d="M100 0l7 467h73l7 -467h-87zM103 574v93h80v-93h-80z" />
    <glyph glyph-name="cent" unicode="&#xa2;" 
d="M344 600v100h73v-100h30q104 0 153 -48q38 -37 46 -112l-74 -13q-4 62 -34.5 84t-110.5 22h-10v-399h10q80 0 110.5 22t34.5 84l74 -13q-8 -75 -46 -112q-49 -48 -153 -48h-30v-100h-73v100h-30q-105 0 -153 48q-47 46 -47 152v133q0 106 47 152q48 48 153 48h30z
M344 134v399h-10q-90 0 -118.5 -28.5t-28.5 -117.5v-107q0 -89 28.5 -117.5t118.5 -28.5h10z" />
    <glyph glyph-name="sterling" unicode="&#xa3;" 
d="M134 367v100q0 105 47 152q48 48 153 48h133q104 0 153 -48q23 -23 33 -50.5t14 -75.5l-73 -13q-5 73 -34 96.5t-113 23.5h-93q-90 0 -118.5 -28.5t-28.5 -118.5v-86h300v-67h-300v-233h273q84 0 113 23.5t34 96.5l73 -13q-4 -49 -14 -76.5t-33 -49.5q-49 -48 -153 -48
h-433v67h67v233h-67v67h67z" />
    <glyph glyph-name="fraction" unicode="&#x2044;" horiz-adv-x="460" 
d="M380 667h80l-380 -667h-80z" />
    <glyph glyph-name="yen" unicode="&#xa5;" 
d="M40 667h83l257 -313l256 313h84l-251 -300h144v-67h-197v-66h197v-67h-197v-167h-73v167h-203v67h203v66h-203v67h150z" />
    <glyph glyph-name="florin" unicode="&#x192;" horiz-adv-x="761" 
d="M288 466h-120v67h131l9 54q17 99 93 132q36 15 98 15h155l-13 -67h-122q-71 0 -99 -19q-33 -22 -41 -68l-8 -47h240l-13 -67h-239l-82 -466l-10 -53q-17 -99 -93 -132q-34 -15 -97 -15h-56l14 67h22q72 0 98 18q33 23 41 68l9 47z" />
    <glyph glyph-name="section" unicode="&#xa7;" horiz-adv-x="828" 
d="M126 60l73 14q7 -64 36.5 -85.5t109.5 -21.5h127q92 0 118 17q27 19 27 66q0 49 -27 66q-24 17 -118 17h-181q-64 0 -97 7t-57 27t-34 50t-10 83v66q0 67 16 97.5t62 53.5q-19 25 -25.5 45t-6.5 54q0 78 45 116q25 20 56.5 27.5t96.5 7.5h163q97 0 142.5 -36.5
t57.5 -124.5l-74 -13q-8 65 -36.5 86t-109.5 21h-123q-92 0 -118 -17q-27 -19 -27 -67q0 -47 27 -66q26 -17 118 -17h180q67 0 98.5 -7t55.5 -26q24 -20 34 -50.5t10 -83.5v-66q0 -67 -16 -97.5t-62 -53.5q19 -25 26 -45.5t7 -53.5q0 -79 -45 -115q-25 -20 -56.5 -27.5
t-96.5 -7.5h-167q-97 0 -142.5 36.5t-56.5 123.5zM311 200h206q92 0 119 17.5t26 75.5v56l1 24q0 58 -28 76q-23 17 -118 17h-206q-95 0 -120 -17.5t-25 -82.5v-66q0 -65 25 -82.5t120 -17.5z" />
    <glyph glyph-name="currency" unicode="&#xa4;" horiz-adv-x="759" 
d="M696 603l-148 -149q21 -34 21 -99v-43q0 -65 -21 -99l148 -149l-47 -47l-151 151q-31 -16 -89 -16h-59q-58 0 -89 16l-151 -151l-47 47l148 149q-21 34 -21 99v43q0 65 21 99l-148 149l47 47l151 -151q31 16 89 16h59q58 0 89 -16l151 151zM380 454h-6q-71 0 -94 -23
t-23 -95v-5q0 -72 23 -95t94 -23h6q71 0 94 23t23 95v5q0 72 -23 95t-94 23z" />
    <glyph glyph-name="quotesingle" unicode="'" horiz-adv-x="183" 
d="M53 734h77v-267h-77v267z" />
    <glyph glyph-name="quotedblleft" unicode="&#x201c;" horiz-adv-x="441" 
d="M327 440h-80v94q0 43 14 85t53 115h80q-39 -81 -53 -122.5t-14 -77.5v-94zM127 440h-80v94q0 43 14 85t53 115h80q-39 -81 -53 -122.5t-14 -77.5v-94z" />
    <glyph glyph-name="guillemotleft" unicode="&#xab;" horiz-adv-x="600" 
d="M500 498l47 -55l-148 -143l148 -142l-47 -56l-206 198zM253 498l48 -55l-148 -143l148 -142l-48 -56l-206 198z" />
    <glyph glyph-name="guilsinglleft" unicode="&#x2039;" horiz-adv-x="353" 
d="M253 102l-206 198l206 198l47 -56l-147 -142l147 -143z" />
    <glyph glyph-name="guilsinglright" unicode="&#x203a;" horiz-adv-x="353" 
d="M100 102l-47 55l148 143l-148 142l47 56l206 -198z" />
    <glyph glyph-name="fi" unicode="&#xfb01;" horiz-adv-x="740" 
d="M114 0v466h-67v67h68q2 61 12 94.5t35 58.5q49 48 153 48h165v-67h-145q-88 0 -118.5 -27.5t-29.5 -106.5h260l-14 -67h-246v-466h-73zM574 0v533h73v-533h-73zM574 633v101h73v-101h-73z" />
    <glyph glyph-name="fl" unicode="&#xfb02;" horiz-adv-x="907" 
d="M114 0v466h-67v67h68q2 61 12 94.5t35 58.5q49 48 153 48h165v-67h-145q-88 0 -118.5 -27.5t-29.5 -106.5h260l-14 -67h-246v-466h-73zM647 734v-520q0 -90 28.5 -118.5t118.5 -28.5h113v-67h-133q-105 0 -153 48q-47 47 -47 153v533h73z" />
    <glyph glyph-name="endash" unicode="&#x2013;" horiz-adv-x="574" 
d="M67 266v67h440v-67h-440z" />
    <glyph glyph-name="dagger" unicode="&#x2020;" horiz-adv-x="559" 
d="M316 466v-533h-73v533h-230v67h230v201h73v-201h230v-67h-230z" />
    <glyph glyph-name="daggerdbl" unicode="&#x2021;" horiz-adv-x="559" 
d="M243 267h-230v67h230v132h-230v67h230v201h73v-201h230v-67h-230v-132h230v-67h-230v-334h-73v334z" />
    <glyph glyph-name="periodcentered" unicode="&#xb7;" horiz-adv-x="660" 
d="M460 393v-119q0 -45 -14.5 -59.5t-58.5 -14.5h-114q-44 0 -58.5 14.5t-14.5 59.5v119q0 45 14.5 59.5t58.5 14.5h114q44 0 58.5 -14.5t14.5 -59.5z" />
    <glyph glyph-name="paragraph" unicode="&#xb6;" horiz-adv-x="860" 
d="M553 -200h-73v460h-193q-104 0 -153 48q-26 25 -36.5 59.5t-10.5 92.5v6q0 58 10.5 92.5t36.5 60.5q48 48 153 48h486l-14 -67h-53v-800h-73v800h-80v-800z" />
    <glyph glyph-name="bullet" unicode="&#x2022;" horiz-adv-x="790" 
d="M590 423v-180q0 -67 -21 -88.5t-89 -21.5h-170q-68 0 -89 21.5t-21 88.5v180q0 67 21 88.5t89 21.5h170q68 0 89 -21.5t21 -88.5z" />
    <glyph glyph-name="quotesinglbase" unicode="&#x201a;" horiz-adv-x="241" 
d="M114 93h80v-93q0 -60 -13.5 -101t-53.5 -99h-80q39 80 53 121.5t14 78.5v93z" />
    <glyph glyph-name="quotedblbase" unicode="&#x201e;" horiz-adv-x="441" 
d="M114 94h80v-94q0 -43 -14 -85t-53 -115h-80q39 81 53 122.5t14 77.5v94zM314 94h80v-94q0 -43 -14 -85t-53 -115h-80q39 81 53 122.5t14 77.5v94z" />
    <glyph glyph-name="quotedblright" unicode="&#x201d;" horiz-adv-x="441" 
d="M114 734h80v-94q0 -43 -14 -85t-53 -115h-80q39 81 53 122.5t14 77.5v94zM314 734h80v-94q0 -43 -14 -85t-53 -115h-80q39 81 53 122.5t14 77.5v94z" />
    <glyph glyph-name="guillemotright" unicode="&#xbb;" horiz-adv-x="600" 
d="M100 102l-47 55l148 143l-148 142l47 56l206 -198zM347 102l-48 55l148 143l-148 142l48 56l206 -198z" />
    <glyph glyph-name="ellipsis" unicode="&#x2026;" horiz-adv-x="740" 
d="M67 0v93h80v-93h-80zM314 0v93h80v-93h-80zM560 0v93h80v-93h-80z" />
    <glyph glyph-name="perthousand" unicode="&#x2030;" horiz-adv-x="1401" 
d="M146 545v-117q0 -35 10.5 -45t47.5 -10h91q38 0 48 9.5t10 47.5v113q0 37 -10 47t-48 10h-91q-37 0 -47.5 -10t-10.5 -45zM73 416v141q1 57 28 82q29 28 91 28h115q62 0 91 -28q16 -16 22 -36t6 -62v-109q0 -42 -6 -62t-22 -36q-29 -28 -91 -28h-115q-62 0 -90.5 26.5
t-28.5 83.5zM640 667h80l-380 -667h-80zM628 239v-117q0 -35 10.5 -45t47.5 -10h91q38 0 48 9.5t10 47.5v113q0 37 -10 47t-48 10h-91q-37 0 -47.5 -10t-10.5 -45zM554 110v141q1 56 28 81q29 28 91 28h116q62 0 91 -28q16 -15 22 -35t6 -62v-109q0 -42 -6 -62t-22 -36
q-29 -28 -91 -28h-116q-62 0 -90.5 26.5t-28.5 83.5zM1048 239v-117q0 -35 10.5 -45t47.5 -10h91q38 0 48 9.5t10 47.5v113q0 37 -10 47t-48 10h-91q-37 0 -47.5 -10t-10.5 -45zM975 110v140q1 57 28 82q29 28 91 28h115q62 0 91 -28q16 -16 22 -36t6 -61v-110q0 -41 -6 -61
t-22 -36q-29 -28 -91 -28h-115q-62 0 -90.5 26.5t-28.5 83.5z" />
    <glyph glyph-name="questiondown" unicode="&#xbf;" horiz-adv-x="661" 
d="M292 574v93h80v-93h-80zM488 173l73 -13q-11 -88 -56 -124t-143 -36h-64q-65 0 -96.5 7t-56.5 27q-35 29 -41 73q-4 35 -4 89q0 55 10 85.5t35 50.5q43 35 137 35h7l7 100h73l7 -167h-74q-75 0 -102 -17q-17 -11 -22 -30t-5 -70v-14q-2 -65 24.5 -83.5t120.5 -18.5h24
q80 0 109.5 21t36.5 85z" />
    <glyph glyph-name="grave" unicode="`" horiz-adv-x="667" 
d="M164 706l17 65l322 -86l-17 -65z" />
    <glyph glyph-name="acute" unicode="&#xb4;" horiz-adv-x="667" 
d="M503 706l-322 -86l-17 65l322 86z" />
    <glyph glyph-name="circumflex" unicode="&#x2c6;" horiz-adv-x="667" 
d="M334 750l189 -52l-17 -65l-172 48l-173 -48l-17 65z" />
    <glyph glyph-name="tilde" unicode="&#x2dc;" horiz-adv-x="667" 
d="M171 634l-38 57q71 54 125 54q35 0 68 -16l10 -4l9 -5l10 -4q26 -13 49 -13q37 0 92 50l38 -58q-70 -61 -125 -61q-25 0 -39.5 4t-58.5 24q-28 13 -50 13q-36 0 -90 -41z" />
    <glyph glyph-name="macron" unicode="&#xaf;" horiz-adv-x="667" 
d="M167 633v67h333v-67h-333z" />
    <glyph glyph-name="breve" unicode="&#x2d8;" horiz-adv-x="667" 
d="M144 700l42 59q48 -31 79.5 -43t68.5 -12t68 11.5t79 43.5l42 -59q-60 -39 -100.5 -53.5t-88.5 -14.5t-88.5 14.5t-101.5 53.5z" />
    <glyph glyph-name="dotaccent" unicode="&#x2d9;" horiz-adv-x="667" 
d="M297 633v101h73v-101h-73z" />
    <glyph glyph-name="dieresis" unicode="&#xa8;" horiz-adv-x="667" 
d="M130 633v101h73v-101h-73zM464 633v101h73v-101h-73z" />
    <glyph glyph-name="ring" unicode="&#x2da;" horiz-adv-x="667" 
d="M278 750v-19q-1 -28 7.5 -36t38.5 -8h19q31 0 39 8t8 37v16q0 30 -8 38t-39 8h-19q-30 0 -38 -7.5t-8 -36.5zM219 721v38q1 47 23 67.5t72 20.5h39q50 0 73 -23q22 -21 22 -78v-12q0 -57 -22 -78q-24 -23 -73 -23h-39q-49 0 -72 21t-23 67z" />
    <glyph glyph-name="cedilla" unicode="&#xb8;" horiz-adv-x="667" 
d="M219 -170h59q-1 -28 7.5 -36t38.5 -8h19q31 0 39 8t8 38v16q0 30 -8 37.5t-39 7.5h-24v54h34q50 0 73 -23q22 -21 22 -78v-13q0 -56 -22 -77q-24 -23 -73 -23h-39q-49 0 -72 21t-23 67v9z" />
    <glyph glyph-name="hungarumlaut" unicode="&#x2dd;" horiz-adv-x="667" 
d="M352 750l-204 -117l-33 58l204 117zM552 750l-204 -117l-33 58l204 117z" />
    <glyph glyph-name="ogonek" unicode="&#x2db;" horiz-adv-x="666" 
d="M592 0h74l-38 -48q-30 -41 -30 -74q0 -37 43 -37h62v-54h-71q-98 0 -98 85q0 31 12.5 58t45.5 70z" />
    <glyph glyph-name="caron" unicode="&#x2c7;" horiz-adv-x="667" 
d="M334 633l-190 52l17 65l173 -48l172 48l17 -65z" />
    <glyph glyph-name="emdash" unicode="&#x2014;" horiz-adv-x="660" 
d="M0 266v67h660v-67h-660z" />
    <glyph glyph-name="AE" unicode="&#xc6;" horiz-adv-x="1154" 
d="M1087 0h-347l-129 234h-396l-128 -234h-80l369 667h684v-67h-571l129 -233h442l-13 -66h-393l130 -234h303v-67zM413 600l-162 -300h324z" />
    <glyph glyph-name="ordfeminine" unicode="&#xaa;" horiz-adv-x="552" 
d="M499 233h-246q-105 0 -153 48q-26 26 -36.5 60.5t-10.5 92.5v32q0 58 10.5 92.5t36.5 60.5q48 48 153 48h246v-434zM426 300v300h-153q-90 0 -118.5 -28.5t-28.5 -118.5v-6q0 -90 28.5 -118.5t118.5 -28.5h153z" />
    <glyph glyph-name="Lslash" unicode="&#x141;" horiz-adv-x="626" 
d="M100 667h73v-321l208 121l33 -58l-241 -141v-201h440l-13 -67h-500v227l-67 -38l-33 58l100 56v364z" />
    <glyph glyph-name="Oslash" unicode="&#xd8;" horiz-adv-x="853" 
d="M28 -14l89 89q-24 44 -24 124v268q0 105 47 152q48 48 153 48h269q78 0 125 -25l88 89l50 -50l-89 -89q24 -44 24 -124v-268q0 -105 -47 -152q-48 -48 -153 -48h-269q-78 0 -125 25l-88 -89zM680 536l-461 -457q28 -12 92 -12h229q90 0 118.5 28.5t28.5 118.5v241
q0 53 -7 81zM173 131l461 457q-28 12 -92 12h-229q-90 0 -118.5 -28.5t-28.5 -118.5v-241q0 -53 7 -81z" />
    <glyph glyph-name="OE" unicode="&#x152;" horiz-adv-x="1360" 
d="M686 639v28h580v-67h-507v-233h507l-13 -66h-494v-234h534v-67h-607v27q-44 -27 -127 -27h-266q-105 0 -153 48q-47 47 -47 153v266q0 105 47 152q48 48 153 48h266q82 0 127 -28zM539 600h-226q-90 0 -118.5 -28.5t-28.5 -118.5v-239q0 -90 28.5 -118.5t118.5 -28.5h226
q90 0 118.5 28.5t28.5 118.5v239q0 90 -28.5 118.5t-118.5 28.5z" />
    <glyph glyph-name="ordmasculine" unicode="&#xba;" horiz-adv-x="553" 
d="M500 467v-34q0 -104 -48 -152t-152 -48h-47q-105 0 -153 48q-47 47 -47 152v34q0 105 47 152q48 48 153 48h47q104 0 152 -48t48 -152zM280 600h-7q-90 0 -118.5 -28.5t-28.5 -118.5v-6q0 -90 28.5 -118.5t118.5 -28.5h7q89 0 117.5 28.5t28.5 118.5v6q0 90 -28.5 118.5
t-117.5 28.5z" />
    <glyph glyph-name="ae" unicode="&#xe6;" horiz-adv-x="1166" 
d="M547 67v400h-240q-90 0 -118.5 -28.5t-28.5 -118.5v-106q0 -90 28.5 -118.5t118.5 -28.5h240zM620 32v-32h-333q-104 0 -153 48q-47 47 -47 152v133q0 105 47 152q49 48 153 48h333v-32q26 19 52.5 25.5t74.5 6.5h133q104 0 153 -48q26 -26 36 -58.5t10 -93.5v-87h-459
v-33q0 -89 29 -117.5t118 -28.5h93q81 0 111 22t35 84l73 -13q-8 -74 -46 -112q-49 -48 -153 -48h-133q-48 0 -73.5 6.5t-53.5 25.5zM1009 313v7q0 89 -28.5 117.5t-118.5 28.5h-95q-89 0 -118 -28.5t-29 -117.5v-7h389z" />
    <glyph glyph-name="dotlessi" unicode="&#x131;" horiz-adv-x="259" 
d="M93 0v533h73v-533h-73z" />
    <glyph glyph-name="lslash" unicode="&#x142;" horiz-adv-x="430" 
d="M97 284l-40 -22l-33 58l73 42v372h73v-331l120 71l33 -58l-153 -91v-111q0 -90 28.5 -118.5t118.5 -28.5h113v-67h-133q-105 0 -153 48q-47 47 -47 153v83z" />
    <glyph glyph-name="oslash" unicode="&#xf8;" horiz-adv-x="707" 
d="M665 527l-69 -69q24 -44 24 -123v-135q0 -105 -47 -152q-48 -48 -153 -48h-135q-78 0 -125 25l-68 -69l-50 50l69 69q-24 44 -24 123v135q0 105 47 152q48 48 153 48h135q78 0 125 -25l68 69zM167 131l327 323q-29 12 -92 12h-95q-90 0 -118.5 -28.5t-28.5 -118.5v-107
q0 -53 7 -81zM540 402l-327 -323q29 -12 92 -12h95q90 0 118.5 28.5t28.5 118.5v107q0 53 -7 81z" />
    <glyph glyph-name="oe" unicode="&#x153;" horiz-adv-x="1166" 
d="M287 533h133q62 0 98.5 -13.5t65.5 -46.5q27 33 63.5 46.5t99.5 13.5h133q104 0 153 -48q26 -26 36 -58.5t10 -93.5v-87h-459v-33q0 -89 29 -117.5t118 -28.5h93q81 0 111 22t35 84l73 -13q-8 -74 -46 -112q-49 -48 -153 -48h-133q-62 0 -98.5 13.5t-65.5 46.5
q-27 -33 -63.5 -46.5t-99.5 -13.5h-133q-105 0 -153 48q-47 47 -47 152v133q0 105 47 152q48 48 153 48zM400 466h-93q-90 0 -118.5 -28.5t-28.5 -117.5v-107q0 -89 28.5 -117.5t118.5 -28.5h93q90 0 118.5 28.5t28.5 117.5v107q0 89 -28.5 117.5t-118.5 28.5zM1009 313v7
q0 89 -28.5 117.5t-118.5 28.5h-95q-89 0 -118 -28.5t-29 -117.5v-7h389z" />
    <glyph glyph-name="germandbls" unicode="&#xdf;" horiz-adv-x="802" 
d="M515 539v-6q61 -1 94 -11.5t59 -36.5q47 -47 47 -152v-133q0 -105 -47 -152q-48 -48 -153 -48h-200v67h180q90 0 118.5 28.5t28.5 118.5v105q0 90 -28.5 118.5t-118.5 28.5h-180v67h127v6q0 72 -29 98q-32 29 -98 29h-17q-67 0 -99 -29q-17 -14 -23 -36.5t-6 -67.5v-733
h-73v733q0 105 47.5 152.5t153.5 47.5h17q105 0 152.5 -46t47.5 -148z" />
    <glyph glyph-name="Zcaron" unicode="&#x17d;" horiz-adv-x="734" 
d="M160 67l507 -1v-66h-600v66l507 535h-507l13 66h587v-66zM367 720l-190 52l17 65l173 -48l172 48l17 -65z" />
    <glyph glyph-name="zcaron" unicode="&#x17e;" horiz-adv-x="667" 
d="M164 67h436v-67h-533v67l436 400h-436l13 66h520v-66zM334 633l-190 52l17 65l173 -48l172 48l17 -65z" />
    <glyph glyph-name="Euro" unicode="&#x20ac;" 
d="M160 300v66h-67v67h67v33q0 106 47 153q48 48 153 48h333l-13 -67h-300q-90 0 -118.5 -28.5t-28.5 -118.5v-20h413l-13 -67h-400v-66h389l-14 -67h-375v-20q0 -89 28.5 -117.5t118.5 -28.5h313v-67h-333q-105 0 -153 48q-47 47 -47 152v33h-67v67h67z" />
    <glyph glyph-name="Scaron" unicode="&#x160;" horiz-adv-x="851" 
d="M754 493l-73 -13q-5 73 -34 96.5t-113 23.5h-216q-83 0 -114 -25t-31 -92t31 -91.5t114 -24.5h242q105 0 152 -48q46 -46 46 -135q0 -91 -46 -136q-49 -48 -152 -48h-267q-105 0 -153 48q-23 23 -33 50.5t-14 75.5l73 13q5 -73 34 -96.5t113 -23.5h227q83 0 114 25t31 92
q0 63 -27 87q-18 16 -43.5 22.5t-74.5 6.5h-242q-103 0 -152 48q-46 45 -46 135q0 91 46 136q49 48 152 48h256q105 0 153 -48q23 -23 33 -50.5t14 -75.5zM427 720l-190 52l17 65l173 -48l172 48l17 -65z" />
    <glyph glyph-name="trademark" unicode="&#x2122;" horiz-adv-x="944" 
d="M243 600v-267h-73v267h-130v67h333v-67h-130zM662 497l142 170h73v-334h-73v234l-142 -167l-142 167v-234h-73v334h73z" />
    <glyph glyph-name="scaron" unicode="&#x161;" horiz-adv-x="705" 
d="M616 373l-74 -13q-7 64 -36.5 85t-109.5 21h-90q-93 0 -118 -17q-27 -17 -27 -66t27 -66q25 -17 118 -17h114q67 0 97.5 -7t55.5 -27q45 -37 45 -116t-45 -115q-25 -20 -56.5 -27.5t-96.5 -7.5h-134q-97 0 -142.5 36.5t-56.5 123.5l73 14q7 -64 36.5 -85.5t109.5 -21.5
h94q92 0 118 17q27 19 27 66q0 49 -27 66q-24 17 -118 17h-114q-65 0 -96.5 7.5t-56.5 27.5q-45 36 -45 115t45 115q25 20 56.5 27.5t96.5 7.5h130q97 0 142.5 -36.5t57.5 -123.5zM354 633l-190 52l17 65l173 -48l172 48l17 -65z" />
    <glyph glyph-name="Ydieresis" unicode="&#x178;" horiz-adv-x="761" 
d="M344 265l-337 402h84l290 -344l289 344h84l-337 -402v-265h-73v265zM144 720v100h73v-100h-73zM544 720v100h73v-100h-73z" />
    <glyph glyph-name="uni00A0" unicode="&#xa0;" horiz-adv-x="380" 
 />
    <glyph glyph-name="brokenbar" unicode="&#xa6;" horiz-adv-x="499" 
d="M213 667h73v-338h-73v338zM213 138h73v-338h-73v338z" />
    <glyph glyph-name="copyright" unicode="&#xa9;" horiz-adv-x="561" 
d="M514 467v-67q0 -106 -47 -152q-48 -48 -153 -48h-67q-105 0 -153 48q-47 46 -47 152v67q0 106 47 152q48 48 153 48h67q105 0 153 -48q47 -46 47 -152zM295 617h-29q-99 0 -130.5 -31.5t-31.5 -130.5v-43q0 -99 31.5 -130.5t130.5 -31.5h29q99 0 130.5 31.5t31.5 130.5
v43q0 99 -31.5 130.5t-130.5 31.5zM362 381l59 -3q3 -4 -2 -30q-14 -61 -93 -61h-92q-50 0 -73 21t-23 67v113q2 47 24 67.5t72 20.5h92q50 0 72 -21t23 -70l-59 -3q1 28 -7.5 36t-38.5 8h-73q-29 0 -37.5 -8t-8.5 -36v-101q0 -28 8.5 -36t37.5 -8h73q30 0 38.5 8t7.5 36z
" />
    <glyph glyph-name="logicalnot" unicode="&#xac;" 
d="M680 367v-267h-73v200h-527v67h600z" />
    <glyph glyph-name="minus" unicode="&#x2212;" 
d="M680 367v-67h-600v67h600z" />
    <glyph glyph-name="registered" unicode="&#xae;" horiz-adv-x="614" 
d="M525 467v-66q0 -107 -47 -153q-48 -48 -153 -48h-67q-105 0 -153 48q-47 47 -47 153v66q0 106 47 152q48 48 153 48h67q105 0 153 -48q47 -46 47 -152zM306 617h-29q-99 0 -130.5 -31t-31.5 -130v-44q0 -99 31.5 -130.5t130.5 -31.5h29q99 0 130.5 31.5t31.5 130.5v44
q0 99 -31.5 130t-130.5 31zM377 465v17q0 28 -8.5 36t-37.5 8h-111v-105h111q29 0 37.5 8t8.5 36zM436 488v-29q0 -70 -62 -86l64 -86h-67l-57 84h-94v-84h-58v289h179q50 0 72 -20.5t23 -67.5z" />
    <glyph glyph-name="degree" unicode="&#xb0;" horiz-adv-x="519" 
d="M446 573v-42q0 -86 -37 -123.5t-123 -37.5h-53q-86 0 -123 37.5t-37 123.5v42q0 86 37 123.5t123 37.5h53q86 0 123 -37.5t37 -123.5zM262 673h-5q-72 0 -94.5 -23t-22.5 -95v-6q0 -72 22.5 -95t94.5 -23h5q72 0 94.5 23t22.5 95v6q0 72 -22.5 95t-94.5 23z" />
    <glyph glyph-name="plusminus" unicode="&#xb1;" 
d="M347 633h66v-216h267v-67h-267v-217h-66v217h-267v67h267v216zM680 67v-67h-600v67h600z" />
    <glyph glyph-name="twosuperior" unicode="&#xb2;" horiz-adv-x="533" 
d="M149 547l-73 10q1 56 28 81q29 29 91 29h142q62 0 91 -26.5t29 -83.5v-27q0 -57 -29 -83.5t-91 -26.5h-133q-37 0 -47.5 -10t-10.5 -45v-58h314v-67h-387v137q0 57 28.5 83.5t90.5 26.5h134q36 0 47 9.5t10 40.5v7q0 38 -9.5 47t-47.5 9h-119q-37 0 -47.5 -9.5
t-10.5 -43.5z" />
    <glyph glyph-name="threesuperior" unicode="&#xb3;" horiz-adv-x="533" 
d="M195 667h125q63 0 92 -28q16 -16 22 -36t6 -62q0 -35 -7.5 -52t-28.5 -28q33 -10 44.5 -32t11.5 -74q0 -62 -28 -89t-92 -27h-148q-62 0 -91 29q-27 25 -28 81l73 12q0 -35 10.5 -45t47.5 -10h124q38 0 48 9.5t10 47.5q0 37 -10 47t-48 10h-118v66h98q38 0 48.5 10
t10.5 47t-10.5 47t-48.5 10h-101q-37 0 -47.5 -10t-9.5 -45l-74 12q1 56 28 81q29 29 91 29z" />
    <glyph glyph-name="mu" unicode="&#xb5;" horiz-adv-x="716" 
d="M90 533h73v-319q0 -90 28.5 -118.5t118.5 -28.5h240v466h73v-533h-333q-50 0 -74.5 6.5t-52.5 27.5v-234h-73v733z" />
    <glyph glyph-name="onesuperior" unicode="&#xb9;" horiz-adv-x="533" 
d="M337 240h-73v360h-131l8 67h196v-427z" />
    <glyph glyph-name="onequarter" unicode="&#xbc;" horiz-adv-x="1066" 
d="M337 240h-73v360h-131l8 67h196v-427zM820 333l-144 -146h144v146zM580 187l240 240h71v-240h88l-8 -67h-80v-120h-71v120h-240v67zM671 667h80l-398 -667h-80z" />
    <glyph glyph-name="onehalf" unicode="&#xbd;" horiz-adv-x="1066" 
d="M337 240h-73v360h-131l8 67h196v-427zM683 307l-73 10q1 56 28 81q29 29 91 29h142q62 0 90.5 -26.5t28.5 -83.5v-27q0 -57 -28.5 -83.5t-90.5 -26.5h-133q-37 0 -47.5 -10t-10.5 -45v-58h313v-67h-386v137q0 57 28.5 83.5t90.5 26.5h133q36 0 47 9.5t10 40.5v7
q0 38 -9.5 47t-47.5 9h-118q-37 0 -47.5 -9.5t-10.5 -43.5zM653 667h80l-380 -667h-80z" />
    <glyph glyph-name="threequarters" unicode="&#xbe;" horiz-adv-x="1066" 
d="M195 667h125q63 0 92 -28q16 -16 21.5 -36t5.5 -62q0 -35 -7.5 -52t-27.5 -28q33 -10 44.5 -32t11.5 -74q0 -62 -28 -89t-92 -27h-148q-62 0 -91 29q-27 25 -28 81l73 12q0 -35 10.5 -45t47.5 -10h124q38 0 48 9.5t10 47.5q0 37 -10 47t-48 10h-118v66h98q38 0 48 9.5
t10 47.5q0 37 -10 47t-48 10h-101q-37 0 -47.5 -10t-9.5 -45l-74 12q1 56 28 81q29 29 91 29zM820 333l-144 -146h144v146zM580 187l240 240h71v-240h88l-8 -67h-80v-120h-71v120h-240v67zM720 667h80l-380 -667h-80z" />
    <glyph glyph-name="Agrave" unicode="&#xc0;" horiz-adv-x="827" 
d="M87 0h-80l370 669h73l370 -669h-80l-128 234h-396zM414 600l-162 -300h324zM214 793l17 65l322 -86l-17 -65z" />
    <glyph glyph-name="Aacute" unicode="&#xc1;" horiz-adv-x="827" 
d="M87 0h-80l370 669h73l370 -669h-80l-128 234h-396zM414 600l-162 -300h324zM613 793l-322 -86l-17 65l322 86z" />
    <glyph glyph-name="Acircumflex" unicode="&#xc2;" horiz-adv-x="827" 
d="M87 0h-80l370 669h73l370 -669h-80l-128 234h-396zM414 600l-162 -300h324zM414 837l189 -52l-17 -65l-172 48l-173 -48l-17 65z" />
    <glyph glyph-name="Atilde" unicode="&#xc3;" horiz-adv-x="827" 
d="M87 0h-80l370 669h73l370 -669h-80l-128 234h-396zM414 600l-162 -300h324zM245 720l-38 57q71 54 125 54q35 0 68 -16l10 -4l9 -5l10 -4q26 -13 49 -13q37 0 92 50l38 -58q-70 -61 -125 -61q-25 0 -39.5 4t-58.5 24q-28 13 -50 13q-36 0 -90 -41z" />
    <glyph glyph-name="Adieresis" unicode="&#xc4;" horiz-adv-x="827" 
d="M87 0h-80l370 669h73l370 -669h-80l-128 234h-396zM414 600l-162 -300h324zM177 720v100h73v-100h-73zM577 720v100h73v-100h-73z" />
    <glyph glyph-name="Aring" unicode="&#xc5;" horiz-adv-x="827" 
d="M87 0h-80l370 669h73l370 -669h-80l-128 234h-396zM414 600l-162 -300h324zM358 836v-19q-1 -28 7.5 -36t38.5 -8h19q31 0 39 8t8 37v16q0 30 -8 38t-39 8h-19q-30 0 -38 -7.5t-8 -36.5zM299 807v38q1 47 23 67.5t72 20.5h39q50 0 73 -23q22 -21 22 -78v-12
q0 -57 -22 -78q-24 -23 -73 -23h-39q-49 0 -72 21t-23 67z" />
    <glyph glyph-name="Ccedilla" unicode="&#xc7;" horiz-adv-x="852" 
d="M686 187l73 -13q-4 -48 -14 -75.5t-33 -50.5q-48 -48 -153 -48h-266q-105 0 -153 48q-47 47 -47 152v267q0 105 47 152q48 48 153 48h266q105 0 153 -48q23 -23 33 -50.5t14 -75.5l-73 -13q-5 73 -34 96.5t-113 23.5h-226q-90 0 -118.5 -28.5t-28.5 -118.5v-239
q0 -90 28.5 -118.5t118.5 -28.5h226q84 0 113 23.5t34 96.5zM313 -170h59q-1 -28 7.5 -36t38.5 -8h19q31 0 39 8t8 38v16q0 30 -8 37.5t-39 7.5h-24v54h34q50 0 73 -23q22 -21 22 -78v-13q0 -56 -22 -77q-24 -23 -73 -23h-39q-49 0 -72 21t-23 67v9z" />
    <glyph glyph-name="Egrave" unicode="&#xc8;" horiz-adv-x="774" 
d="M680 600h-507v-233h507l-13 -66h-494v-234h534v-67h-607v667h580v-67zM200 793l17 65l322 -86l-17 -65z" />
    <glyph glyph-name="Eacute" unicode="&#xc9;" horiz-adv-x="774" 
d="M680 600h-507v-233h507l-13 -66h-494v-234h534v-67h-607v667h580v-67zM599 793l-322 -86l-17 65l322 86z" />
    <glyph glyph-name="Ecircumflex" unicode="&#xca;" horiz-adv-x="774" 
d="M680 600h-507v-233h507l-13 -66h-494v-234h534v-67h-607v667h580v-67zM403 837l189 -52l-17 -65l-172 48l-173 -48l-17 65z" />
    <glyph glyph-name="Edieresis" unicode="&#xcb;" horiz-adv-x="774" 
d="M680 600h-507v-233h507l-13 -66h-494v-234h534v-67h-607v667h580v-67zM167 720v100h73v-100h-73zM567 720v100h73v-100h-73z" />
    <glyph glyph-name="Igrave" unicode="&#xcc;" horiz-adv-x="273" 
d="M173 667v-667h-73v667h73zM-49 793l17 65l322 -86l-17 -65z" />
    <glyph glyph-name="Iacute" unicode="&#xcd;" horiz-adv-x="273" 
d="M173 667v-667h-73v667h73zM322 793l-322 -86l-17 65l322 86z" />
    <glyph glyph-name="Icircumflex" unicode="&#xce;" horiz-adv-x="273" 
d="M173 667v-667h-73v667h73zM137 837l189 -52l-17 -65l-172 48l-173 -48l-17 65z" />
    <glyph glyph-name="Idieresis" unicode="&#xcf;" horiz-adv-x="273" 
d="M173 667v-667h-73v667h73zM0 720v100h73v-100h-73zM200 720v100h73v-100h-73z" />
    <glyph glyph-name="Eth" unicode="&#xd0;" horiz-adv-x="859" 
d="M173 600v-233h260v-67h-260v-233h373q90 0 118.5 28.5t28.5 118.5v239q0 90 -28.5 118.5t-118.5 28.5h-373zM100 300h-67v67h67v300h466q105 0 153 -48q47 -46 47 -152v-267q0 -106 -47 -152q-48 -48 -153 -48h-466v300z" />
    <glyph glyph-name="Ntilde" unicode="&#xd1;" horiz-adv-x="867" 
d="M173 581v-581h-73v667h73l521 -334v334h73v-667h-73v251zM271 720l-38 57q71 54 125 54q35 0 68 -16l10 -4l9 -5l10 -4q26 -13 49 -13q37 0 92 50l38 -58q-70 -61 -125 -61q-25 0 -39.5 4t-58.5 24q-28 13 -50 13q-36 0 -90 -41z" />
    <glyph glyph-name="Ograve" unicode="&#xd2;" horiz-adv-x="853" 
d="M760 467v-267q0 -105 -47 -152q-48 -48 -153 -48h-267q-105 0 -153 48q-47 47 -47 152v267q0 105 47 152q48 48 153 48h267q105 0 153 -48q47 -47 47 -152zM540 600h-227q-90 0 -118.5 -28.5t-28.5 -118.5v-239q0 -90 28.5 -118.5t118.5 -28.5h227q90 0 118.5 28.5
t28.5 118.5v239q0 90 -28.5 118.5t-118.5 28.5zM220 793l17 65l322 -86l-17 -65z" />
    <glyph glyph-name="Oacute" unicode="&#xd3;" horiz-adv-x="853" 
d="M760 467v-267q0 -105 -47 -152q-48 -48 -153 -48h-267q-105 0 -153 48q-47 47 -47 152v267q0 105 47 152q48 48 153 48h267q105 0 153 -48q47 -47 47 -152zM540 600h-227q-90 0 -118.5 -28.5t-28.5 -118.5v-239q0 -90 28.5 -118.5t118.5 -28.5h227q90 0 118.5 28.5
t28.5 118.5v239q0 90 -28.5 118.5t-118.5 28.5zM632 793l-322 -86l-17 65l322 86z" />
    <glyph glyph-name="Ocircumflex" unicode="&#xd4;" horiz-adv-x="853" 
d="M760 467v-267q0 -105 -47 -152q-48 -48 -153 -48h-267q-105 0 -153 48q-47 47 -47 152v267q0 105 47 152q48 48 153 48h267q105 0 153 -48q47 -47 47 -152zM540 600h-227q-90 0 -118.5 -28.5t-28.5 -118.5v-239q0 -90 28.5 -118.5t118.5 -28.5h227q90 0 118.5 28.5
t28.5 118.5v239q0 90 -28.5 118.5t-118.5 28.5zM426 837l189 -52l-17 -65l-172 48l-173 -48l-17 65z" />
    <glyph glyph-name="Otilde" unicode="&#xd5;" horiz-adv-x="853" 
d="M760 467v-267q0 -105 -47 -152q-48 -48 -153 -48h-267q-105 0 -153 48q-47 47 -47 152v267q0 105 47 152q48 48 153 48h267q105 0 153 -48q47 -47 47 -152zM540 600h-227q-90 0 -118.5 -28.5t-28.5 -118.5v-239q0 -90 28.5 -118.5t118.5 -28.5h227q90 0 118.5 28.5
t28.5 118.5v239q0 90 -28.5 118.5t-118.5 28.5zM264 720l-38 57q71 54 125 54q35 0 68 -16l10 -4l9 -5l10 -4q26 -13 49 -13q37 0 92 50l38 -58q-70 -61 -125 -61q-25 0 -39.5 4t-58.5 24q-28 13 -50 13q-36 0 -90 -41z" />
    <glyph glyph-name="Odieresis" unicode="&#xd6;" horiz-adv-x="853" 
d="M760 467v-267q0 -105 -47 -152q-48 -48 -153 -48h-267q-105 0 -153 48q-47 47 -47 152v267q0 105 47 152q48 48 153 48h267q105 0 153 -48q47 -47 47 -152zM540 600h-227q-90 0 -118.5 -28.5t-28.5 -118.5v-239q0 -90 28.5 -118.5t118.5 -28.5h227q90 0 118.5 28.5
t28.5 118.5v239q0 90 -28.5 118.5t-118.5 28.5zM190 720v100h73v-100h-73zM590 720v100h73v-100h-73z" />
    <glyph glyph-name="multiply" unicode="&#xd7;" horiz-adv-x="759" 
d="M649 650l47 -46l-270 -270l270 -270l-47 -47l-270 270l-269 -270l-47 47l270 270l-270 269l47 47l270 -269z" />
    <glyph glyph-name="Ugrave" unicode="&#xd9;" horiz-adv-x="861" 
d="M764 667v-466q0 -106 -47 -153q-48 -48 -153 -48h-267q-105 0 -153 48q-47 47 -47 153v466h73v-453q0 -90 28.5 -118.5t118.5 -28.5h227q90 0 118.5 28.5t28.5 118.5v453h73zM224 793l17 65l322 -86l-17 -65z" />
    <glyph glyph-name="Uacute" unicode="&#xda;" horiz-adv-x="861" 
d="M764 667v-466q0 -106 -47 -153q-48 -48 -153 -48h-267q-105 0 -153 48q-47 47 -47 153v466h73v-453q0 -90 28.5 -118.5t118.5 -28.5h227q90 0 118.5 28.5t28.5 118.5v453h73zM636 793l-322 -86l-17 65l322 86z" />
    <glyph glyph-name="Ucircumflex" unicode="&#xdb;" horiz-adv-x="861" 
d="M764 667v-466q0 -106 -47 -153q-48 -48 -153 -48h-267q-105 0 -153 48q-47 47 -47 153v466h73v-453q0 -90 28.5 -118.5t118.5 -28.5h227q90 0 118.5 28.5t28.5 118.5v453h73zM431 837l189 -52l-17 -65l-172 48l-173 -48l-17 65z" />
    <glyph glyph-name="Udieresis" unicode="&#xdc;" horiz-adv-x="861" 
d="M764 667v-466q0 -106 -47 -153q-48 -48 -153 -48h-267q-105 0 -153 48q-47 47 -47 153v466h73v-453q0 -90 28.5 -118.5t118.5 -28.5h227q90 0 118.5 28.5t28.5 118.5v453h73zM194 720v100h73v-100h-73zM594 720v100h73v-100h-73z" />
    <glyph glyph-name="Yacute" unicode="&#xdd;" horiz-adv-x="761" 
d="M344 265l-337 402h84l290 -344l289 344h84l-337 -402v-265h-73v265zM566 793l-322 -86l-17 64l322 87z" />
    <glyph glyph-name="Thorn" unicode="&#xde;" horiz-adv-x="813" 
d="M100 667h73v-100h393q105 0 153 -48q47 -47 47 -153v-32q0 -106 -47 -153q-48 -48 -153 -48h-393v-133h-73v667zM173 500v-300h373q90 0 118.5 28.5t28.5 118.5v6q0 90 -28.5 118.5t-118.5 28.5h-373z" />
    <glyph glyph-name="agrave" unicode="&#xe0;" horiz-adv-x="713" 
d="M620 0h-333q-105 0 -153 48q-47 47 -47 152v133q0 105 47 152q48 48 153 48h333v-533zM547 67v399h-240q-90 0 -118.5 -28.5t-28.5 -118.5v-105q0 -90 28.5 -118.5t118.5 -28.5h240zM174 706l17 65l322 -86l-17 -65z" />
    <glyph glyph-name="aacute" unicode="&#xe1;" horiz-adv-x="713" 
d="M620 0h-333q-105 0 -153 48q-47 47 -47 152v133q0 105 47 152q48 48 153 48h333v-533zM547 67v399h-240q-90 0 -118.5 -28.5t-28.5 -118.5v-105q0 -90 28.5 -118.5t118.5 -28.5h240zM539 706l-322 -86l-17 65l322 86z" />
    <glyph glyph-name="acircumflex" unicode="&#xe2;" horiz-adv-x="713" 
d="M620 0h-333q-105 0 -153 48q-47 47 -47 152v133q0 105 47 152q48 48 153 48h333v-533zM547 67v399h-240q-90 0 -118.5 -28.5t-28.5 -118.5v-105q0 -90 28.5 -118.5t118.5 -28.5h240zM353 750l189 -52l-17 -65l-172 48l-173 -48l-17 65z" />
    <glyph glyph-name="atilde" unicode="&#xe3;" horiz-adv-x="713" 
d="M620 0h-333q-105 0 -153 48q-47 47 -47 152v133q0 105 47 152q48 48 153 48h333v-533zM547 67v399h-240q-90 0 -118.5 -28.5t-28.5 -118.5v-105q0 -90 28.5 -118.5t118.5 -28.5h240zM192 634l-38 57q71 54 125 54q35 0 68 -16l10 -4l9 -5l10 -4q26 -13 49 -13q37 0 92 50
l38 -58q-70 -61 -125 -61q-25 0 -39.5 4t-58.5 24q-28 13 -50 13q-36 0 -90 -41z" />
    <glyph glyph-name="adieresis" unicode="&#xe4;" horiz-adv-x="713" 
d="M620 0h-333q-105 0 -153 48q-47 47 -47 152v133q0 105 47 152q48 48 153 48h333v-533zM547 67v399h-240q-90 0 -118.5 -28.5t-28.5 -118.5v-105q0 -90 28.5 -118.5t118.5 -28.5h240zM154 633v101h73v-101h-73zM488 633v101h73v-101h-73z" />
    <glyph glyph-name="aring" unicode="&#xe5;" horiz-adv-x="713" 
d="M620 0h-333q-105 0 -153 48q-47 47 -47 152v133q0 105 47 152q48 48 153 48h333v-533zM547 67v399h-240q-90 0 -118.5 -28.5t-28.5 -118.5v-105q0 -90 28.5 -118.5t118.5 -28.5h240zM299 749v-19q-1 -28 7.5 -36t38.5 -8h19q31 0 39 8t8 37v16q0 30 -8 38t-39 8h-19
q-30 0 -38 -7.5t-8 -36.5zM240 720v38q1 47 23 67.5t72 20.5h39q50 0 73 -23q22 -21 22 -78v-12q0 -57 -22 -78q-24 -23 -73 -23h-39q-49 0 -72 21t-23 67z" />
    <glyph glyph-name="ccedilla" unicode="&#xe7;" horiz-adv-x="706" 
d="M545 174l74 -14q-8 -74 -46 -112q-49 -48 -153 -48h-133q-105 0 -153 48q-47 47 -47 152v133q0 105 47 152q48 48 153 48h133q104 0 153 -48q38 -38 46 -112l-74 -14q-4 63 -34.5 85t-110.5 22h-93q-90 0 -118.5 -28.5t-28.5 -118.5v-105q0 -90 28.5 -118.5t118.5 -28.5
h93q80 0 110.5 22t34.5 85zM240 -170h59q-1 -28 7.5 -36t38.5 -8h19q31 0 39 8t8 38v16q0 30 -8 37.5t-39 7.5h-24v54h34q50 0 73 -23q22 -21 22 -78v-13q0 -56 -22 -77q-24 -23 -73 -23h-39q-49 0 -72 21t-23 67v9z" />
    <glyph glyph-name="egrave" unicode="&#xe8;" horiz-adv-x="706" 
d="M546 173l73 -13q-8 -74 -46 -112q-49 -48 -153 -48h-133q-104 0 -153 48q-47 47 -47 152v133q0 105 47 152q49 48 153 48h133q104 0 153 -48q26 -26 36 -58.5t10 -93.5v-87h-459v-33q0 -89 29 -117.5t118 -28.5h93q81 0 111 22t35 84zM549 313v7q0 89 -28.5 117.5
t-118.5 28.5h-95q-89 0 -118 -28.5t-29 -117.5v-7h389zM154 706l17 65l322 -86l-17 -65z" />
    <glyph glyph-name="eacute" unicode="&#xe9;" horiz-adv-x="706" 
d="M546 173l73 -13q-8 -74 -46 -112q-49 -48 -153 -48h-133q-104 0 -153 48q-47 47 -47 152v133q0 105 47 152q49 48 153 48h133q104 0 153 -48q26 -26 36 -58.5t10 -93.5v-87h-459v-33q0 -89 29 -117.5t118 -28.5h93q81 0 111 22t35 84zM549 313v7q0 89 -28.5 117.5
t-118.5 28.5h-95q-89 0 -118 -28.5t-29 -117.5v-7h389zM526 706l-322 -86l-17 65l322 86z" />
    <glyph glyph-name="ecircumflex" unicode="&#xea;" horiz-adv-x="706" 
d="M546 173l73 -13q-8 -74 -46 -112q-49 -48 -153 -48h-133q-104 0 -153 48q-47 47 -47 152v133q0 105 47 152q49 48 153 48h133q104 0 153 -48q26 -26 36 -58.5t10 -93.5v-87h-459v-33q0 -89 29 -117.5t118 -28.5h93q81 0 111 22t35 84zM549 313v7q0 89 -28.5 117.5
t-118.5 28.5h-95q-89 0 -118 -28.5t-29 -117.5v-7h389zM354 750l189 -52l-17 -65l-172 48l-173 -48l-17 65z" />
    <glyph glyph-name="edieresis" unicode="&#xeb;" horiz-adv-x="706" 
d="M546 173l73 -13q-8 -74 -46 -112q-49 -48 -153 -48h-133q-104 0 -153 48q-47 47 -47 152v133q0 105 47 152q49 48 153 48h133q104 0 153 -48q26 -26 36 -58.5t10 -93.5v-87h-459v-33q0 -89 29 -117.5t118 -28.5h93q81 0 111 22t35 84zM549 313v7q0 89 -28.5 117.5
t-118.5 28.5h-95q-89 0 -118 -28.5t-29 -117.5v-7h389zM151 633v101h73v-101h-73zM485 633v101h73v-101h-73z" />
    <glyph glyph-name="igrave" unicode="&#xec;" horiz-adv-x="260" 
d="M93 0v533h73v-533h-73zM0 679l17 65l216 -59l-17 -65z" />
    <glyph glyph-name="iacute" unicode="&#xed;" horiz-adv-x="260" 
d="M94 0v533h73v-533h-73zM260 679l-216 -59l-17 65l216 59z" />
    <glyph glyph-name="icircumflex" unicode="&#xee;" horiz-adv-x="259" 
d="M93 0v533h73v-533h-73zM130 750l169 -52l-17 -65l-152 48l-153 -48l-17 65z" />
    <glyph glyph-name="idieresis" unicode="&#xef;" horiz-adv-x="260" 
d="M93 0v533h73v-533h-73zM0 633v101h73v-101h-73zM187 633v101h73v-101h-73z" />
    <glyph glyph-name="eth" unicode="&#xf0;" horiz-adv-x="707" 
d="M300 562l-53 40l40 49l-106 83h110l40 -31l45 53l52 -40l-44 -53l112 -86q71 -54 97.5 -106.5t26.5 -137.5v-133q0 -105 -47 -152q-48 -48 -153 -48h-133q-105 0 -153 48q-47 47 -47 152v133q0 105 47 152q48 48 153 48h155l-102 78zM400 466h-93q-90 0 -118.5 -28.5
t-28.5 -118.5v-105q0 -90 28.5 -118.5t118.5 -28.5h93q90 0 118.5 28.5t28.5 118.5v105q0 90 -28.5 118.5t-118.5 28.5z" />
    <glyph glyph-name="ntilde" unicode="&#xf1;" horiz-adv-x="716" 
d="M553 0v319q0 90 -28.5 118.5t-118.5 28.5h-240v-466h-73v533h333q105 0 153 -48q47 -47 47 -152v-333h-73zM198 634l-38 57q71 54 125 54q35 0 68 -16l10 -4l9 -5l10 -4q26 -13 49 -13q37 0 92 50l38 -58q-70 -61 -125 -61q-25 0 -39.5 4t-58.5 24q-28 13 -50 13
q-36 0 -90 -41z" />
    <glyph glyph-name="ograve" unicode="&#xf2;" horiz-adv-x="707" 
d="M620 333v-133q0 -105 -47 -152q-48 -48 -153 -48h-133q-105 0 -153 48q-47 47 -47 152v133q0 105 47 152q48 48 153 48h133q105 0 153 -48q47 -47 47 -152zM400 466h-93q-90 0 -118.5 -28.5t-28.5 -118.5v-105q0 -90 28.5 -118.5t118.5 -28.5h93q90 0 118.5 28.5
t28.5 118.5v105q0 90 -28.5 118.5t-118.5 28.5zM168 706l17 65l322 -86l-17 -65z" />
    <glyph glyph-name="oacute" unicode="&#xf3;" horiz-adv-x="707" 
d="M620 333v-133q0 -105 -47 -152q-48 -48 -153 -48h-133q-105 0 -153 48q-47 47 -47 152v133q0 105 47 152q48 48 153 48h133q105 0 153 -48q47 -47 47 -152zM400 466h-93q-90 0 -118.5 -28.5t-28.5 -118.5v-105q0 -90 28.5 -118.5t118.5 -28.5h93q90 0 118.5 28.5
t28.5 118.5v105q0 90 -28.5 118.5t-118.5 28.5zM539 706l-322 -86l-17 65l322 86z" />
    <glyph glyph-name="ocircumflex" unicode="&#xf4;" horiz-adv-x="707" 
d="M620 333v-133q0 -105 -47 -152q-48 -48 -153 -48h-133q-105 0 -153 48q-47 47 -47 152v133q0 105 47 152q48 48 153 48h133q105 0 153 -48q47 -47 47 -152zM400 466h-93q-90 0 -118.5 -28.5t-28.5 -118.5v-105q0 -90 28.5 -118.5t118.5 -28.5h93q90 0 118.5 28.5
t28.5 118.5v105q0 90 -28.5 118.5t-118.5 28.5zM354 750l189 -52l-17 -65l-172 48l-173 -48l-17 65z" />
    <glyph glyph-name="otilde" unicode="&#xf5;" horiz-adv-x="707" 
d="M620 333v-133q0 -105 -47 -152q-48 -48 -153 -48h-133q-105 0 -153 48q-47 47 -47 152v133q0 105 47 152q48 48 153 48h133q105 0 153 -48q47 -47 47 -152zM400 466h-93q-90 0 -118.5 -28.5t-28.5 -118.5v-105q0 -90 28.5 -118.5t118.5 -28.5h93q90 0 118.5 28.5
t28.5 118.5v105q0 90 -28.5 118.5t-118.5 28.5zM187 634l-38 57q71 54 125 54q35 0 68 -16l10 -4l9 -5l10 -4q26 -13 49 -13q37 0 92 50l38 -58q-70 -61 -125 -61q-25 0 -39.5 4t-58.5 24q-28 13 -50 13q-36 0 -90 -41z" />
    <glyph glyph-name="odieresis" unicode="&#xf6;" horiz-adv-x="707" 
d="M620 333v-133q0 -105 -47 -152q-48 -48 -153 -48h-133q-105 0 -153 48q-47 47 -47 152v133q0 105 47 152q48 48 153 48h133q105 0 153 -48q47 -47 47 -152zM400 466h-93q-90 0 -118.5 -28.5t-28.5 -118.5v-105q0 -90 28.5 -118.5t118.5 -28.5h93q90 0 118.5 28.5
t28.5 118.5v105q0 90 -28.5 118.5t-118.5 28.5zM150 633v101h73v-101h-73zM484 633v101h73v-101h-73z" />
    <glyph glyph-name="divide" unicode="&#xf7;" 
d="M80 300v67h600v-67h-600zM347 140h66v-107h-66v107zM413 527h-66v106h66v-106z" />
    <glyph glyph-name="ugrave" unicode="&#xf9;" horiz-adv-x="716" 
d="M163 533v-319q0 -90 28.5 -118.5t118.5 -28.5h240v466h73v-533h-333q-105 0 -153 48q-47 47 -47 152v333h73zM171 706l17 65l322 -86l-17 -65z" />
    <glyph glyph-name="uacute" unicode="&#xfa;" horiz-adv-x="716" 
d="M163 533v-319q0 -90 28.5 -118.5t118.5 -28.5h240v466h73v-533h-333q-105 0 -153 48q-47 47 -47 152v333h73zM542 706l-322 -86l-17 65l322 86z" />
    <glyph glyph-name="ucircumflex" unicode="&#xfb;" horiz-adv-x="716" 
d="M163 533v-319q0 -90 28.5 -118.5t118.5 -28.5h240v466h73v-533h-333q-105 0 -153 48q-47 47 -47 152v333h73zM357 750l189 -52l-17 -65l-172 48l-173 -48l-17 65z" />
    <glyph glyph-name="udieresis" unicode="&#xfc;" horiz-adv-x="716" 
d="M163 533v-319q0 -90 28.5 -118.5t118.5 -28.5h240v466h73v-533h-333q-105 0 -153 48q-47 47 -47 152v333h73zM153 633v101h73v-101h-73zM487 633v101h73v-101h-73z" />
    <glyph glyph-name="yacute" unicode="&#xfd;" horiz-adv-x="654" 
d="M288 3l-281 530h80l240 -456l240 456h80l-318 -606q-29 -56 -47.5 -78.5t-45.5 -33.5q-35 -15 -101 -15h-128v67h108q65 0 93 14t48 57zM513 706l-322 -86l-17 65l322 86z" />
    <glyph glyph-name="thorn" unicode="&#xfe;" horiz-adv-x="720" 
d="M100 734h73v-201h260q105 0 153 -48q47 -47 47 -152v-133q0 -105 -47 -152q-48 -48 -153 -48h-260v-200h-73v934zM173 466v-399h240q90 0 118.5 28.5t28.5 118.5v105q0 90 -28.5 118.5t-118.5 28.5h-240z" />
    <glyph glyph-name="ydieresis" unicode="&#xff;" horiz-adv-x="654" 
d="M288 3l-281 530h80l240 -456l240 456h80l-318 -606q-29 -56 -47.5 -78.5t-45.5 -33.5q-35 -15 -101 -15h-128v67h108q65 0 93 14t48 57zM124 633v101h73v-101h-73zM458 633v101h73v-101h-73z" />
    <glyph glyph-name="CR" horiz-adv-x="380" 
 />
    <glyph glyph-name="Cacute" unicode="&#x106;" horiz-adv-x="852" 
d="M686 187l73 -13q-4 -48 -14 -75.5t-33 -50.5q-48 -48 -153 -48h-266q-105 0 -153 48q-47 47 -47 152v267q0 105 47 152q48 48 153 48h266q105 0 153 -48q23 -23 33 -50.5t14 -75.5l-73 -13q-5 73 -34 96.5t-113 23.5h-226q-90 0 -118.5 -28.5t-28.5 -118.5v-239
q0 -90 28.5 -118.5t118.5 -28.5h226q84 0 113 23.5t34 96.5zM632 793l-322 -86l-17 64l322 87z" />
    <glyph glyph-name="Ccaron" unicode="&#x10c;" horiz-adv-x="852" 
d="M686 187l73 -13q-4 -48 -14 -75.5t-33 -50.5q-48 -48 -153 -48h-266q-105 0 -153 48q-47 47 -47 152v267q0 105 47 152q48 48 153 48h266q105 0 153 -48q23 -23 33 -50.5t14 -75.5l-73 -13q-5 73 -34 96.5t-113 23.5h-226q-90 0 -118.5 -28.5t-28.5 -118.5v-239
q0 -90 28.5 -118.5t118.5 -28.5h226q84 0 113 23.5t34 96.5zM426 720l-190 52l18 65l172 -48l172 48l18 -65z" />
    <glyph glyph-name="Gbreve" unicode="&#x11e;" horiz-adv-x="853" 
d="M687 214v87h-247l13 66h307v-166q0 -106 -47 -153q-48 -48 -153 -48h-267q-105 0 -153 48q-47 47 -47 153v266q0 105 47 152q48 48 153 48h267q105 0 153 -48q22 -22 32 -49.5t15 -76.5l-73 -13q-5 73 -34 96.5t-113 23.5h-227q-90 0 -118.5 -28.5t-28.5 -118.5v-239
q0 -90 28.5 -118.5t118.5 -28.5h227q90 0 118.5 28.5t28.5 118.5zM238 787l42 58q48 -31 79.5 -42.5t67.5 -11.5q37 0 68.5 11.5t79.5 42.5l42 -58q-60 -39 -101 -53.5t-89 -14.5t-88.5 14.5t-100.5 53.5z" />
    <glyph glyph-name="Idot" unicode="&#x130;" horiz-adv-x="273" 
d="M173 667v-667h-73v667h73zM100 720v100h73v-100h-73z" />
    <glyph glyph-name="Scedilla" unicode="&#x15e;" horiz-adv-x="851" 
d="M754 493l-73 -13q-5 73 -34 96.5t-113 23.5h-216q-83 0 -114 -25t-31 -92t31 -91.5t114 -24.5h242q105 0 152 -48q46 -46 46 -135q0 -91 -46 -136q-49 -48 -152 -48h-267q-105 0 -153 48q-23 23 -33 50.5t-14 75.5l73 13q5 -73 34 -96.5t113 -23.5h227q83 0 114 25t31 92
q0 63 -27 87q-18 16 -43.5 22.5t-74.5 6.5h-242q-103 0 -152 48q-46 45 -46 135q0 91 46 136q49 48 152 48h256q105 0 153 -48q23 -23 33 -50.5t14 -75.5zM313 -170h59q-1 -28 7.5 -36t38.5 -8h19q31 0 39 8t8 38v16q0 30 -8 37.5t-39 7.5h-24v54h34q50 0 73 -23
q22 -21 22 -78v-13q0 -56 -22 -77q-24 -23 -73 -23h-39q-49 0 -72 21t-23 67v9z" />
    <glyph glyph-name="cacute" unicode="&#x107;" horiz-adv-x="706" 
d="M545 174l74 -14q-8 -74 -46 -112q-49 -48 -153 -48h-133q-105 0 -153 48q-47 47 -47 152v133q0 105 47 152q48 48 153 48h133q104 0 153 -48q38 -38 46 -112l-74 -14q-4 63 -34.5 85t-110.5 22h-93q-90 0 -118.5 -28.5t-28.5 -118.5v-105q0 -90 28.5 -118.5t118.5 -28.5
h93q80 0 110.5 22t34.5 85zM540 706l-322 -86l-18 65l322 86z" />
    <glyph glyph-name="ccaron" unicode="&#x10d;" horiz-adv-x="706" 
d="M545 174l74 -14q-8 -74 -46 -112q-49 -48 -153 -48h-133q-105 0 -153 48q-47 47 -47 152v133q0 105 47 152q48 48 153 48h133q104 0 153 -48q38 -38 46 -112l-74 -14q-4 63 -34.5 85t-110.5 22h-93q-90 0 -118.5 -28.5t-28.5 -118.5v-105q0 -90 28.5 -118.5t118.5 -28.5
h93q80 0 110.5 22t34.5 85zM354 633l-190 52l17 65l173 -48l172 48l17 -65z" />
    <glyph glyph-name="dmacron" unicode="&#x111;" horiz-adv-x="714" 
d="M547 67v400h-240q-90 0 -118.5 -28.5t-28.5 -118.5v-106q0 -90 28.5 -118.5t118.5 -28.5h240zM547 600h-193v67h193v67h73v-67h67v-67h-67v-600h-333q-105 0 -153 48q-47 46 -47 152v133q0 106 47 152q48 48 153 48h260v67z" />
    <glyph glyph-name="franc" unicode="&#x20a3;" horiz-adv-x="1032" 
d="M173 600v-233h374l-13 -66h-361v-301h-73v667h447v-67h-374zM1032 373l-73 -14q-4 63 -34.5 85t-110.5 22h-107v-466h-73v533h200q103 0 152 -48q22 -21 31.5 -45.5t14.5 -66.5z" />
    <glyph glyph-name="gbreve" unicode="&#x11f;" horiz-adv-x="713" 
d="M88 -46l73 13q4 -58 35 -79t109 -21h94q88 0 118.5 27.5t29.5 105.5h-260q-105 0 -153 48q-47 47 -47 152v133q0 105 47 152q48 48 153 48h333l-1 -533q0 -105 -47 -152q-49 -48 -153 -48h-134q-95 0 -141 36t-56 118zM547 466h-240q-90 0 -118.5 -28.5t-28.5 -118.5
v-105q0 -90 28.5 -118.5t118.5 -28.5h240v399zM164 700l42 59q48 -31 79.5 -43t68.5 -12t68 11.5t79 43.5l42 -59q-60 -39 -100.5 -53.5t-88.5 -14.5t-88.5 14.5t-101.5 53.5z" />
    <glyph glyph-name="uni00AD" unicode="&#xad;" horiz-adv-x="220" 
d="M0 266v67h220v-67h-220z" />
    <glyph glyph-name="uni02C9" unicode="&#x2c9;" horiz-adv-x="667" 
d="M167 633v67h333v-67h-333z" />
    <glyph glyph-name="uni037E" unicode="&#x37e;" horiz-adv-x="227" 
d="M47 93h80v-93q0 -60 -13.5 -101t-53.5 -99h-80q39 80 53 121.5t14 78.5v93zM47 300v93h80v-93h-80z" />
    <glyph glyph-name="uni03BC" unicode="&#x3bc;" horiz-adv-x="716" 
d="M90 533h73v-319q0 -90 28.5 -118.5t118.5 -28.5h240v466h73v-533h-333q-50 0 -74.5 6.5t-52.5 27.5v-234h-73v733z" />
    <glyph glyph-name="uni2215" unicode="&#x2215;" horiz-adv-x="460" 
d="M380 667h80l-380 -667h-80z" />
    <glyph glyph-name="uni2219" unicode="&#x2219;" horiz-adv-x="660" 
d="M460 393v-119q0 -45 -14.5 -59.5t-58.5 -14.5h-114q-44 0 -58.5 14.5t-14.5 59.5v119q0 45 14.5 59.5t58.5 14.5h114q44 0 58.5 -14.5t14.5 -59.5z" />
    <glyph glyph-name="uni2224" unicode="&#x2224;" horiz-adv-x="660" 
d="M460 393v-119q0 -45 -14.5 -59.5t-58.5 -14.5h-114q-44 0 -58.5 14.5t-14.5 59.5v119q0 45 14.5 59.5t58.5 14.5h114q44 0 58.5 -14.5t14.5 -59.5z" />
    <glyph glyph-name="uni2227" unicode="&#x2227;" horiz-adv-x="660" 
d="M460 393v-119q0 -45 -14.5 -59.5t-58.5 -14.5h-114q-44 0 -58.5 14.5t-14.5 59.5v119q0 45 14.5 59.5t58.5 14.5h114q44 0 58.5 -14.5t14.5 -59.5z" />
    <glyph glyph-name="uni22C5" unicode="&#x22c5;" horiz-adv-x="660" 
d="M460 393v-119q0 -45 -14.5 -59.5t-58.5 -14.5h-114q-44 0 -58.5 14.5t-14.5 59.5v119q0 45 14.5 59.5t58.5 14.5h114q44 0 58.5 -14.5t14.5 -59.5z" />
  </font>
</defs>
</svg>
