<svg id="Ebene_1" data-name="Ebene 1" xmlns="http://www.w3.org/2000/svg" viewBox="0 0 600 480"><defs><style>.cls-1{fill:#fcdd17;}</style></defs><title>Aktionen</title><path class="cls-1" d="M384.05,384.59c-33,0-45.8-11.68-45.8-41.66V278.56c.46-18.82,3.76-25.33,10.09-31.35,6.76-6.43,15.08-10.41,35.71-10.41h53.42c20.56,0,29.15,4.16,35.71,10.41,7.45,7.11,10.1,14,10.1,38.15V336c0,24.21-2.65,31-10.11,38.17-6.55,6.24-15.14,10.4-35.7,10.4Zm5.53-135.4c-13.2,0-22,1.15-28.21,7-6.93,6.62-7.5,16.68-7.5,27.29v53.89c0,10.6.57,20.67,7.5,27.29,6.17,5.88,15,7,28.21,7h41.91c11.64,0,21.83-.54,28.47-7.08s7.24-16.66,7.24-28.17V284.44c0-29.92-9.36-35.25-35.71-35.25ZM208.87,384.59,373.62,95.41h16.13L225,384.59ZM162.53,243.66c-33,0-45.81-11.68-45.81-41.66V137.18c.46-18.83,3.77-25.34,10.1-31.35,6.75-6.44,15.08-10.42,35.71-10.42h53c20.56,0,29.14,4.16,35.7,10.41,7.58,7.23,10.11,13.83,10.11,38.61v50.2c0,24.79-2.53,31.39-10.11,38.63-6.56,6.24-15.14,10.4-35.7,10.4Zm5.53-135.4c-13.2,0-22,1.15-28.21,7-6.93,6.62-7.51,16.69-7.51,27.29v53.89c0,10.6.58,20.67,7.51,27.29,6.17,5.89,15,7,28.21,7H210c11.65,0,21.84-.53,28.48-7.08s7.24-16.65,7.24-28.17V143.51c0-29.92-9.36-35.25-35.72-35.25Z"/></svg>