<svg id="paket" xmlns="http://www.w3.org/2000/svg" xmlns:xlink="http://www.w3.org/1999/xlink" viewBox="0 0 600 480"><defs><style>.cls-1{fill:none;}.cls-2{fill:#fcdd17;}.cls-3{clip-path:url(#clip-path);}.cls-4{clip-path:url(#clip-path-2);}.cls-5{fill:#f8d916;}</style><clipPath id="clip-path"><rect class="cls-1" x="247.61" y="113.75" width="99.56" height="98.98"/></clipPath><clipPath id="clip-path-2"><rect class="cls-1" x="247.61" y="113.75" width="99.56" height="98.98"/></clipPath></defs><title>Angebote</title><path class="cls-2" d="M433,178.43l39.3-52.23L335.4,76.92l-25.09,28.24a57.06,57.06,0,0,1,8.61,2.6l18.9-21.29,121.25,43.66-32.95,43.79-72.33-29.66a56.2,56.2,0,0,1,2.39,9.81l61.62,25.25L301,240V222.63c-1.18.07-2.38.11-3.59.11s-2.15,0-3.21-.1v17.55L185.93,188.64l52-27.2a58.33,58.33,0,0,1,1.1-9.79l-61.71,32.28a4.43,4.43,0,0,0-.46.29l-46.43-24.84,119.12-56.1,16.58,9.33a59.86,59.86,0,0,1,8.74-4.46l-25-14L112.26,158.92l57.68,30.85-46,44.43,47.15,24.59v86.08L297.69,408.2l133.2-76.07V264.52l56.85-34.38ZM137.74,232.2l39.85-38.49,113.49,54-37.44,44.92ZM294.18,398.85,177.87,340.67V262.34l77.82,40.6,38.49-46.16Zm129.91-70.67L301,398.49V255.2L357.42,309l66.67-40.31Zm-65.55-29.43-54-51.44,122.22-63.44s0,0,0,0l47.55,44.87Z"/><g id="Vektor-Smartobjekt"><g class="cls-3"><g class="cls-4"><path class="cls-5" d="M321.38,151.69l-7.22-3,2.71,3.77,3.54-.63,6.1,2.52-7.21,1.46,9.1,12.59-.56,1.3-2.72.88-2.71-.28L300,159.77l-6.64-3.11-13.87-6.53-23.82,3.08,5.81,9.12L292,156.91l6.61,3.14-34.16,7,10.67,16.74-2.09,2.89-6.68,2.1-4.63-.92-14-28.31c-.09,1.23-.15,2.48-.15,3.75a49.79,49.79,0,0,0,99.57,0c0-.33,0-.65,0-1Z"/><path class="cls-5" d="M276.75,147.21l4.06-.46L283,147l16.34,7.42,1.81.83,8.7-1.56,2.23,3.59-4.44.9,8.85,4-11.33-17.78.71-.57.9-.11.92-.08,1.86.25,16.95,6.82,6.27-1.11,2.84,2.89-3.16.62,8.06,3.25-14.4-14.34.39-.45,2.21-.24,2.18.55,7.33,6.76,2.92,2.7,5.52,5.12a44.84,44.84,0,0,0-1.19-6l-3.57.74-2.94-2.7,5.61-1a49.86,49.86,0,0,0-95.25,2.72Z"/></g></g></g></svg>