<svg id="Ebene_1" data-name="Ebene 1" xmlns="http://www.w3.org/2000/svg" viewBox="0 0 600 480"><defs><style>.cls-1{fill:#fcdd18;}</style></defs><title>Burger18042019</title><path class="cls-1" d="M361.2,156.92c-1,0-3.48-.14-3.43-6.16,0-2.42.5-6.48,3.54-6.48h.2c3.41.12,3.47,5.81,3.45,6.95,0,2.59-.7,5.69-3.53,5.7Z"/><path class="cls-1" d="M179.28,193a2.69,2.69,0,0,1-1.89-1,7.38,7.38,0,0,1-1.51-5.23c.28-5.94,1.29-6.26,3.56-6.4h.32a2.26,2.26,0,0,1,1.79.64c.92.93,1.46,3,1.44,5.54-.06,5.93-2.65,6.43-3.48,6.44Z"/><path class="cls-1" d="M299.41,193.06a1.3,1.3,0,0,1-1-.39c-1-1-1.55-3.34-1.55-6.33-.12-5.86.83-5.89,3.13-6h.26c1.29,0,2.9,0,2.93,6.48,0,5.89-1.52,6-3.48,6.21Z"/><path class="cls-1" d="M422.2,193.06a1.45,1.45,0,0,1-1.39-.89,11.82,11.82,0,0,1-1.15-5.81c-.16-5.86.8-5.9,3.1-6H423c1.23,0,2.9,0,2.94,6.45,0,5.9-1.52,6.05-3.49,6.24Z"/><path class="cls-1" d="M240.72,156.89a2.41,2.41,0,0,1-1.85-.54c-.3-.31-1.31-1.67-1.29-5.93,0-5.6,2.23-6.21,3.16-6.21h.1c.75,0,3.12.06,3,7.09.08,5.49-.74,5.52-2.93,5.59Z"/><path class="cls-1" d="M300,378.85q-79.21,0-158.44,0c-8.4,0-18-1-25.82-8.05-7.38-6.71-9-15.71-9.57-24.43a67.42,67.42,0,0,1-.06-7.6c.41-10.07-1-18.64-9.44-27.73a31.55,31.55,0,0,1-6.76-31.16,32.94,32.94,0,0,1,24.29-22.74c2.47-.55,10-2.24,9.33-11.73-.11-1.67-.09-3.38-.07-5.2,0-.88,0-1.75,0-2.62,0-5-2.63-8.26-7.54-9.38-8.55-2-10.19-4.45-9.26-14.08,2.61-27,12.86-50.69,30.44-70.54,23.78-26.84,52.68-40.85,85.89-41.65,21.39-.51,44.45-.76,70.47-.76,28.26,0,56.17.28,83.15.56,49.34.5,98.55,39.3,112.05,88.33a168.89,168.89,0,0,1,5,26.44c.8,7.14-1.43,10.26-8.23,11.53-6.06,1.13-9.05,4.74-8.9,10.71.07,2.85.07,5.42,0,7.85-.18,5.84,2.78,9.43,8.57,10.35,13.61,2.17,22,9.46,25,21.67a55.43,55.43,0,0,1,1.45,9l.12,1.76c0,.47,0,.95,0,1.42,0,10-3.78,18-11.43,24.39l-.5.41-.35.54c-5.26,7.93-5.72,15.58-5.44,22.67a67.42,67.42,0,0,1-.06,7.6c-.61,8.72-2.19,17.72-9.56,24.43-7.79,7.09-17.43,8.05-25.83,8.05H401.63v0ZM136.72,322.2c-10.71,0-16.08,0-19.73,3.66s-3.62,9-3.59,19.57c0,18.78,7.45,26.09,26.39,26.09H460.21c18.94,0,26.34-7.31,26.39-26.08,0-10.09,0-15.15-2.94-18.85-3.51-4.34-9.65-4.36-17.43-4.38ZM119.32,263c-8,0-14.45,3.3-18.63,9.53-6,9-6.77,19.31-2.18,29.92C103.37,313.65,113.9,315,121.39,315h.13c33.87-.07,67.45-.08,92.92-.08l190.32,0,74.72,0a33.74,33.74,0,0,0,9.76-1.32,19.05,19.05,0,0,0,12.26-11.13,37.89,37.89,0,0,0,2.2-6.85l.06-.28a43.09,43.09,0,0,0,.33-5c.08-17.85-8.12-27-24.36-27.23l-2.1,0c-2.95,0-5.93.08-8.8.15h-.18c-2.87.07-5.83.15-8.74.15a96.31,96.31,0,0,1-10.74-.51,73.37,73.37,0,0,0-8.16-.48c-16.38,0-28.2,6.54-36.12,20-.12.13-.29.27-.45.42a11.64,11.64,0,0,0-1.66,1.77C401.65,286,401,286,400.5,286a9.31,9.31,0,0,1-3.12-.79c-11.66-4.62-23.57-9.12-35.09-13.48l-.21-.08q-8.83-3.33-17.62-6.68A27.63,27.63,0,0,0,334.38,263l-121.26,0-93.79,0Zm203.35-6.48c10.82,0,23.51.77,35.6,6.51,5.74,2.73,11.75,4.89,17.56,7,2.66,1,5.68,2,8.51,3.14,5.16,2,8.27,3.2,11.29,3.2,4.92,0,7.63-2.79,13-8.33.72-.75,1.47-1.48,2.21-2.2a58.17,58.17,0,0,0,5.56-6c1.83-2.37,3.91-3.25,7.68-3.25h.53c4.31.09,8.9.14,14.45.14,4.1,0,8.21,0,12.32-.05l7.07,0c.34,0,.69,0,1,0,.56,0,1.1.05,1.63.05,4.74,0,6.73-2.34,7.57-4.31,2.32-5.46,2.51-12,.55-18.76-1.06-3.67-4.09-5.77-8.33-5.77-.94,0-1.85.09-2.65.16-.58.06-1.17.12-1.6.12-35-.06-69.67-.06-101.91-.06H236.49q-46.08,0-92.17,0c-.46,0-1,0-1.54-.09-.81-.07-1.62-.14-2.49-.14-4.89,0-7.06,2.53-8,4.65-2.31,5.08-2.53,11.38-.63,18.21,1.1,3.94,4.18,6.11,8.66,6.11,1,0,1.86-.08,2.72-.16.63-.06,1.26-.12,1.72-.12l25.36,0q35.86,0,71.73.07c30.34,0,55.66-.06,79.69-.19Zm-25-148.65q-33.42,0-66.84,0a118.06,118.06,0,0,0-116.34,98.78c-.91,5.33-1.56,9.18.92,12.11s6.41,2.94,11.85,2.94h254q46.35,0,92.71,0c4.15,0,8.07-.24,10.49-3.07s2-6.65,1.38-10.66A118.51,118.51,0,0,0,368.44,107.88Q333.06,107.84,297.67,107.83Z"/><path class="cls-1" d="M134.61,188.55c1-2.37,2.19-4.63,3.31-6.73A143.64,143.64,0,0,1,156,155.67c.67-.7,1.43-1.52,2.18-2.33a119.4,119.4,0,0,1,8.84-8.87c.7-.62,1.36-1.22,2-1.83,1.32-1.22,2.58-2.37,3.9-3.42q3.12-2.47,6.29-4.87c1.05-.8,2.09-1.58,3.14-2.34l2.93-1.9-2.54,2.35-2.86,2.87c-1.81,1.82-3.63,3.62-5.48,5.39-1.17,1.18-2.26,2.32-3.34,3.47L169,146.42l-1.41,1.45c-1.35,1.38-2.75,2.81-4.05,4.36l-5.12,5.63c-7.61,8.82-14,16.84-19.53,24.58C137.39,184.54,136,186.57,134.61,188.55Z"/><path class="cls-1" d="M453.5,362.17c1-.47,2-1,3-1.49a50,50,0,0,0,5.22-3.27l.68-.52c.56-.42,1.13-.85,1.7-1.37a28.82,28.82,0,0,0,2.21-2,54.44,54.44,0,0,0,7.38-9.15c.57-.85,1.12-1.72,1.68-2.6a25.09,25.09,0,0,1-.56,2.93,23,23,0,0,1-6.21,10.71,24.17,24.17,0,0,1-5.38,4,24,24,0,0,1-9.74,2.81Z"/></svg>