<svg id="Ebene_1" data-name="Ebene 1" xmlns="http://www.w3.org/2000/svg" viewBox="0 0 600 480"><defs><style>.cls-1{fill:#fcdd17;}</style></defs><title>Businessevents</title><path class="cls-1" d="M219.4,462.55a3.07,3.07,0,0,1-2.38-.76c-.9-1-.67-3.13-.47-5a20.48,20.48,0,0,0,.17-2.38c-.11-35.51-.1-71.61-.1-106.53V316.44c0-8.79-.43-9.22-9.32-9.27h-2.38c-8.51,0-9,.73-10.48,6.49-.27,1.05-.57,2.25-1,3.68-9.54,32.09-19.19,64.74-28.52,96.31l-11.25,38.09c-.62,2.06-1.26,4.12-1.9,6.18l-.06.19c-.85,2.72-1.78,3.83-3.23,3.83a4.19,4.19,0,0,1-1.36-.25c-2.29-.75-2.28-2.3-1.4-5.27l4.66-15.86,6.33-21.48,10.39-35.24q10.07-34.12,20.13-68.26c1.08-3.67,1.6-5.65.6-7s-3-1.41-7.11-1.41H100.06c-8.66,0-9.08-.44-9.08-9.25V42c0-4.47,0-6.85,1-7.8s3.22-1,7.55-1H339.26c8.89,0,9.06.17,9.07,9.12q0,6.39,0,12.79c0,14,0,28.56-.09,42.83-.05,5,1.49,8.48,5,11.42,13.6,11.43,27.36,23.13,40.67,34.45l11.06,9.4c1,.88,2.33,2,4,2a4.43,4.43,0,0,0,2.65-1c3.21-2.32,2-5.17,1.24-7.06-5.7-13.68-4.8-27,2.67-39.7,6.49-11,15.35-16.59,26.32-16.59a33.48,33.48,0,0,1,4.63.32c11.74,1.57,20.27,8.64,25.35,21,5.57,13.58,5,26.66-1.67,38.86-1.15,2.1-2.1,4.26-1.26,5.93s3.19,2.23,5.38,2.54c11.93,1.7,20.3,8.44,25.6,20.61,8.88,20.4,18.16,41,27.13,61q4,8.88,8,17.76c4.23,9.42,3.19,16.63-3.07,21.45a17.38,17.38,0,0,1-10.65,3.7h0a16.55,16.55,0,0,1-14.64-8.83c-3-5.43-5.67-11.16-8.27-16.7-1.5-3.2-3.06-6.51-4.66-9.73-.17-.35-.32-.73-.47-1.12-.65-1.64-1.54-3.89-4.26-3.89a5.42,5.42,0,0,0-1.16.13c-4.11.85-3.88,4.24-3.73,6.49,0,.27,0,.55.05.82q1.44,33.69,3,67.39L488.79,357c.67,15,1.36,30.53,2,45.8.49,12.21,1,25.23,1.24,38.31.21,10.47-5.14,16.5-15.46,17.42-.8.07-1.6.11-2.38.11-9.73,0-16.61-5.68-18-14.82-2.43-16.47-4.84-33.23-7.16-49.44q-1.54-10.77-3.1-21.52l-.1-.76a22.61,22.61,0,0,0-.45-2.63c-.26-1-1-4.17-4.7-4.17s-4.19,3.09-4.42,4.41q-1.11,6.57-2.27,13.13c-1.08,6.21-2.16,12.43-3.2,18.65q-1.67,10-3.28,20.08c-1.24,7.63-2.51,15.51-3.82,23.26-1.55,9.2-6.66,13.86-15.18,13.86-.78,0-1.59,0-2.41-.12-10.36-1-16.09-7.09-15.71-16.73.86-22.16,1.91-44.69,2.92-66.48q.63-13.38,1.24-26.76.27-6.09.49-12.17c.19-5.11.39-10.4.65-15.59.56-11.16.92-22.51,1.27-33.49.59-18.7,1.2-38,2.84-56.95,1.26-14.6-2.49-24.42-12.95-33.9-8-7.24-15.4-15.44-22.56-23.37-2.73-3-5.56-6.16-8.38-9.2a18.93,18.93,0,0,1-2.31-3.39c-.45-.76-.94-1.58-1.53-2.49l-.91-1.41-.81,1.47a14.08,14.08,0,0,0-2,8.34c0,.33,0,.64,0,1q0,43.37,0,86.73v43.45c0,8.87-.72,9.59-9.56,9.6l-35.2,0h-46c-3.56,0-5.61.07-6.6,1.38s-.47,3.27.59,6.87q20.52,69.33,41,138.68l.08.27a25.83,25.83,0,0,1,1,4.41,2.73,2.73,0,0,1-2,3.24,3.29,3.29,0,0,1-1,.16,2.89,2.89,0,0,1-2.53-1.73,16.63,16.63,0,0,1-1.32-3.41l-11.1-37.57c-10-33.84-20.34-68.83-30.57-103.22a20.39,20.39,0,0,1-.45-2.11c-.45-2.55-1-5.72-4.44-6.49a31.46,31.46,0,0,0-7-.75,41.11,41.11,0,0,0-7.8.79c-1.17.23-2.59,1.11-2.74,4-.1,2.05-.11,4.07-.11,5.61v32.44c0,34.22,0,69.61-.06,104.41,0,.65,0,1.34.09,2.06.13,2.06.27,4.39-.75,5.5a3.2,3.2,0,0,1-2.37.83ZM409,295.08c-4.06,0-5.95,1.79-6.11,5.79-.68,16.88-1.44,34-2.18,50.63q-.57,13-1.14,26-.6,13.59-1.15,27.19-.62,14.71-1.25,29.44c-.05,1.1-.18,2.24-.31,3.34a28.5,28.5,0,0,0-.3,5.63c.43,5.63,4.68,9,11.66,9.23h.46c4.89,0,7.69-2.68,8.54-8.2,1.17-7.48,2.48-15.08,3.74-22.43q.81-4.67,1.6-9.35L426,392q5.52-32.61,11.06-65.2c.54-3.17,1.17-5.6,3.91-5.77h.33c2.7,0,3.44,2.24,4.27,5.66l.09.36c.14.6.28,1.16.36,1.72q2.1,14.5,4.19,29,3.07,21.27,6.16,42.53c2.13,14.64,4.23,28.89,6.26,42.35.48,3.2,1.66,7.56,6.3,8.44a36.63,36.63,0,0,0,6.69.73c3.7,0,6.36-.93,8.13-2.85,2-2.17,2.78-5.51,2.39-10.23-.12-1.3-.26-2.58-.39-3.87-.28-2.71-.58-5.51-.69-8.26q-.81-19.67-1.56-39.31c-.65-16.79-1.32-34.14-2-51.21-.25-5.89-.62-11.87-1-17.66s-.72-11.52-1-17.28c-.18-4.27-2.1-6.08-6.43-6.08-10.91,0-21.75.06-32.59.06q-15.72,0-31.44-.05ZM106.36,282.77c-2,0-3.56,0-5.06.12-2,.12-3.28.89-3.65,2.27-1.29,4.83-1.28,9.08,0,12.62a4.36,4.36,0,0,0,4.48,2.8h0a19.08,19.08,0,0,0,2.15-.16,17,17,0,0,1,1.77-.13c24.33,0,48.77.06,69.46.06H301.08q16.46,0,32.9,0c.36,0,.7,0,1,0s.77,0,1.15,0a4.81,4.81,0,0,0,4.64-2.43A9.86,9.86,0,0,0,332,282.76H106.36ZM313.75,87.21a10.09,10.09,0,0,0-7.68,3.69c-3.35,3.86-2.73,9.28,1.56,13.78q10,10.48,20,21c23.59,24.82,48,50.48,72.37,75.35,4.85,4.94,6.63,9.33,6.36,15.66-.46,10.89-.85,22-1.22,32.67s-.75,21.51-1.2,32.27a7.13,7.13,0,0,0,7.2,7.53h.2c3.67-.09,7.63-.14,12.48-.14,3,0,5.9,0,8.84,0l8.68,0h18.06l12.54,0a7,7,0,0,0,7-7.43c-1.08-19.62-1.92-39.47-2.75-59.78-.19-4.66.91-6.83,3.81-7.48a5.3,5.3,0,0,1,1.15-.14c2.42,0,3.81,2,5.38,4.67.57,1,1.1,2,1.58,3q2.52,5.35,5,10.71c3.24,6.89,6.58,14,9.92,21l1.33,2.8c2.55,5.36,5.19,10.9,8.17,16.14a9.89,9.89,0,0,0,8.63,5.17,10.59,10.59,0,0,0,5.29-1.45c4.67-2.7,6-7.35,3.57-12.74q-6-13.62-12.14-27.23c-7.84-17.53-16-35.66-23.76-53.55-4.48-10.27-11.91-16-22.73-17.42a2.6,2.6,0,0,0-.4,0l-.36,0-13.1,1.55h-.15a21.35,21.35,0,0,0-3.28.57c-1.09.24-2.39.52-3.82.78l-.49.1-7,14.17,9.64,79.08-10,10.06-10-10.06L442,182.45l-7.28-14.73-10.91-4.1a19.59,19.59,0,0,0-5.23-.81,23.35,23.35,0,0,0-4.07.44,41.67,41.67,0,0,1-4.78.61l-2.39-.61a219,219,0,0,1-25.49-20.74c-4-3.66-8.54-7.81-14.9-13.22C359.81,123.23,352.6,117,345.63,111c-7.94-6.83-16.14-13.89-24.27-20.77A11.81,11.81,0,0,0,313.75,87.21Zm-208-48c-8.24,0-8.73.49-8.73,8.7q0,109.58,0,219.13c0,8.36.49,8.86,8.65,8.86H332.55c8.42,0,8.92-.52,8.92-9.21q0-14.61,0-29.22c0-25.78-.06-52.45.18-78.67a22.71,22.71,0,0,0-7.11-17.42c-7.18-7.22-14.33-14.71-21.25-22q-5.19-5.43-10.39-10.85c-4.57-4.74-6.21-9.09-5.3-14.1A16.32,16.32,0,0,1,313.89,81a18.35,18.35,0,0,1,11.66,4.27c2.93,2.4,5.77,4.89,9.05,7.79,1.62,1.42,3.34,2.93,5.22,4.56l1.65,1.44V81.28c0-11.53,0-22.46,0-33.39,0-8.17-.51-8.66-8.83-8.66H105.72Zm314.81,86.94c-2.36,0-3.81,1.34-4.31,4-1.37,7.19,1.22,15.61,6.94,22.52,5.42,6.55,12.69,10.46,19.45,10.46H443c6-.12,12.45-3.46,17.71-9.15,5.48-5.93,8.54-13.28,8.17-19.66a3.79,3.79,0,0,0-3.42-3.87A38.26,38.26,0,0,1,450.66,124a5,5,0,0,0-3-1,6.56,6.56,0,0,0-2.73.66,36.85,36.85,0,0,1-15.41,3.46,38,38,0,0,1-7.3-.73A9.1,9.1,0,0,0,420.53,126.17Zm27.24-11.35c1.51,0,3,.78,5,2.53a30.49,30.49,0,0,0,15,7.32l1.53.31-.35-1.52c-1-4.42-2.49-9.53-5.51-13.92-5.8-8.4-12.51-12.48-20.51-12.48a23.59,23.59,0,0,0-2.76.16c-9.38,1.06-16.43,6.74-21,16.87-.59,1.33-1.17,2.86-.48,4.13a3.31,3.31,0,0,0,2.59,1.54,61.42,61.42,0,0,0,9.56,1c5.12,0,9.1-1.28,12.55-4A7.37,7.37,0,0,1,447.77,114.82Z"/><path class="cls-1" d="M127.81,254.41a4.66,4.66,0,0,1-3.86-2.24,3.51,3.51,0,0,1,.11-3.72l40.58-69.58a3.92,3.92,0,0,1,3.47-1.89,3.81,3.81,0,0,1,3.83,2.81l10.36,43,1.27-1.9c29.78-44.64,59-90.57,86.77-136.51a3.6,3.6,0,0,1,3.19-1.9,4.67,4.67,0,0,1,3.9,2.25,3.44,3.44,0,0,1-.17,3.66C247.32,137.86,216,187,184,234.55a4.48,4.48,0,0,1-3.7,1.91,3.56,3.56,0,0,1-3.63-2.78L166.54,191.5l-35.58,61a3.52,3.52,0,0,1-3.15,1.92Z"/></svg>