<svg id="Ebene_1" data-name="Ebene 1" xmlns="http://www.w3.org/2000/svg" viewBox="0 0 600 480"><defs><style>.cls-1{fill:#fcdd18;}</style></defs><title>Catering</title><rect class="cls-1" x="137.87" y="162.43" width="95.14" height="4"/><rect class="cls-1" x="137.87" y="142.15" width="95.14" height="4"/><rect class="cls-1" x="137.87" y="121.87" width="95.14" height="4"/><rect class="cls-1" x="137.87" y="101.59" width="95.14" height="4"/><rect class="cls-1" x="361.38" y="150.11" width="56.99" height="4"/><path class="cls-1" d="M444.61,183.77V121.59h4v-6H444.3c-3.26-15.92-32.3-28.27-70-29.81V79.63h-16v6.15c-37.66,1.54-66.71,13.89-70,29.81h-3.43v6h3.12v62.18H85.82v191l3.38.54c.18,0,15.72,2.48,34.59,4.33v35.72h10V380.48l2,.14c9.49.71,17.43,1,24.09,1,24.64,0,31.75-4.18,34.85-7.68,1.53-1.74,9.85-7.15,52.31-4,23.45,1.74,45.7,5.26,45.92,5.3l.15,0c.25,0,25.36,3.09,50.68,4.6a325,325,0,0,0,36.05.58c13.3-.77,19.77-3,21.55-7.61.82-.76,7.24-4.81,48.83-2,5.92.4,11.77.88,17.21,1.39v43.06h10V373.23c10.43,1.09,17.66,2,17.79,2l19,0V183.77ZM366.33,91.61c39.93,0,67.75,11.9,71.78,24H294.55C298.58,103.51,326.4,91.61,366.33,91.61Zm-72.28,30H438.61v62.18H294.05ZM506.18,367.31H496c-2.65-.34-24.93-3.15-47.4-4.58-29-1.84-42.56-.55-49,2.08V286.23h-3v80.22a7.35,7.35,0,0,0-2.54,3.27c-.93.8-7.89,4.84-52.08,2-20.55-1.3-40.48-3.55-46.22-4.22v-81.3h-3v80.9c-5.42-.82-24.77-3.63-45-5.14-36.1-2.69-49.79.43-55.79,4.07V286.23h-3v82.26l-.15.17c-1.54,1.73-9.84,7.15-52.31,4-18.09-1.34-35.45-3.74-42.57-4.78V191.77H506.18Z"/></svg>