<svg id="Ebene_1" data-name="Ebene 1" xmlns="http://www.w3.org/2000/svg" viewBox="0 0 600 480"><defs><style>.cls-1{fill:#fcdd17;}</style></defs><title>Zeichenfläche 1 Kopie 13</title><path class="cls-1" d="M521.64,250.61c-11.76-26.22-23.63-52.39-35.1-78.73-5.18-11.89-13.54-19.37-26.37-21.2-5.4-.77-5.91-2.41-3.39-7,7-12.86,7.2-26.36,1.72-39.72-4.79-11.67-13.19-19.87-26.15-21.62C418,80.41,407.46,87.15,400.41,99.1c-7.6,12.89-8.54,26.63-2.73,40.6.94,2.25,1.46,4.15-.9,5.86s-3.77.41-5.4-1C374.15,130,357,115.28,339.65,100.74c-3.44-2.89-4.69-6.2-4.65-10.65.18-18.54.09-37.09.07-55.63,0-9.53-.59-10.12-10.07-10.12q-119.88,0-239.77,0c-9.35,0-9.51.16-9.51,9.78V290c0,9.3.89,10.24,10.08,10.25q40.33,0,80.66,0c7.37,0,7.57.25,5.55,7.11q-15.22,51.75-30.52,103.49-5.51,18.68-11,37.35c-.78,2.64-1.31,5.39,2,6.5,3.6,1.19,5-1.35,5.87-4.24.66-2.12,1.33-4.24,2-6.38q19.88-67.2,39.78-134.39c2.78-9.37.57-9.53,12.81-9.46,8.38.05,8.41,0,8.41,8.28,0,46-.05,92,.1,138,0,3.38-2.12,9.26,3.87,9.14,5.49-.12,4-5.78,4-9.39q.14-68.43.06-136.85c0-1.86,0-3.71.12-5.56.06-1.36.47-2.78,1.93-3.07a35,35,0,0,1,14.34-.05c3.65.82,3.31,5.05,4.16,7.91q20.93,70.38,41.67,140.8a17.23,17.23,0,0,0,1.41,3.61,3.78,3.78,0,0,0,4.67,2,3.7,3.7,0,0,0,2.7-4.31,28.58,28.58,0,0,0-1.15-4.86q-20.49-69.35-41-138.67c-2-6.63-1.76-7,5-7q40.62,0,81.22,0c9.38,0,10.56-1.24,10.56-10.6q0-65.09,0-130.18c0-2.16-.53-4.42,1.87-8.81,1.69,2.61,2.57,4.54,3.95,6,10.22,11,19.91,22.59,31,32.63,10.23,9.27,13.85,18.94,12.63,33.08-2.61,30.05-2.59,60.31-4.11,90.47-.47,9.25-.73,18.51-1.15,27.76-1.4,31.09-3,62.16-4.16,93.25-.4,10.35,6,16.75,16.62,17.77,10.37,1,16.9-4,18.67-14.57,2.43-14.44,4.7-28.9,7.11-43.34,1.76-10.61,3.66-21.19,5.46-31.79.35-2,1-3.57,3.42-3.57s3.26,1.48,3.74,3.41a33.17,33.17,0,0,1,.54,3.29c3.41,23.66,6.76,47.32,10.26,71,1.56,10.56,10,16.57,21.41,15.56,10.8-1,16.59-7.31,16.38-18.44-.25-12.78-.73-25.56-1.24-38.33-.73-18.33-1.56-36.65-2.37-55q-2.14-48.28-4.27-96.59c-.1-2.46-.78-5.52,2.89-6.29,3.44-.71,3.81,2.36,4.79,4.35,4.36,8.81,8.24,17.87,12.95,26.47,5.46,10,17.92,12.25,26.78,5.44C525,268.12,526,260.43,521.64,250.61Zm-115.83-144c4-8.85,10.2-15.16,20.17-16.29s17,4.14,22.33,11.9c2.64,3.83,4.12,8.23,5.36,13.58a29.28,29.28,0,0,1-14.53-7.08c-3.59-3.27-6.55-3.9-10.64-.65-6.4,5.07-14,4-21.34,2.81C404.33,110.44,405,108.43,405.81,106.62Zm-2.87,15.84c.58-3,2.37-3.49,4.83-3a37.37,37.37,0,0,0,23.32-2.8,4.4,4.4,0,0,1,4.73.25A39.18,39.18,0,0,0,451,123.54a2.8,2.8,0,0,1,2.62,2.95c.73,12.64-12.53,27.5-24.89,27.75C414.44,154.54,400.19,136.89,402.94,122.46ZM91.46,32.35H318.38c7.77,0,7.82,0,7.83,7.66,0,15.73,0,31.45,0,49-5.68-4.93-9.89-8.78-14.3-12.37-11.13-9.08-27.13-3.72-29.58,9.83-1.1,6.08,1.51,10.78,5.56,15,10.55,10.93,20.94,22,31.66,32.8a21.65,21.65,0,0,1,6.81,16.71c-.33,36-.15,71.93-.16,107.9,0,8.17,0,8.21-7.91,8.21H91.38c-7.59,0-7.64-.07-7.64-7.86q0-109.56,0-219.13C83.74,32.38,83.76,32.35,91.46,32.35ZM325.69,289.58c-1.39,2.48-3.85,1.84-6,1.85q-28.62.07-57.24,0h-57.8q-56.42,0-112.82,0c-2.6,0-6.29,1.37-7.49-1.86-1.4-3.77-1.08-8,0-12,.31-1.16,1.61-1.46,2.75-1.53,1.66-.1,3.33-.13,5-.13H317.75C325.28,275.88,329.4,283,325.69,289.58ZM470.87,430.94c1,11.73-5.7,13.24-16,11.28-3.83-.72-5-4.17-5.5-7.6q-3.18-21.17-6.26-42.34-5.19-35.76-10.34-71.52c-.11-.73-.3-1.45-.47-2.17-.76-3.15-1.61-6.66-5.64-6.42-3.63.22-4.33,3.64-4.84,6.6q-7.29,42.75-14.49,85.52c-1.79,10.6-3.69,21.18-5.34,31.8-.74,4.75-3,7.51-8,7.34-6.36-.21-10.29-3.09-10.69-8.31-.23-2.91.48-5.89.61-8.84.82-18.88,1.58-37.76,2.4-56.64,1.11-25.53,2.29-51.07,3.32-76.61.15-3.62,1.73-4.84,5.16-4.83q32,.09,64,0c3.67,0,5.32,1.25,5.49,5.12.5,11.65,1.45,23.29,1.94,34.94,1.28,30.17,2.37,60.35,3.6,90.52C470,422.83,470.5,426.88,470.87,430.94Zm40.79-163.46a8.92,8.92,0,0,1-12.55-3.34c-3.47-6.11-6.43-12.53-9.47-18.88-5-10.54-10-21.14-14.94-31.71-.49-1-1-2.06-1.62-3.05-1.73-2.9-3.65-5.89-7.62-5-4.29,1-4.73,4.9-4.59,8.5.82,19.94,1.66,39.87,2.76,59.8a6,6,0,0,1-6,6.37c-10.2.05-20.39,0-30.59,0-10,0-20-.18-30,.07a6.15,6.15,0,0,1-6.38-6.49c.91-21.64,1.51-43.3,2.43-64.94.28-6.63-1.64-11.3-6.65-16.4-31.13-31.75-61.64-64.12-92.32-96.32-4-4.2-4.49-9-1.53-12.44,3.56-4.13,9.11-4.57,13.88-.54,15.28,12.92,30.34,26.09,45.59,39,18.07,15.35,21.2,20.43,40.62,34.12l2.72.7c6.34-.4,7.7-2,13.82-.31l10.54,4,7,14.1L417.06,254l11.06,11.12L439.17,254l-9.65-79.27,6.65-13.45c3.6-.67,6.4-1.44,7.08-1.33l13.21-1.57a1.74,1.74,0,0,1,.51,0c10.62,1.43,17.63,6.92,21.95,16.83,11.78,27,23.94,53.85,35.9,80.78C517.05,261,515.86,265.06,511.66,267.48Z"/><path class="cls-1" d="M107.94,242.52l34.32-58.84q4.78,19.88,9.58,39.76c1.07,4.43,6.86,4.59,9.14,1.2q48.36-72,93.25-146.22c3.34-5.52-5.31-10.55-8.64-5q-41.86,69.18-86.74,136.47-4.92-20.39-9.83-40.76c-1-4.23-7-4.83-9.14-1.19L99.3,237.48C96.05,243.05,104.69,248.09,107.94,242.52Z"/><path class="cls-1" d="M223.65,76.49C236.39,75,247.81,69.77,259,63.83c.35,4.77.49,9.55.38,14.36-.15,6.44,9.85,6.43,10,0a149.2,149.2,0,0,0-1.16-22.36c-.47-3.69-3.9-6.32-7.52-4.32-11.58,6.42-23.63,13.38-37,15C217.34,67.25,217.26,77.26,223.65,76.49Z"/></svg>