<svg id="Ebene_1" data-name="Ebene 1" xmlns="http://www.w3.org/2000/svg" viewBox="0 0 600 480"><defs><style>.cls-1{fill:#fcdd18;}</style></defs><title>Zeichenfläche 1 Kopie 9</title><g id="Burger"><path class="cls-1" d="M367.89,147.67c5.68.24,9.26-4.06,9.4-11.27.15-7.68-3.25-12.7-8.72-12.89-5.72-.2-9.24,4.43-9.3,12.22C359.21,143.22,362.25,147.43,367.89,147.67Z"/><path class="cls-1" d="M162.85,188.37c5.66.23,9.22-4.43,9.29-12.17s-3.37-12.32-9.27-11.94c-7.49.48-8.38,6.23-8.65,11.93C153.89,183.05,157.74,188.16,162.85,188.37Z"/><path class="cls-1" d="M299.18,188.38c7.18-.64,8.48-5.89,8.44-12-.05-8.51-2.7-12.43-8.72-12.21-7.73.27-8.44,5.72-8.32,11.68C290.57,184,293.71,188.87,299.18,188.38Z"/><path class="cls-1" d="M437.64,188.38c7.17-.68,8.46-5.93,8.43-12-.06-8.5-2.73-12.42-8.77-12.18-7.72.3-8.42,5.74-8.26,11.71C429,184,432.18,188.89,437.64,188.38Z"/><path class="cls-1" d="M232.71,147.64c7.38-.25,8.17-5.47,8.09-11.21.08-8.37-2.82-12.89-8.33-13-5.34-.1-8.64,4.42-8.69,11.93C223.72,143.7,226.64,147.83,232.71,147.64Z"/><path class="cls-1" d="M543.42,293.24h-.06a66.72,66.72,0,0,0-1.75-10.9c-4-16.64-15.64-25.52-32.17-28.16-4.17-.66-5.62-2.74-5.5-6.62.1-3,.09-6.09,0-9.13-.1-4.19,1.54-6.24,6-7.07,10.4-1.94,14.46-7.94,13.29-18.43a196.54,196.54,0,0,0-5.76-30.57c-15.73-57.14-72.76-102.63-131-103.22-57.79-.58-115.6-1.15-173.36.23C173,80.33,139.32,97.9,112.66,128c-20.8,23.48-32.5,51-35.54,82.33-1.25,12.89,1.85,18.36,14.26,21.19,3.47.79,4.64,2.6,4.66,5.76s-.13,6.1.07,9.12c.34,4.91-1.64,6.94-6.65,8.07-30.76,6.91-43.95,45.53-22.32,69,8.25,8.93,9.75,17.26,9.33,27.69a81.6,81.6,0,0,0,.07,9.12c.82,11.6,3.14,22.44,12.39,30.86s20.59,10.36,32.45,10.37q89.31,0,178.62,0H418.69v0h59.93c11.86,0,23.08-1.84,32.45-10.37s11.58-19.26,12.39-30.86a84.06,84.06,0,0,0,.08-9.12c-.34-8.43.58-15.5,5.3-22.62,10.47-8.72,14.63-19.43,14.67-31.16A39.82,39.82,0,0,0,543.42,293.24Zm-447.67-90A128.17,128.17,0,0,1,222,96q77.57-.15,155.12,0c64,.09,117.35,45.63,127.44,108.66,1.35,8.43.3,9.74-8.49,9.74q-98.09,0-196.18,0H105.27C94.25,214.43,93.93,214,95.75,203.24ZM485.63,252c-1.06,2.49-4.51,1.73-7,1.74-12.67.05-25.35.22-38-.06-5.47-.12-9.82,1.08-13.29,5.59-2.46,3.19-5.56,5.9-8.39,8.8-9.31,9.59-9.3,9.56-22.06,4.63-9.69-3.75-19.7-6.82-29.05-11.27-13.95-6.62-28.4-7.9-43.58-7.82-66.42.36-132.84.18-199.26.09-3.54,0-8.69,1.77-10-3-1.54-5.51-2-11.75.44-17.14,1.56-3.44,5.92-2.07,9.08-2.08q79.47-.09,159,0h17.49q87.84,0,175.68.06c3.33,0,8.21-1.64,9.43,2.61C487.71,239.92,488.07,246.28,485.63,252ZM77.4,308.39c-4.23-9.79-4.12-19.85,2-29,3.91-5.83,9.74-8.54,16.9-8.54q121.21.06,242.43,0a26.51,26.51,0,0,1,9.59,2c19.87,7.6,39.83,15,59.61,22.8,5,2,8.67,1.89,11.91-2.55.74-1,2-1.7,2.59-2.77,10.29-17.56,25.92-21.85,45.16-19.7,11.51,1.29,23.28.12,34.93.28,15.65.22,22.65,8.3,22.57,25.73a38.81,38.81,0,0,1-.32,5,36.92,36.92,0,0,1-2.19,6.81,16.64,16.64,0,0,1-10.72,9.77,33,33,0,0,1-9.56,1.28q-42.1,0-84.23,0H299.42q-100.32,0-200.63.08C89.43,319.56,81.34,317.51,77.4,308.39Zm428,50.46c-.05,18.4-6.15,24.46-24.8,24.47H119.39c-18.64,0-24.74-6.07-24.79-24.47-.07-21.22-.07-21.22,21.32-21.22H487.38C505.46,337.69,505.47,338.79,505.41,358.85Z"/></g></svg>