<svg id="Ebene_1" data-name="Ebene 1" xmlns="http://www.w3.org/2000/svg" viewBox="0 0 600 480"><defs><style>.cls-1{fill:none;}.cls-2{fill:#fcdd18;}</style></defs><title>Zeichenfläche 1 Kopie 11</title><path class="cls-1" d="M366.33,65c-56.69,0-68.56,50.62-68.56,50.62H434.9S423,65,366.33,65Z"/><polygon class="cls-1" points="166.58 371.31 166.58 286.47 172.58 286.47 172.58 371.31 235.14 371.31 235.14 322.55 241.14 322.55 241.14 371.31 294.77 371.31 294.77 286.47 300.77 286.47 300.77 371.31 363.32 371.31 363.32 322.55 369.32 322.55 369.32 371.31 427.42 371.31 427.42 286.47 433.42 286.47 433.42 371.31 496.18 371.31 496.18 204.59 103.82 204.59 103.82 371.31 166.58 371.31"/><polygon class="cls-2" points="89.82 190.59 89.82 204.59 103.82 204.59 496.18 204.59 510.18 204.59 510.18 190.59 89.82 190.59"/><polygon class="cls-2" points="433.42 371.31 427.42 371.31 369.32 371.31 363.32 371.31 300.77 371.31 294.77 371.31 241.14 371.31 235.14 371.31 172.58 371.31 166.58 371.31 103.82 371.31 89.82 371.31 89.82 385.31 510.18 385.31 510.18 371.31 496.18 371.31 433.42 371.31"/><rect class="cls-2" x="119.84" y="404.65" width="17.91" height="37.69"/><rect class="cls-2" x="166.58" y="286.47" width="6" height="84.84"/><rect class="cls-2" x="235.14" y="322.55" width="6" height="48.75"/><rect class="cls-2" x="294.77" y="286.47" width="6" height="84.84"/><rect class="cls-2" x="363.33" y="322.55" width="6" height="48.75"/><rect class="cls-2" x="427.42" y="286.47" width="6" height="84.84"/><rect class="cls-2" x="463.43" y="404.65" width="17.91" height="37.69"/><rect class="cls-2" x="89.82" y="204.59" width="14" height="166.72"/><rect class="cls-2" x="434.9" y="129.03" width="13.43" height="55.3"/><rect class="cls-2" x="297.77" y="115.59" width="137.13" height="13.43"/><rect class="cls-2" x="270.19" y="115.59" width="14.15" height="13.43"/><rect class="cls-2" x="448.33" y="115.59" width="14.03" height="13.43"/><rect class="cls-2" x="434.9" y="115.59" width="13.43" height="13.43"/><rect class="cls-2" x="137.87" y="159.43" width="95.14" height="10"/><rect class="cls-2" x="137.87" y="130.74" width="95.14" height="10"/><rect class="cls-2" x="137.87" y="102.06" width="95.14" height="10"/><rect class="cls-2" x="137.87" y="73.37" width="95.14" height="10"/><rect class="cls-2" x="348.34" y="148.11" width="70.03" height="8"/><path class="cls-2" d="M373.05,54.31V37.67H359.62V54.31c2.17-.12,4.41-.19,6.71-.19S370.87,54.19,373.05,54.31Z"/><rect class="cls-2" x="284.34" y="129.03" width="13.43" height="55.3"/><rect class="cls-2" x="284.34" y="115.59" width="13.43" height="13.43"/><rect class="cls-2" x="496.18" y="204.59" width="14" height="166.72"/><path class="cls-2" d="M366.33,65c56.69,0,68.57,50.62,68.57,50.62h13.43S438.49,58,373.05,54.31v4.32H359.62V54.31c-65.45,3.71-75.28,61.28-75.28,61.28h13.43S309.64,65,366.33,65Z"/><path class="cls-2" d="M373.05,58.63V54.31c-2.18-.12-4.42-.19-6.72-.19s-4.54.07-6.71.19v4.32Z"/></svg>