<svg id="Ebene_1" data-name="Ebene 1" xmlns="http://www.w3.org/2000/svg" viewBox="0 0 600 480"><defs><style>.cls-1{fill:#fcdd18;}</style></defs><title>Zeichenfläche 1 Kopie 8</title><g id="Outdoor"><path class="cls-1" d="M563.63,305.43c-6.83-2.7-9.89-8-13.6-13.14a43.74,43.74,0,0,0-10.92-10.59C520.72,269,501.71,257.47,480,251.27c-1.86-.53-3.53-1.24-5.56-.28-5.82,2.77-7.32-3.28-10.1-5.74s1.56-4.19,2.67-6.27a10.08,10.08,0,0,1,1.92-2.17c1.44-1.45,1.74-2.77-.07-4.22-1.52-1.23-2.59-.7-3.68.55-1.74,2-3.56,4-5.31,6-1,1.12-1.93,2.44-3.51,1-9.34-8.42-21.88-10-32.68-15.27-6-2.93-11.18-6.16-14.12-12.76-2.68-6-8-7-14.09-3.93-6.6,3.37-10.72,8.95-13.38,15.67-3.8,9.63-7.46,19.32-11.74,30.44-1.34-5.45-2.26-9.63-3.42-13.74-1.36-4.82-4.37-7.7-9.64-6.35s-6.57,5.2-5.43,10.16q1.95,8.49,3.91,17c2.18,9.44,2.18,9.44-7.2,9.46-10.76,0-11.08.19-13,11-.4,2.26-.9,4-3.39,3.47-8.93-1.78-8.53,4-8.14,9.81.3,4.37.3,8.21-5.94,8.06-1.92,0-4.1,1.47-5.77,2.77-5.53,4.29-7.58,10.08-5.64,16.78,2,7,7,10.92,14.33,11.44,8.08.58,16.1-.29,23.75,4.55,5.2,3.29,12,2,17.3-1.5,3.49-2.3,7-2.87,10.92-2.86q59.63.09,119.25,0c3.95,0,7.44.52,10.93,2.83,5.58,3.67,12.48,4.73,18,1.32,7.68-4.76,15.65-4,23.78-4.13a110.89,110.89,0,0,0,13-.6c7.07-1,11.26-5.58,12.7-12.27C572.17,314.64,569.87,307.9,563.63,305.43Zm-89.41-46.79c1.32-2.44,3.6-2.74,6.26-1.77,9.06,3.28,18.18,6.41,26.65,11.09,3.16,1.75,6.23,3.65,9.36,5.47a3.77,3.77,0,0,1,2.31,3c-1.2,1.42-2.59,3.06-4,4.72-1.6,1.92-3,.65-4.34-.32-10.37-7.59-21.69-13.44-33.44-18.51C475.56,261.66,472.71,261.41,474.22,258.64Zm-7.79-3.92c3.05,4-2.61,4.4-2.21,7.51,8.07,3.72,16.32,7.65,24.68,11.35,3.53,1.56,4.33,3,1.47,6.22-6.06,6.75-11.8,13.79-17.67,20.71l-1.57-.93c1.2-3.73-.68-6.44-2.84-9a161.12,161.12,0,0,0-26.55-25.65,17,17,0,0,0-14.25-3.45,51.84,51.84,0,0,1-18.75-.11c-5-.85-6.64-3.29-5.43-8,.54-2.1,1.12-4.19,1.65-6.29,1.48-5.83,3.69-7.78,9.74-3.79,7.49,4.94,16.38,6.95,25.16,8.77,3,.62,5.87.65,8.1,3.79,2.75,3.86,4.35-.26,5.88-1.94C459.09,248.2,461.66,248.51,466.43,254.72Zm-89.24-3c3.53-9,6.91-18.08,10.4-27.11a22.78,22.78,0,0,1,5.65-8.36c7-6.69,10.72-6.33,15.62,2a21.48,21.48,0,0,0,10.41,8.7c7.53,3.3,15.26,6.13,22.86,9.26a60,60,0,0,1,7.82,3.79c2,1.2,4.83,2.59,4,5.38s-3.66,3.9-6.48,3.7c-11.75-.83-22.92-3.76-32.73-10.52-7-4.8-9.68-4.33-13.36,3.1-8.58,17.3-3.47,24.82,16.8,24.75a7,7,0,0,0,1.45,0c24.88-5.65,33.24,15.87,46.92,28.59,1.31,1.22,1.63,3.16-.25,4.38a5.1,5.1,0,0,1-6.11-.38c-5.84-4.32-11.94-8.36-17.36-13.17-6.82-6.06-14.28-7.27-22.94-5.55a108.18,108.18,0,0,1-26.7,2.38c-10.63-.57-16.42-6-17.51-16.59A30,30,0,0,1,377.19,251.68ZM411,293.14c.59-2.66-2.24-6.93,2.72-7.65,4.66-.67,9.64-4.16,14,1.33,4,5.07,8.5,9.77,13.86,15.87-9.74,0-17.89-.11-26,.06-3.4.07-4.95-1.07-4.61-4.56C411.07,296.52,410.64,294.75,411,293.14Zm21.73-9.76,25.31,19C446.49,303,441,298.94,432.73,283.38Zm-49.47,1.84c-3.31.15-5.46.85-7-2C378.76,281.66,380.46,283,383.26,285.22Zm-36-9.59c1.21.07,2.42,0,5.78,0a10.53,10.53,0,0,1,5,.57c3,1.42,2.77,5.09,2.66,7.71s-3.1,1.26-4.79,1.4a76.32,76.32,0,0,1-8.69,0c-2.89-.1-6.49,1.19-6.37-4.16C340.93,276.51,343.29,275.38,347.27,275.63Zm-27,32.28c1.59-.4,3.51-.79,4.94-.27,2.19.79,6.68-2.7,6.38,2.46-.22,3.62-.57,8.69-6.91,7.37a17.82,17.82,0,0,0-3.58,0,2.89,2.89,0,0,1-.72,0c-2.78-.69-7.54,1.91-8.06-1.73C311.62,311.23,316.06,309,320.22,307.91Zm-6,17.72c-.91-1-1.86-2.58-1.68-3.72.29-1.83,2.31-1.16,3.64-1.22,2.17-.1,4.38.2,6.52-.08,5.95-.75,9.19,1.47,9,8.47C325.38,328.67,319.06,330.85,314.18,325.63Zm37.19,2.92a10,10,0,1,1,.28-19.9,9.78,9.78,0,0,1,9.77,9.64A10.13,10.13,0,0,1,351.37,328.55ZM360,299c-6.61-4-14.13-2.7-20.56,1.85-2.89,2-6.2,2.77-8.86,1.31-2.47-1.37-.82-4.91-1.17-7.48-.59-4.37,2.16-4.51,5.39-4.49,10.9.08,21.8,0,32.7,0,10.42,0,20.84.19,31.25-.08,4.89-.13,7.58.52,7.48,6.53-.1,5.61-2.61,6.27-7.14,6.09-6.77-.26-13.56-.06-20.35-.07C372.24,302.69,366.11,302.72,360,299Zm133.64,28.58c-.31,2.45-2.69,1.4-4.14,1.41-18.9.08-37.81.06-56.72.06-18.66,0-37.33.06-56-.11-1.76,0-5.3,2-5.23-2.15.06-3.14,1.55-5.16,5.49-5.11,15.27.22,30.54.09,45.81.09,21.09,0,42.18,0,63.27,0,2.07,0,4.59-1,6.1,1.05A7.3,7.3,0,0,1,493.61,327.59Zm.1-17.89c-.27,2.53,0,6.19-4.09,6.61a50.61,50.61,0,0,1-5.08.06c-34.62,0-69.23-.19-103.85.17-6.57.07-9.39-2-9.35-9,39.66,0,78.86,0,118.06,0C491.07,307.58,494,306.69,493.71,309.7Zm-14.84-8.05c5.72-6.86,10.92-13.19,16.22-19.44,5.48-6.46,8.31,1,11.87,2.72,4.81,2.32.23,4.45-1,6.55C500,301.65,491.34,305.25,478.87,301.65Zm44.52,17.56c-.36,5.6-5.47,10.28-10.73,9.25-5.59-1.08-9-4.5-8.7-10.61a9.62,9.62,0,0,1,10.79-9.17C520.07,309.18,523.75,313.66,523.39,319.21Zm-5.84-21.79c-2.22-1-5.23-.16-9.64-.16,5-5.84,9.13-10.21,12.76-14.95,2.58-3.36,4.63-3.69,8.31-1.32,4,2.56,2.83,4.86,1.07,7.72a26.75,26.75,0,0,0-2.13,3.79C526,297.39,523.31,299.93,517.55,297.42Zm18-7.91c1.31-3,2.89-1.62,4.42-.32a36.71,36.71,0,0,1,10.16,13.35H529.2C530.1,297.38,533.62,293.82,535.52,289.51Zm27.22,36.19a10.92,10.92,0,0,1-8.49,3.41c-5.32-.1-10.67.16-16-.14-1.57-.09-5.2,1.88-4.52-2.21.42-2.5.37-6.18,4.74-6.06,3.87.1,7.75,0,11.62,0v0c3.64,0,7.27-.05,10.91,0,1.33,0,3.37-.57,3.59,1.29C564.75,323.16,563.67,324.71,562.74,325.7Zm2.07-9.37c-.9,2.16-3.42.94-5.2,1.05-3.12.18-6.26.05-9.4.05-2.89,0-5.85-.41-8.65.08-5.52,1-7.12-2-7.89-6.58-.35-2.06-.33-3.38,2.11-3.34,7.21.11,14.43.16,21.63.53,1.52.08,3.16,1.2,4.42,2.23C563.66,311.85,565.91,313.69,564.81,316.33Z"/><path class="cls-1" d="M285.31,343.76c-6-2.32-9.16-6.57-12.33-11.45a30.09,30.09,0,0,0-5.76-6.52,187,187,0,0,0-66.49-36.26c-1.36-.42-2.59-1.08-4.09-.09-6,4-7-3-10-5.1-3.56-2.59.91-4.3,2-6.3a18.7,18.7,0,0,1,2.73-3.39c1.5-1.64.21-2.59-.85-3.55a1.9,1.9,0,0,0-3.07.15c-1.73,2-3.41,4.1-5.22,6.06-1.06,1.15-2.09,3.19-4.07,1.39-9-8.1-20.95-9.75-31.4-14.67-6.5-3.06-12.19-6.43-15.42-13.47-2.61-5.71-7.68-6.92-13.48-4.08-7,3.4-11.17,9.15-13.9,16.12C100.21,272.28,96.53,282,92.33,293c-1.37-5.43-2.32-9.87-3.63-14.2s-4.35-7.34-9.21-6.13-6.92,5-5.8,10.08c1.25,5.68,2.71,11.3,4,17,2.08,9.31,2,9.32-7.34,9.4-9.67.08-11.12,1.21-12.77,10.84-.38,2.15-.65,4.07-3.25,3.63-8.59-1.47-8.58,3.81-8.4,9.91.08,2.85,1.92,6.52-3.58,7.88-10.59,2.62-15.25,9.1-14.17,17.82s8,13.67,19.15,13.62c6,0,11.61.2,17.24,3.74,6.28,4,13.69,3.12,20-1a17.41,17.41,0,0,1,10.18-2.76q60,.13,120.07,0a15.55,15.55,0,0,1,9.49,2.55c6,4.08,13.29,5.43,19.28,1.55,7-4.53,14.15-4,21.55-4.06,4.61-.05,9.25.3,13.82-.16,7.35-.73,11.81-5.26,13.66-12.23C294.3,354.07,291.42,346.13,285.31,343.76Zm-7.23,2.76a9.18,9.18,0,0,1,5.88,2.41c1.67,1.4,3.46,3.18,3,5.43-.59,3.11-3.48,1.69-5.38,1.83-3.11.22-6.25.06-9.37.06a88.68,88.68,0,0,0-9.37.06c-4.7.51-6.1-1.86-7-6-.63-3-.32-3.93,2.72-3.88C265.1,346.53,271.59,346.49,278.08,346.52ZM196,297.67a4.71,4.71,0,0,1,4.07-2.84c1.91.65,4,1.37,6,2.05a135.85,135.85,0,0,1,31.49,14.63c1.68,1.09,4.68,1.94,2.15,4.71-1.84,2-3,6.22-7.3,3.11-10.63-7.71-22.24-13.65-34.29-18.8C197,300,194.87,299.73,196,297.67Zm-12-8.46c6,5.37,6.31,5.55,1.9,11.59,8.58,3.91,16.66,7.75,24.88,11.27,4.21,1.81,4.14,3.66,1.29,6.82-4.87,5.39-9.4,11.07-14.1,16.61-1.85,2.18-2.5,3.19-4.66-.63C185.17,320.51,173,309.79,159.23,301c-3.88-2.48-8.57-1.07-12.83-.62a50.71,50.71,0,0,1-12.25,0c-9.46-1.28-10.81-3.08-8.15-12.09.55-1.85,1.49-3.58,2.09-5.41,1.29-4,3-4.47,6.66-2,8.14,5.49,17.7,7.59,27.07,10,3,.77,6.12.06,8.62,3.71s4-1.38,6-2.5C178.77,290.73,179.11,284.86,184,289.21ZM99.23,290c3.43-8.78,6.76-17.61,10.2-26.39a23.19,23.19,0,0,1,6.49-9.5c6.69-5.64,10.6-5.16,14.78,2.45,2.93,5.33,7.8,7.83,12.9,10,8.67,3.71,17.56,6.91,26.15,10.78,2.75,1.25,7.42,2.66,5.85,6.89-1.41,3.83-5.72,4-9.47,3.28-10.93-2.13-21.91-4.13-30.86-11.6-4.33-3.62-8-2.7-10.78,2a4.9,4.9,0,0,0-.32.65c-2.91,6.9-7.34,14.3-3,21.37,2.12,3.5,5.85,4.74,9.75,4.93a51.89,51.89,0,0,0,9.23-.31c.6-.08,1.2-.17,1.79-.27a47.14,47.14,0,0,1,5.1-.95,24.51,24.51,0,0,1,5.86.35,29.78,29.78,0,0,1,11.57,5.13C171,313.6,176.27,320,181.6,326c2.22,2.51,4.46,5,6.86,7.35,1.23,1.2,1.87,3,.09,4.43-2,1.61-4.18,1.32-6.07,0-5.29-3.83-10.78-7.48-15.63-11.81-7.62-6.81-15.72-9.36-26-7.08-9.38,2.08-19,3.77-28.81,1.95-8.36-1.56-12.83-6-14.12-14.3C97.05,300.91,97.13,295.39,99.23,290Zm33.71,41.45c.36-2.78-1.72-7.05,3.14-7.46,4.39-.37,9.13-4.16,13.31,1.13,4,5,8.42,9.67,13.88,15.88-10,0-17.89-.13-25.83.05-3.42.08-4.91-1.07-4.57-4.55C133,334.85,132.73,333.13,132.94,331.47Zm21-7.58c9.84,2.82,16.12,10.64,25.38,16.42C164,343.61,161.55,329.76,154,323.89Zm-91-4.26c.17-3.09.94-5.2,4.55-5.1a46.89,46.89,0,0,0,8.71-.07c5.39-.85,6.2,2.76,6.35,6.45.17,4.66-3.71,2.12-5.8,2.68a14.56,14.56,0,0,1-3.62.05c-1.94,0-3.88-.1-5.81,0C64.36,323.83,62.72,323,62.91,319.63Zm-21,27a9.58,9.58,0,0,1,5-.12c2.25.79,6.64-2.68,6.59,2.23,0,3.82-.88,8.66-7.11,7.52a20,20,0,0,0-3.63,0,2.47,2.47,0,0,1-.72,0c-2.68-.85-7.38,2.2-7.85-2.25C33.75,349.74,37.88,347.57,41.89,346.67Zm6.36,21.13c-5.77,0-11.64-.22-14.49-8.26,5.46,0,10,.28,14.56-.08,4.88-.38,5,3.48,5.2,6.13C53.8,369.58,50.11,367.8,48.25,367.8ZM73.8,367c-5.5.15-10.43-4.59-10.35-9.95a10.32,10.32,0,0,1,9.74-9.93,10.11,10.11,0,0,1,10.22,10.08A9.8,9.8,0,0,1,73.8,367Zm12-27.53c-8.11-5.27-16.37-5.25-24.48,0-2.94,1.89-6.27,2.39-8.92.93-2.1-1.15-.66-4.49-1-6.83-.61-4.3,1.94-4.55,5.24-4.52,11.12.12,22.25.05,33.38.05,10.64,0,21.29.21,31.92-.1,4.53-.13,5.94,1.37,5.7,5.77-.2,3.68,0,6.52-5.21,6.35-10.39-.35-20.8-.11-31.2-.1A9.29,9.29,0,0,1,85.78,339.5Zm129.83,26.14c-.28,4-4.15,2.18-6.37,2.2-18.41.16-36.83.09-55.24.09-18.17,0-36.34.06-54.51-.09-2.14,0-6,1.77-5.88-2.8.09-3.93,2.68-5,6.45-5q54.51.15,109,0C213.47,360,215.89,361.8,215.61,365.64Zm-9-10.24q-52-.61-104,0c-6.64.07-9.35-2.06-9.16-8.57H216C215.68,353.17,213.24,355.48,206.57,355.4ZM201.06,340c5.92-7,11-14.07,17.13-20,5-4.82,7.56,2.34,11.2,3.91,4.05,1.75.25,3.7-.78,5.38C222.47,339.2,214.09,344.06,201.06,340ZM245.36,358a9.46,9.46,0,0,1-10.2,9,9.69,9.69,0,0,1-9.23-10.75c.4-5.19,5.21-9.48,10.26-9.16A9.9,9.9,0,0,1,245.36,358Zm-7.79-22.2c-1.72-.84-4.2-.12-7.48-.12,5.07-6,9.54-11,13.75-16.24,2.9-3.6,4.93-.68,7.35.5,3.13,1.52,3.62,3.48,1.46,6.2a10,10,0,0,0-1.44,2.5C248.73,335,245.62,339.75,237.57,335.84Zm16.59-1.64c1.85-2.61,2.84-8.26,5.59-7.31,5.12,1.77,8.72,6.71,11,11.85,1.16,2.64-1.63,2.22-3.1,2.25-5.27.08-10.55,0-17,0C252.2,338,253,335.91,254.16,334.2Zm23.75,33.25c-6,.37-12.08.4-18.12.39-1.63,0-4.69.88-4.13-2.15.43-2.36-.06-6.21,4.45-6.16,8.83.1,17.65,0,27.06,0C285.54,365,282.29,367.18,277.91,367.45Z"/><path class="cls-1" d="M120.9,229.79c-.07-16.33,7.4-25.88,19.85-26.33,14.61-.52,28.52,10.9,29.64,24.35.54,6.48-1.29,7.78-7.55,5.51-4.21-1.53-7.53-4.28-10.7-7.3-1.54-1.47-2.91-3.6-5.46-1.88s-2.4,4.24-1.86,6.57c2.08,8.95,7.55,15.73,15,20.59,4.75,3.09,5.06,5.34,1.31,9.49-3.16,3.5-5.09,3.12-8.07,0-8.34-8.79-17-17.17-29-21C118.53,238,122.48,232.35,120.9,229.79Z"/><path class="cls-1" d="M417.3,164.59c16.25.26,29,10.69,30.91,23.12.38,2.54,1.41,5.74-1.11,7.47-2.34,1.6-5.12,0-7.53-1a29.39,29.39,0,0,1-9.39-6.73c-1.54-1.6-3.12-3.49-5.54-1.93s-2.34,4.23-1.78,6.6a32.05,32.05,0,0,0,15.07,20.57c5.73,3.44,4.44,6.07.69,10-2.63,2.73-4.19,2.9-6.83.1-8.51-9-17.29-17.76-29.62-21.6-.86-.27-2.19-.86-2.29-1.46-1.3-8.17-2.29-16.42,1.92-24.1C405.72,168.39,411.86,164.62,417.3,164.59Z"/><path class="cls-1" d="M51.23,292.5,0,298.9v-8.67l50.53-6.35c2.37.28,6.1-1.67,6.66,2.9C57.7,291,54.58,292.08,51.23,292.5Z"/><path class="cls-1" d="M324.81,247.5c1.44-.13,2.91-.18,4.34-.41,3.05-.5,6.15-.84,6.56,3.36.39,4-2.59,4.74-5.67,5-17.58,1.73-35.17,3.37-52.75,5.15-21.43,2.16-42.85,4.43-64.28,6.66-3,.31-6.81,1.79-7.52-2.93-.73-4.87,3.08-5.15,6.62-5.52q47.31-4.86,94.61-9.8c6-.62,12-1.13,18.07-1.69Z"/></g><path class="cls-1" d="M18.18,435.69C95.36,422.6,172.55,409,249.78,398.75c63.72-8.5,127.43-13.84,191.12-17.08,48.18-2.45,96.34-4,144.49-5.34,3.22-.09,3.79-8.19.54-8.1-77.79,2.17-155.62,4.65-233.51,11.24-64,5.41-128,14.28-191.9,24.48-47.72,7.6-95.43,15.75-143.15,23.84-3.22.55-2.4,8.45.81,7.9Z"/><g id="Sonne"><rect class="cls-1" x="369.74" y="23.64" width="69.26" height="11.71" rx="3.56"/><rect class="cls-1" x="161" y="22.66" width="69.26" height="11.71" rx="3.56" transform="translate(391.26 57.02) rotate(180)"/><rect class="cls-1" x="191.22" y="96.6" width="69.26" height="11.71" rx="3.56" transform="translate(458 15.2) rotate(135)"/><rect class="cls-1" x="264.88" y="127.52" width="69.26" height="11.71" rx="3.56" transform="translate(432.88 -166.14) rotate(90)"/><rect class="cls-1" x="338.83" y="97.29" width="69.26" height="11.71" rx="3.56" transform="translate(182.32 -233.86) rotate(45)"/></g><path class="cls-1" d="M254.3,0a54.14,54.14,0,1,0,91.4,0Z"/><path class="cls-1" d="M600,232.08c-11.71.3-23.41.68-35.12.82q-36,.43-71.92,2.63c-3.14.19-6.91-.1-6.64,4.6.3,5.21,4.39,4.09,7.68,4q27.59-1.23,55.19-2.51l50.81-.89Z"/></svg>