<svg id="Ebene_1" data-name="Ebene 1" xmlns="http://www.w3.org/2000/svg" viewBox="0 0 600 480"><defs><style>.cls-1{fill:#fcdd18;}</style></defs><title>Zeichenfläche 1 Kopie 12</title><path class="cls-1" d="M279.62,236.27l-2.69,5.52c-.93,1.82-1.86,3.63-2.82,5.43l-1.49,2.64-.75,1.32-.8,1.26L269.46,255l-1.76,2.48q-1.79,2.46-3.68,4.82a110.94,110.94,0,0,1-8,9,61.78,61.78,0,0,1-9,7.54,35.11,35.11,0,0,1-5,2.83,23.54,23.54,0,0,1-5.17,1.8,18.65,18.65,0,0,1-5.18.42,16.55,16.55,0,0,1-4.94-1.16,19,19,0,0,1-4.53-2.63,22.67,22.67,0,0,1-2.06-1.8,23.13,23.13,0,0,1-2-2c-5-5.54-8-12.76-9.66-20.38A116.09,116.09,0,0,1,206.33,232a376.29,376.29,0,0,1,2.5-48.84c1.85-16.23,4.78-32.35,8.19-48.38.44-2,.85-4,1.32-6l1.41-6c.92-4,1.95-8,3-11.95,2-8,4.14-15.89,6.4-23.8q6.33-22.12,13.23-44.16l.27.25c.47.44,1,.85,1.45,1.26s1,.83,1.49,1.2c1,.76,2,1.54,3.08,2.22l1.58,1,1.63,1A68.82,68.82,0,0,0,265.56,56c2.42.64,4.78,1.42,7.24,1.84,1.22.23,2.43.53,3.66.7l3.68.48c.62.07,1.23.16,1.85.21l1.85.09,3.7.19c2.46,0,4.93-.08,7.38-.12-2.45-.17-4.91-.27-7.34-.51l-3.64-.49-1.82-.25c-.6-.1-1.19-.24-1.79-.36L276.75,57c-1.19-.26-2.35-.63-3.53-.94-2.36-.57-4.61-1.5-6.9-2.28a71.41,71.41,0,0,1-12.78-6.65l-1.49-1-1.42-1.08c-1-.7-1.87-1.48-2.77-2.25-.47-.37-.88-.79-1.32-1.19s-.86-.81-1.26-1.23A31.57,31.57,0,0,1,243,37.86L240.77,35l-1.25,3.43C233.83,54,228.3,69.53,223.31,85.32c-1.25,3.94-2.53,7.88-3.7,11.85s-2.42,7.93-3.49,11.93-2.23,8-3.23,12l-1.56,6c-.51,2-1,4-1.45,6A436.83,436.83,0,0,0,201,182.27a337.06,337.06,0,0,0-2.48,49.93c0,4.16.21,8.37.6,12.61a91.83,91.83,0,0,0,2,12.73A60.55,60.55,0,0,0,205.4,270a44.13,44.13,0,0,0,7.53,11.1,21.15,21.15,0,0,0,1.64,1.64c0,2.59,0,5.22-.14,7.81-.11,3-.29,6-.64,8.78-.1.68-.2,1.36-.37,2.06s-.28,1.37-.46,2.12l-1,4.43-2.12,8.89-8.69,35.55-17.59,71.06,21.45-70,10.62-35.05,2.62-8.78,1.28-4.42c.22-.72.43-1.53.64-2.31a23.67,23.67,0,0,0,.56-2.42c.6-3.22.93-6.32,1.22-9.42.09-.95.16-1.9.23-2.84a18.22,18.22,0,0,0,2.07.9,23.5,23.5,0,0,0,7.09,1.5h.54c-.49,1-1,2-1.47,3.07-1.32,2.82-2.6,5.66-3.72,8.74-.28.79-.54,1.58-.74,2.37s-.44,1.59-.62,2.32l-1.12,4.46-2.19,8.9L213.42,356l-15.5,65.26-.25,0,.23.1-1.4,5.92,1.71-5.79a33.13,33.13,0,0,1,8.34,4.6,11.59,11.59,0,0,1,3,3.56c.39.69.34,1,.23,1.11a2.87,2.87,0,0,1-1.27.79,19.81,19.81,0,0,1-4.58.86,34.69,34.69,0,0,1-4.89.08,53.68,53.68,0,0,1-9.79-1.44c-1.63-.37-3.25-.81-4.87-1.28-.84-.24-1.56-.45-2.34-.74s-1.56-.57-2.34-.87a36,36,0,0,1-8.62-4.49,5.65,5.65,0,0,1-1.34-1.43,1.16,1.16,0,0,1-.18-.55.89.89,0,0,1,.13-.53c.56-1,2-1.59,3.63-2a46.16,46.16,0,0,1,10.12-.76,36.6,36.6,0,0,0-5.11-1,26.78,26.78,0,0,0-5.31-.18,11.86,11.86,0,0,0-2.78.57,6.79,6.79,0,0,0-1.42.68,5.58,5.58,0,0,0-1.25,1.11,3.5,3.5,0,0,0-.76,1.86,3.93,3.93,0,0,0,0,1,5.71,5.71,0,0,0,.28.91A8.26,8.26,0,0,0,169,426a22.31,22.31,0,0,0,4.48,3.24c1.56.89,3.14,1.68,4.76,2.41.8.37,1.62.71,2.45,1s1.75.62,2.56.88c1.67.51,3.37,1,5.09,1.39A46.92,46.92,0,0,0,199,436.27a37.47,37.47,0,0,0,5.39-.38,18.39,18.39,0,0,0,5.43-1.49,7.49,7.49,0,0,0,1.39-.86,4.25,4.25,0,0,0,1.24-1.56,3.24,3.24,0,0,0,.15-2.18,4.34,4.34,0,0,0-.78-1.54,13.79,13.79,0,0,0-4.11-3.78,26.38,26.38,0,0,0-9.43-3.13l19-64.27L227.77,322l2.66-8.74,1.35-4.34c.23-.75.45-1.4.68-2.07s.46-1.33.72-2c1.11-2.6,2.48-5.27,3.89-7.9s2.9-5.27,4.41-7.81L241,289a33.15,33.15,0,0,0,3.75-1.63,41.06,41.06,0,0,0,5.68-3.48,67.36,67.36,0,0,0,9.66-8.59,99.93,99.93,0,0,0,8.08-9.79q1.88-2.55,3.6-5.19c.58-.87,1.14-1.76,1.7-2.65l1.61-2.77a182.63,182.63,0,0,0,10.31-22.8q4.5-11.6,8.39-23.36c2.64-7.83,5.08-15.73,7.39-23.65-6,15.37-12.2,30.67-19,45.65Z"/><path class="cls-1" d="M263.3,439.81a8,8,0,0,0-.53-1.18l-.62-1.08-.63-.91-1.26-1.8-1.41-1.68c-.9-1.15-2-2.11-3-3.16a49.12,49.12,0,0,0-6.78-5.24,69.51,69.51,0,0,0-15.18-7.08,124.45,124.45,0,0,0-16-4.13c2.56,1,5.14,1.89,7.66,2.94s5,2.08,7.48,3.25A71,71,0,0,1,246.81,428a46,46,0,0,1,5.78,5.26,36.48,36.48,0,0,1,2.42,3l1.1,1.55,1,1.64c1.34,2.19,1.64,3.91,1,5.08s-2.63,2.59-4.85,3.46a40.09,40.09,0,0,1-7.28,2c-2.54.49-5.15.85-7.78,1.1a119.91,119.91,0,0,1-15.86.43A141.62,141.62,0,0,1,206.39,450c-5.27-.76-10.52-1.79-15.75-3s-10.42-2.61-15.6-4.14l-3.85-1.14c-1.22-.39-2.48-.83-3.73-1.28-2.51-.9-5-1.88-7.51-2.86-5-2-9.88-4.18-14.6-6.63-2.36-1.22-4.66-2.53-6.9-3.89a53.66,53.66,0,0,1-6.29-4.45,18.16,18.16,0,0,1-4.56-5.23,4.63,4.63,0,0,1,.14-5,10.46,10.46,0,0,1,2.25-2.39,14.9,14.9,0,0,1,3-1.83,35.3,35.3,0,0,1,7.35-2.24,93.25,93.25,0,0,1,16-1.59c2.71-.08,5.44-.07,8.16,0s5.47.16,8.2.32a128.89,128.89,0,0,0-16.29-2.51,87.85,87.85,0,0,0-16.7-.07,38.22,38.22,0,0,0-8.48,1.87,20.39,20.39,0,0,0-4.17,2.1,15.88,15.88,0,0,0-3.6,3.3,9.92,9.92,0,0,0-2.08,5.1,11,11,0,0,0,1,5.37,23.54,23.54,0,0,0,5.64,7.47,71.41,71.41,0,0,0,14,9.86c4.89,2.75,9.91,5.19,15,7.44,2.54,1.13,5.12,2.18,7.74,3.17,1.31.5,2.63,1,4,1.44l4,1.27c5.28,1.62,10.64,3.09,16.06,4.37s10.91,2.3,16.46,3.06a142.73,142.73,0,0,0,16.8,1.25,117.64,117.64,0,0,0,16.87-1c5.6-.81,11.2-1.86,16.75-4.4a21,21,0,0,0,4.1-2.48,11.39,11.39,0,0,0,3.46-4.25,8.78,8.78,0,0,0,.45-5.84A7.22,7.22,0,0,0,263.3,439.81Z"/><path class="cls-1" d="M264.07,32.9c1.12,0,2.23.08,3.35.12s2.22.1,3.33.18,2.23.14,3.33.3a94.31,94.31,0,0,1,13.14,2.19c1.08.27,2.16.56,3.25.82s2.13.67,3.2,1l1.62.48,1.58.61c1.06.4,2.12.8,3.21,1.16-.93-.66-1.88-1.28-2.85-1.91-.48-.32-1-.61-1.46-.92l-1.53-.78c-1-.51-2.06-1-3.11-1.51s-2.16-.8-3.24-1.21a58,58,0,0,0-13.51-2.93c-1.15-.13-2.3-.18-3.46-.23s-2.3-.14-3.45-.1c-2.3,0-4.6.12-6.89.37a55.08,55.08,0,0,0-13.39,2.95c4.55-.38,9-.58,13.52-.62Z"/><path class="cls-1" d="M279.64,137.4l-2.4-.66c-.8-.21-1.62-.35-2.43-.53-1.62-.37-3.26-.6-4.9-.89a81.12,81.12,0,0,0-29.65,1.37,79.51,79.51,0,0,0-9.49,2.8,56.25,56.25,0,0,0-9,4.13,148.84,148.84,0,0,1,19-3.87,131.6,131.6,0,0,1,19.1-1.19c3.19.05,6.36.23,9.54.52s6.32.79,9.46,1.35a130,130,0,0,1,18.66,5.14A63,63,0,0,0,279.64,137.4Z"/><path class="cls-1" d="M296.61,157.07a152,152,0,0,1-19.19,3.87,134.36,134.36,0,0,1-19.3,1.19c-3.22,0-6.43-.23-9.63-.52s-6.39-.78-9.57-1.35a132.79,132.79,0,0,1-18.85-5.14,64.32,64.32,0,0,0,18.14,8.18l2.43.65c.81.21,1.63.36,2.45.54,1.64.37,3.3.59,4.95.88a84,84,0,0,0,10,.76A85.74,85.74,0,0,0,278,164a81.06,81.06,0,0,0,9.59-2.8A56.4,56.4,0,0,0,296.61,157.07Z"/><path class="cls-1" d="M268.73,240.73c-2.81,4.78-5.74,9.48-9,14a69.4,69.4,0,0,1-11.08,12.39,31.5,31.5,0,0,0,7.29-4.48,51.47,51.47,0,0,0,6.22-5.95,85.31,85.31,0,0,0,10-13.91,117.55,117.55,0,0,0,7.47-15.3,96.15,96.15,0,0,0,5.14-16.19c-2.73,5-5.33,9.94-8,14.87S271.52,235.94,268.73,240.73Z"/><path class="cls-1" d="M365.32,285a42.39,42.39,0,0,0,4.12,1.85l.54.2c.93,2.21,1.84,4.46,2.69,6.69,1.06,2.79,2.07,5.61,2.83,8.34.18.66.35,1.33.47,2s.28,1.37.4,2.14l.78,4.48,1.51,9,5.89,36.12,11.55,72.29-7.59-72.82-3.9-36.41-1-9.11-.54-4.57c-.08-.74-.2-1.57-.32-2.38s-.25-1.62-.42-2.44c-.72-3.2-1.62-6.18-2.56-9.15-.24-.75-.49-1.48-.74-2.22a25.12,25.12,0,0,0,4.33-.14,23.87,23.87,0,0,0,5.35-1.29c-.05.93-.1,1.84-.13,2.77-.11,3.12-.18,6.23,0,9.5a24.58,24.58,0,0,0,.25,2.47c.11.81.21,1.64.33,2.37l.71,4.55,1.46,9.05,6,36.12,11.21,66.13-.24.06h.25l1,6-.69-6a33.1,33.1,0,0,1,9.47,1,11.44,11.44,0,0,1,4.18,2.1c.63.48.7.79.64.93a2.89,2.89,0,0,1-.86,1.22,19.68,19.68,0,0,1-3.88,2.58,35.77,35.77,0,0,1-4.47,2,54.14,54.14,0,0,1-9.58,2.49c-1.64.3-3.31.53-5,.72-.87.11-1.62.2-2.44.24s-1.66.08-2.5.11a36.56,36.56,0,0,1-9.69-.76,5.75,5.75,0,0,1-1.79-.8,1.19,1.19,0,0,1-.38-.44.94.94,0,0,1-.09-.54c.14-1.12,1.28-2.26,2.58-3.22a46,46,0,0,1,9-4.65,37.31,37.31,0,0,0-5.1,1.08,27.56,27.56,0,0,0-5,1.91,12.15,12.15,0,0,0-2.33,1.61,6.32,6.32,0,0,0-1,1.18,5.22,5.22,0,0,0-.72,1.52,3.58,3.58,0,0,0,0,2,3.38,3.38,0,0,0,.44.94,5.49,5.49,0,0,0,.61.73,8.12,8.12,0,0,0,2.72,1.62,22.27,22.27,0,0,0,5.39,1.23c1.79.22,3.56.33,5.33.37.88,0,1.77,0,2.66,0s1.85-.11,2.69-.19c1.74-.17,3.49-.4,5.23-.7A47.42,47.42,0,0,0,415.34,434a39,39,0,0,0,4.82-2.46,18.36,18.36,0,0,0,4.41-3.5,6.85,6.85,0,0,0,.95-1.33,4.25,4.25,0,0,0,.53-1.92,3.27,3.27,0,0,0-.71-2.06,4.47,4.47,0,0,0-1.32-1.12,13.64,13.64,0,0,0-5.26-1.87,26.39,26.39,0,0,0-9.9.8l-7.58-66.6-4-36.37-1-9.09-.45-4.53c-.08-.77-.13-1.46-.19-2.17s-.09-1.4-.09-2.08c0-2.83.22-5.82.49-8.79.25-2.67.56-5.37.9-8a35.88,35.88,0,0,0,2.87-2.61,55.43,55.43,0,0,0,9.87-14.48,91.9,91.9,0,0,0,5.93-16c.75-2.73,1.39-5.47,1.93-8.25s.93-5.67,1.18-8.43c.53-5.58.76-11.09.89-16.59s.15-11,.08-16.47c-.16-11-.55-21.89-1.11-32.82l-.22-4.1-.06-1,0-.59-.06-.59-.24-2-1-8.14q-1.05-8.13-2.24-16.24c-.8-5.42-1.65-10.83-2.64-16.23-.49-2.7-1-5.41-1.68-8.12s-1.52-5.35-2.31-8c-3.2-10.42-6.35-20.87-9.64-31.27s-6.54-20.82-10-31.16l16.22,63.41c.67,2.64,1.39,5.3,1.9,7.84s1,5.28,1.34,8c.79,5.35,1.44,10.75,2,16.15s1.14,10.81,1.66,16.23l.77,8.12.18,2,0,.43v.43l0,1,.11,4.07c.27,10.87.39,21.75.27,32.6-.06,5.42-.14,10.84-.35,16.24s-.53,10.78-1.11,16.06c-.29,2.66-.67,5.16-1.21,7.74s-1.18,5.12-1.91,7.65a91.8,91.8,0,0,1-5.62,14.6,48.09,48.09,0,0,1-8.5,12.42c-3.41,3.46-7.5,5.85-11.88,6.33a18.38,18.38,0,0,1-6.69-.51,28.11,28.11,0,0,1-3.4-1.12A34.4,34.4,0,0,1,369,278a41,41,0,0,1-11.51-9.31,72.67,72.67,0,0,1-8.8-12.73c-2.59-4.58-4.8-9.46-7-14.37q-6.54-14.78-11.74-30.13c-3.51-10.21-6.55-20.59-9.23-31.07C310.18,139,305.3,96.26,301.18,53.57a193,193,0,0,0,19.92,1.18,183,183,0,0,0,22-1.15c3.64-.44,7.26-1,10.87-1.67s7.16-1.57,10.67-2.59a105.54,105.54,0,0,0,10.32-3.71,81.28,81.28,0,0,0,9.72-5,79.19,79.19,0,0,1-9.9,4.58,101.71,101.71,0,0,1-10.4,3.23c-3.52.86-7.08,1.55-10.66,2.13s-7.19,1-10.8,1.25a185.16,185.16,0,0,1-21.72.35,185.78,185.78,0,0,1-21.55-2l-2-.32.1,2c.28,5.46.55,10.92.89,16.36s.73,10.9,1.14,16.35c.85,10.89,1.75,21.79,3,32.66a539.9,539.9,0,0,0,11,64.84c2.55,10.69,5.48,21.31,8.91,31.78s7.42,20.77,11.82,30.88,9.3,20.37,17,29.21A47.58,47.58,0,0,0,365.32,285Z"/><path class="cls-1" d="M476.84,413.11a6.4,6.4,0,0,0-.89-1,8.5,8.5,0,0,0-.95-.87l-1-.77-.93-.58-1.87-1.16-1.95-1c-1.28-.7-2.66-1.16-4-1.73a47.13,47.13,0,0,0-8.29-2.18,69.21,69.21,0,0,0-16.74-.59,123.73,123.73,0,0,0-16.32,2.43c2.75-.1,5.48-.26,8.21-.28s5.45-.06,8.15.06a71.45,71.45,0,0,1,15.87,2.22,46.24,46.24,0,0,1,7.37,2.58,38.15,38.15,0,0,1,3.4,1.82l1.62,1,1.53,1.14c2.09,1.49,3,2.95,2.87,4.29s-1.42,3.41-3.12,5.08a39.15,39.15,0,0,1-5.91,4.68c-2.16,1.45-4.42,2.8-6.74,4.06a121.36,121.36,0,0,1-14.44,6.59,139.62,139.62,0,0,1-15.19,4.82c-5.15,1.36-10.39,2.47-15.68,3.37s-10.62,1.67-16,2.29l-4,.44c-1.27.12-2.6.21-3.93.29-2.66.15-5.34.22-8,.29-5.37.11-10.74,0-16-.4-2.65-.2-5.28-.51-7.86-.89a53.32,53.32,0,0,1-7.54-1.63,18.3,18.3,0,0,1-6.23-3,4.65,4.65,0,0,1-1.85-4.69,10.69,10.69,0,0,1,1.15-3.08,14.55,14.55,0,0,1,2.06-2.85,35.27,35.27,0,0,1,5.89-4.94,93.34,93.34,0,0,1,14.13-7.72c2.47-1.13,5-2.19,7.52-3.2s5.09-2,7.67-2.9a129.05,129.05,0,0,0-16,4,88.73,88.73,0,0,0-15.39,6.46,37.57,37.57,0,0,0-7.08,5,20.27,20.27,0,0,0-3,3.56,15.42,15.42,0,0,0-2,4.44,9.94,9.94,0,0,0,.07,5.51,11,11,0,0,0,3,4.57,23.66,23.66,0,0,0,8.11,4.68,71.4,71.4,0,0,0,16.75,3.6c5.58.63,11.15.91,16.72,1,2.79,0,5.57,0,8.37-.1,1.4-.06,2.8-.13,4.25-.24l4.16-.39q8.26-.85,16.5-2.25c5.48-1,10.95-2.14,16.35-3.61a139.88,139.88,0,0,0,15.95-5.41,115.28,115.28,0,0,0,15.14-7.52c4.84-2.92,9.59-6.08,13.7-10.59a21.1,21.1,0,0,0,2.81-3.88,11.43,11.43,0,0,0,1.53-5.26A8.81,8.81,0,0,0,476.84,413.11Z"/><path class="cls-1" d="M332.1,29.24A87.94,87.94,0,0,1,342,27.1a86.63,86.63,0,0,1,10-1,89.45,89.45,0,0,1,10.09.24,97,97,0,0,1,20,4.05A63.41,63.41,0,0,0,362.37,24a72.91,72.91,0,0,0-10.44-.76,83.06,83.06,0,0,0-10.44.88,82.18,82.18,0,0,0-10.18,2.38,78,78,0,0,0-9.75,3.73,76.71,76.71,0,0,0-9.13,5,57.3,57.3,0,0,0-8.24,6.26,108.41,108.41,0,0,1,18.28-9.08A100.3,100.3,0,0,1,332.1,29.24Z"/><path class="cls-1" d="M375.22,106.79c-.81-.16-1.64-.25-2.46-.37-1.64-.27-3.29-.39-4.95-.57a84.85,84.85,0,0,0-10-.1,83.75,83.75,0,0,0-19.53,3.43A76.55,76.55,0,0,0,329,112.6a55.18,55.18,0,0,0-8.65,4.7,151.14,151.14,0,0,1,18.7-5.11,131.26,131.26,0,0,1,19-2.45c3.18-.16,6.37-.18,9.55-.1s6.36.36,9.54.72a130.63,130.63,0,0,1,19,3.89,63.44,63.44,0,0,0-18.44-7Z"/><path class="cls-1" d="M372.39,131.93l-5.19.86c-1.73.28-3.47.47-5.2.72s-3.48.39-5.22.52c-3.48.43-7,.44-10.47.62-1.74,0-3.49,0-5.24,0-.87,0-1.75,0-2.63,0l-2.62-.17c-1.74-.11-3.5-.19-5.25-.34l-5.24-.63c-.88-.1-1.77-.15-2.64-.3s-1.73-.33-2.61-.47c-1.74-.31-3.5-.6-5.28-.85,1.65.67,3.32,1.3,5,1.92.84.32,1.69.61,2.54.91s1.72.48,2.59.72l5.25,1.3c1.76.36,3.55.56,5.33.85l2.68.4c.9.1,1.8.13,2.7.19,1.8.11,3.61.24,5.41.32,3.61-.06,7.23-.05,10.83-.42,1.79-.17,3.59-.33,5.37-.63l2.68-.41c.89-.14,1.79-.24,2.66-.46l5.28-1.17c1.75-.45,3.48-.94,5.21-1.44s3.42-1.11,5.12-1.7,3.35-1.28,5-2a69.58,69.58,0,0,0,9.56-4.92,200.36,200.36,0,0,1-20.47,5.6C375.82,131.22,374.1,131.55,372.39,131.93Z"/><path class="cls-1" d="M405.13,236.39c1.05-4,1.78-8,2.45-12.09s1-8.15,1.37-12.24.46-8.18.53-12.27,0-8.18-.2-12.27a176.11,176.11,0,0,0-2.59-24.35c-.16,8.17-.29,16.28-.52,24.38-.16,4-.23,8.09-.46,12.12s-.4,8.07-.74,12.09a237,237,0,0,1-2.89,24,118,118,0,0,1-2.72,11.73,65.88,65.88,0,0,1-4.29,11.33,46.32,46.32,0,0,0,6.14-10.67A83.53,83.53,0,0,0,405.13,236.39Z"/></svg>