<svg id="Ebene_1" data-name="Ebene 1" xmlns="http://www.w3.org/2000/svg" viewBox="0 0 600 480"><defs><style>.cls-1{fill:#fcdd18;}</style></defs><title>KartIndoor</title><g id="Kart"><path class="cls-1" d="M409.92,307.51a39.6,39.6,0,0,1-4.48-.64L401,306c-3-.58-5.92-1.22-8.86-1.89-5.89-1.34-11.77-2.73-17.6-4.39-2.91-.82-5.81-1.68-8.71-2.73-.72-.27-1.44-.55-2.17-.87a11.35,11.35,0,0,1-2.25-1.24,9,9,0,0,1-2.89-4.3,21.68,21.68,0,0,1-1-4.65,42.21,42.21,0,0,1-.27-4.61c0-1.53,0-3,.15-4.57s.25-3,.48-4.56l.12-.88.85-.4a23.29,23.29,0,0,1,4.9-1.74,15.1,15.1,0,0,1,5.45-.36,9.29,9.29,0,0,1,2.89.89l2.13,1.06,4.25,2.14c5.69,2.94,11.26,5.95,16.86,8.92s11.19,5.86,16.83,8.62l4.27,2,1.06.49.51.24.55.23,2.18.95c2.9,1.24,5.77,2.37,8.72,3.49,5.88,2.22,11.87,4.2,17.89,6.17l18.14,5.91c6.06,2,12.11,4.13,18.09,6.5,1.58.63,3,1.22,4.45,1.85s3,1.34,4.46,2.08c2.91,1.44,5.78,3,8.56,4.61a176.09,176.09,0,0,1,30.71,23.2c1.17,1.1,2.33,2.19,3.46,3.31.59.58,1.11,1.06,1.75,1.72s1.17,1.32,1.7,2a95.86,95.86,0,0,1,5.64,7.9,77,77,0,0,1,8.7,17.4,28.66,28.66,0,0,1,1.13,5,14.15,14.15,0,0,1-.26,5.57,9,9,0,0,1-1.31,2.87,8.53,8.53,0,0,1-2.33,2.27l-.34.21-.17.11-.23.12-.06,0-.16.07-.35.14c-.27.09-.36.11-.52.15a12,12,0,0,1-1.49.24c-.9.1-1.73.13-2.57.16-6.56.1-12.86-.27-19.24-.48s-12.69-.48-19-.5a123.13,123.13,0,0,0-18.78,1.05l-2.46.38.81-2.27a18.58,18.58,0,0,0,.61-2.16c.18-.75.32-1.51.45-2.28a40.69,40.69,0,0,0,.43-4.68,43.24,43.24,0,0,0-.73-9.42,50,50,0,0,0-2.64-9.15c-.57-1.49-1.24-3-1.95-4.39s-1.5-2.84-2.32-4.22l-.75-1.27,1.43.34,19.29,4.6,19.31,4.54-19.45-3.9c-6.5-1.29-13-2.69-19.44-4l.68-.93c.9,1.37,1.78,2.77,2.58,4.21s1.55,2.9,2.22,4.41a49.74,49.74,0,0,1,3.15,9.38,46.7,46.7,0,0,1,1.16,9.87,42,42,0,0,1-.27,5c-.1.83-.21,1.67-.38,2.5a20.78,20.78,0,0,1-.62,2.54l-1.64-1.89A125.71,125.71,0,0,1,506,392.91c6.41-.19,12.8-.19,19.18-.09s12.78.26,18.94,0c.76,0,1.52-.09,2.19-.19a8,8,0,0,0,.87-.15.43.43,0,1,0,.05,0l-.07,0,.12-.06.06,0c-.27.15-.05,0-.1.05l.08-.05.16-.11a3.91,3.91,0,0,0,1.6-2.45c.52-2.2-.06-5.14-1-7.87a72.07,72.07,0,0,0-8.36-16.05c-1.7-2.54-3.51-5.05-5.42-7.37-.47-.56-1-1.16-1.4-1.59s-1.11-1.05-1.65-1.57c-1.13-1.08-2.28-2.13-3.44-3.18A170.54,170.54,0,0,0,498,329.93c-2.68-1.57-5.42-3-8.21-4.37-1.38-.69-2.77-1.3-4.16-2s-3-1.28-4.33-1.82c-5.81-2.34-11.75-4.45-17.74-6.48-12-4.05-24.19-7.77-36.14-12.5-3-1.18-6-2.42-8.9-3.73l-2.17-1-.54-.24-.57-.27-1.09-.53L409.84,295c-5.72-2.89-11.31-5.95-16.84-9.08s-11-6.28-16.53-9.3l-4.18-2.25-2.1-1.12a5.25,5.25,0,0,0-1.63-.57c-2.45-.42-5.58.35-8.15,1.44l1-1.28c-.25,1.37-.45,2.83-.6,4.26s-.26,2.88-.3,4.31a26.84,26.84,0,0,0,.81,8.33,6.39,6.39,0,0,0,1.82,3.13,8.87,8.87,0,0,0,1.66,1c.63.32,1.31.61,2,.9,2.72,1.13,5.56,2.11,8.4,3.06q8.55,2.81,17.26,5.26l8.7,2.41,4.38,1.14a39.45,39.45,0,0,0,4.42.93Z"/><path class="cls-1" d="M381.05,399.74l-81.88-.06-81.87-.31h-1.45l-.57-1.39c-1.84-4.49-3.61-9-5.34-13.5s-3.42-9.07-4.91-13.77c-.37-1.18-.73-2.37-1-3.63-.15-.63-.3-1.27-.41-2a8.71,8.71,0,0,1-.11-1.27v-.57l0-.5a17.37,17.37,0,0,1,.72-4.21,8.8,8.8,0,0,1,2.78-4.32,7.11,7.11,0,0,1,2.61-1.33,8.59,8.59,0,0,1,2.67-.25,14.66,14.66,0,0,1,4.32,1l6.79,2.47-.81-.18,16.07,1.15,8,.61,8,.64,16,1.38,16,1.42,16,1.42,16,1.3,8,.68c2.68.22,5.36.5,8,.74l8,.8c2.68.26,5.35.59,8,.88l0,.59c-2.68,0-5.38,0-8.06,0l-8.07-.07c-2.69,0-5.38,0-8.07,0l-8.06-.1-8.05-.14-8.1-.18-16.13-.69-16.1-.88c-5.37-.3-10.73-.65-16.1-1l-8-.59-8-.63-16.07-1.39-.44,0-.37-.14L214.58,359a9.37,9.37,0,0,0-2.66-.76,2.12,2.12,0,0,0-1.53.31,3.43,3.43,0,0,0-1.06,1.68,12.45,12.45,0,0,0-.56,2.89l0,.41v.28s0,0,0,0v0a3.18,3.18,0,0,0,0,.54,15,15,0,0,0,.28,1.54c.24,1.09.54,2.22.86,3.35,1.31,4.52,2.88,9.07,4.47,13.59s3.29,9,5,13.5l-2-1.39,81.85,2,81.85,2.22v.59Z"/><path class="cls-1" d="M120.6,370.58a90.67,90.67,0,0,1-17.93-.92,47.71,47.71,0,0,1-8.83-2.26,26.63,26.63,0,0,1-8.15-4.56,18,18,0,0,1-5.46-8,14.93,14.93,0,0,0-1.67-3.67A15.88,15.88,0,0,0,76,348.15a25.45,25.45,0,0,0-6.89-4.52,35.88,35.88,0,0,0-3.92-1.55,34.07,34.07,0,0,0-4-1.09l2.48-1.07L57.6,350.47c-2,3.52-4,7.06-6.08,10.54l.41-2.1c.58,3,1,6.11,1.44,9.18l.54,4.62c.19,1.54.34,3.08.48,4.63s.3,3.09.4,4.65.23,3.1.29,4.66c.18,3.11.26,6.23.21,9.38l-.59.1c-1.07-3-2-5.95-2.84-8.95-.44-1.5-.82-3-1.22-4.51s-.76-3-1.12-4.52-.72-3-1-4.54l-1-4.55c-.6-3-1.17-6.08-1.6-9.15l-.17-1.19.58-.91c2.17-3.43,4.43-6.8,6.68-10.18l6.67-10.17,1-1.45,1.53.38a39.11,39.11,0,0,1,4.55,1.48A40.17,40.17,0,0,1,71,339.82a29.56,29.56,0,0,1,7.7,5.62,20,20,0,0,1,3,3.92,18.31,18.31,0,0,1,1.82,4.51,14.64,14.64,0,0,0,4.19,6.78,24.14,24.14,0,0,0,7.08,4.55,45.86,45.86,0,0,0,8.29,2.68A97.3,97.3,0,0,0,120.61,370v.59Z"/><path class="cls-1" d="M135.08,392.4l1.61,1.88c.27.31.54.67.89,1l1.18,1.12c.42.4.86.85,1.36,1.29l1.7,1.3.92.69,1,.64c.72.42,1.43.9,2.23,1.32l2.53,1.19c.9.37,1.86.66,2.82,1a34.28,34.28,0,0,0,13.48,1.37c1.22-.21,2.47-.3,3.71-.6a33.76,33.76,0,0,0,3.72-1l1.87-.63,1.81-.84a35.83,35.83,0,0,0,3.48-1.83c.57-.31,1.22-.83,1.83-1.24l.93-.66.23-.16.12-.09.06,0-.07.05.4-.34a30.34,30.34,0,0,0,3.14-2.87,31.64,31.64,0,0,0,5.19-7l1.05-2c.31-.68.57-1.39.86-2.09.14-.35.3-.69.42-1.06l.33-1.09c.21-.73.5-1.45.64-2.21a35.9,35.9,0,0,0,.94-9.29,34.68,34.68,0,0,0-1.76-9.39l-.87-2.25a22,22,0,0,0-1-2.13l-.52-1.06c-.17-.35-.45-.73-.67-1.09l-1.4-2.2-1.45-1.83a15.5,15.5,0,0,0-1.62-1.82,23.53,23.53,0,0,0-1.73-1.73l-1.85-1.58a33.82,33.82,0,0,0-17.73-7.1,33.82,33.82,0,0,0-9.39.47A33.32,33.32,0,0,0,143,343.81c-.54.32-1.14.86-1.7,1.28a20.55,20.55,0,0,0-1.68,1.38,35.38,35.38,0,0,0-9.17,13.3,34.74,34.74,0,0,0-2.2,13.73c.09,1.05.13,2.07.26,3s.34,1.9.5,2.79.48,1.72.7,2.52c.12.4.23.79.35,1.18l.43,1.08.8,2c.3.6.61,1.14.88,1.66l.77,1.43c.24.44.52.8.74,1.14l1.4,2.08Zm-.49.34-1.36-2.1c-.22-.34-.49-.71-.74-1.15s-.48-.94-.76-1.47-.59-1.1-.88-1.72l-.83-2a37.58,37.58,0,0,1-2.59-10.73,38.37,38.37,0,0,1,1.39-14.35,35.6,35.6,0,0,1,8.91-14.77c.52-.58,1.16-1,1.74-1.57l.9-.78.46-.38,0,0,.13-.09.11-.08.24-.16a36.84,36.84,0,0,1,13.42-6.17,37.37,37.37,0,0,1,10.38-.85,39.15,39.15,0,0,1,10.49,2.18,39.86,39.86,0,0,1,9.62,5.15l2.16,1.73c.74.56,1.35,1.26,2,1.89a20.07,20.07,0,0,1,1.9,2l.89,1.06.45.53.22.27.11.13.06.07.12.16,1.48,2.15a11.89,11.89,0,0,1,.74,1.11l.7,1.25c.43.84,1,1.67,1.32,2.53l1.1,2.56A41.43,41.43,0,0,1,201,369.88a39,39,0,0,1-.65,10.95c-.14.9-.44,1.76-.66,2.64l-.37,1.3c-.13.43-.32.85-.47,1.27-.33.84-.64,1.68-1,2.5l-1.21,2.39a35.1,35.1,0,0,1-6.3,8.3,36.19,36.19,0,0,1-3.83,3.31l-.48.39-.19.12-.06,0-.12.08-.25.15-1,.6c-.67.4-1.23.81-2,1.19a33.94,33.94,0,0,1-4.47,2l-2.2.77-2.22.55a36.57,36.57,0,0,1-8.63.88,38,38,0,0,1-14.42-3.42,38.54,38.54,0,0,1-9.42-6.07l-1.63-1.45c-.5-.48-.93-1-1.34-1.39l-1.15-1.2c-.34-.38-.6-.76-.86-1.08l-1.55-2Z"/><path class="cls-1" d="M425.29,338.2,423,339c-.38.14-.82.27-1.27.47l-1.47.7c-.52.25-1.1.5-1.69.81l-1.81,1.13-1,.61-1,.74c-.64.52-1.36,1-2,1.61l-2,1.95c-.66.71-1.28,1.5-1.95,2.28a33.6,33.6,0,0,0-6,12.14,36.07,36.07,0,0,0-1.05,7.52c0,.66-.05,1.31,0,2l.15,2,.06,1,.15,1,.3,1.93c.13.67.36,1.44.54,2.16l.29,1.1.07.28,0,.14c-.07-.28,0,0,0-.09l0,.06.18.5a29.57,29.57,0,0,0,1.6,3.94,35.32,35.32,0,0,0,2.11,3.79,20,20,0,0,0,1.27,1.79,15.26,15.26,0,0,0,1.39,1.73l1.49,1.68,1.65,1.54a15.32,15.32,0,0,0,1.76,1.46,21,21,0,0,0,1.84,1.38,35.9,35.9,0,0,0,8.36,4.17,35,35,0,0,0,9.41,1.72h2.42c.82,0,1.56-.13,2.35-.18l1.17-.11a12.43,12.43,0,0,0,1.25-.24l2.56-.52,2.22-.7a15.8,15.8,0,0,0,2.29-.86,23.19,23.19,0,0,0,2.22-1l2.15-1.17a33.24,33.24,0,0,0,12.87-14.07,34.17,34.17,0,0,0,2.82-9,20,20,0,0,0,.28-2.3,17.58,17.58,0,0,0,.13-2.29c0-.76,0-1.52,0-2.28s-.15-1.47-.22-2.2a33.72,33.72,0,0,0-.83-4.48c-.13-.6-.42-1.37-.62-2a17.55,17.55,0,0,0-.71-2,35.49,35.49,0,0,0-9.27-13.24,35.05,35.05,0,0,0-12.07-6.93c-1-.29-2-.62-2.93-.84l-2.79-.53c-.9-.13-1.77-.16-2.6-.25l-1.22-.09-1.16,0-2.15,0c-.67.05-1.29.15-1.87.22l-1.61.2c-.49.08-.93.21-1.33.29l-2.43.56Zm-.14-.58,2.45-.53c.4-.07.83-.2,1.34-.26l1.64-.2c.6-.06,1.24-.15,1.92-.2l2.17-.06a37.85,37.85,0,0,1,10.95,1.42,38.71,38.71,0,0,1,12.93,6.37,35.91,35.91,0,0,1,10.73,13.5,20.62,20.62,0,0,1,.87,2.18l.41,1.12.21.56.05.14,0,.07,0,.14.07.28a36.07,36.07,0,0,1,1,4.64,35.14,35.14,0,0,1,.14,10.09,38.14,38.14,0,0,1-2.81,10,37.34,37.34,0,0,1-14,16.24L453,404.56a27.25,27.25,0,0,1-2.49,1.21,17.91,17.91,0,0,1-2.56,1.06l-1.31.46-.65.22-.33.12-.17.05-.08,0-.2.06-2.53.61a12.39,12.39,0,0,1-1.3.29l-1.42.21a27.91,27.91,0,0,1-2.83.33l-2.78.11a41.39,41.39,0,0,1-11-1.54,39.61,39.61,0,0,1-10-4.48c-.8-.45-1.49-1-2.24-1.56a18.08,18.08,0,0,1-2.11-1.68l-2-1.81-1.81-2a37.21,37.21,0,0,1-7.36-13.52l-.19-.6-.09-.29,0-.14,0-.28-.23-1.12c-.14-.76-.32-1.45-.44-2.25a33.36,33.36,0,0,1-.06-9.51,35.08,35.08,0,0,1,2.17-8.4,37.14,37.14,0,0,1,8.24-12.31,38.21,38.21,0,0,1,9-6.67l1.94-1c.62-.29,1.23-.52,1.78-.76l1.53-.64c.47-.18.92-.29,1.31-.42l2.42-.73Z"/><path class="cls-1" d="M164.24,358.45h-.93a5.82,5.82,0,0,0-1.12.07,7.52,7.52,0,0,0-1.47.28,9.94,9.94,0,0,0-3.55,1.76,11.11,11.11,0,0,0-3.08,3.74,12.8,12.8,0,0,0-1,2.43,14.84,14.84,0,0,0-.49,2.48l-.07.86,0,.44v.08c0,.14,0-.16,0-.12v.26a8.15,8.15,0,0,0,.07,1.39,11.81,11.81,0,0,0,.6,2.78,12.53,12.53,0,0,0,3.16,5.12,11.49,11.49,0,0,0,2.59,1.85,11.17,11.17,0,0,0,3.22,1h.08l.21,0,.41,0a5.63,5.63,0,0,0,.82,0,12.94,12.94,0,0,0,1.65-.1,12.4,12.4,0,0,0,3.16-.95,13.36,13.36,0,0,0,2.74-1.83,12.9,12.9,0,0,0,2.1-2.51,12,12,0,0,0,1.27-2.89l.11-.36.09-.44L175,373c0-.38.14-1,.14-1.48a14.19,14.19,0,0,0-1-5.8,12.51,12.51,0,0,0-2.94-4.26,11,11,0,0,0-3.44-2.21,8.28,8.28,0,0,0-1.43-.48,5.64,5.64,0,0,0-1.11-.23l-.93-.13Zm.08-.59.94.18a8.43,8.43,0,0,1,1.14.28,13.14,13.14,0,0,1,1.5.5,16.74,16.74,0,0,1,3.77,2,16,16,0,0,1,4,4.07,14.14,14.14,0,0,1,2.28,6.54,7.56,7.56,0,0,1,0,.95c0,.35,0,.58,0,1l-.08.88,0,.45-.11.51a14.56,14.56,0,0,1-1.3,4,14.92,14.92,0,0,1-5.95,6.33,16.59,16.59,0,0,1-4.27,1.65,16.25,16.25,0,0,1-2.31.32,9.15,9.15,0,0,1-1.17,0l-.58,0h-.55c-.07,0,.09,0-.16,0a17.82,17.82,0,0,1-2.13-.33,20,20,0,0,1-2.33-.69,17.65,17.65,0,0,1-4.13-2.26,15.84,15.84,0,0,1-5.45-7.4,14.61,14.61,0,0,1-.82-4.39,15.59,15.59,0,0,1,.07-2.17l0-.26v-.14l0-.17v-.08l.09-.43.17-.85a13.94,13.94,0,0,1,1.6-3.82,14.41,14.41,0,0,1,2.32-2.85,14.86,14.86,0,0,1,5.27-3.13,16.66,16.66,0,0,1,4.39-.87,12.79,12.79,0,0,1,1.61,0c.47,0,.87,0,1.18.06l1,.11Z"/><path class="cls-1" d="M164.24,358.45h-.93a5.82,5.82,0,0,0-1.12.07,7.52,7.52,0,0,0-1.47.28,9.94,9.94,0,0,0-3.55,1.76,11.11,11.11,0,0,0-3.08,3.74,12.8,12.8,0,0,0-1,2.43,14.84,14.84,0,0,0-.49,2.48l-.07.86,0,.44v.08c0,.14,0-.16,0-.12v.26a8.15,8.15,0,0,0,.07,1.39,11.81,11.81,0,0,0,.6,2.78,12.53,12.53,0,0,0,3.16,5.12,11.49,11.49,0,0,0,2.59,1.85,11.17,11.17,0,0,0,3.22,1h.08l.21,0,.41,0a5.63,5.63,0,0,0,.82,0,12.94,12.94,0,0,0,1.65-.1,12.4,12.4,0,0,0,3.16-.95,13.36,13.36,0,0,0,2.74-1.83,12.9,12.9,0,0,0,2.1-2.51,12,12,0,0,0,1.27-2.89l.11-.36.09-.44L175,373c0-.38.14-1,.14-1.48a14.19,14.19,0,0,0-1-5.8,12.51,12.51,0,0,0-2.94-4.26,11,11,0,0,0-3.44-2.21,8.28,8.28,0,0,0-1.43-.48,5.64,5.64,0,0,0-1.11-.23l-.93-.13Zm.08-.59.94.18a8.43,8.43,0,0,1,1.14.28,13.14,13.14,0,0,1,1.5.5,16.74,16.74,0,0,1,3.77,2,16,16,0,0,1,4,4.07,14.14,14.14,0,0,1,2.28,6.54,7.56,7.56,0,0,1,0,.95c0,.35,0,.58,0,1l-.08.88,0,.45-.11.51a14.56,14.56,0,0,1-1.3,4,14.92,14.92,0,0,1-5.95,6.33,16.59,16.59,0,0,1-4.27,1.65,16.25,16.25,0,0,1-2.31.32,9.15,9.15,0,0,1-1.17,0l-.58,0h-.55c-.07,0,.09,0-.16,0a17.82,17.82,0,0,1-2.13-.33,20,20,0,0,1-2.33-.69,17.65,17.65,0,0,1-4.13-2.26,15.84,15.84,0,0,1-5.45-7.4,14.61,14.61,0,0,1-.82-4.39,15.59,15.59,0,0,1,.07-2.17l0-.26v-.14l0-.17v-.08l.09-.43.17-.85a13.94,13.94,0,0,1,1.6-3.82,14.41,14.41,0,0,1,2.32-2.85,14.86,14.86,0,0,1,5.27-3.13,16.66,16.66,0,0,1,4.39-.87,12.79,12.79,0,0,1,1.61,0c.47,0,.87,0,1.18.06l1,.11Z"/><path class="cls-1" d="M445.5,381.41l.63-.68a5.5,5.5,0,0,0,.7-.88,7.45,7.45,0,0,0,.78-1.28,10.09,10.09,0,0,0,1.09-3.8A11.18,11.18,0,0,0,448,370a12.43,12.43,0,0,0-1.16-2.34,14.26,14.26,0,0,0-1.5-2l-.59-.63-.3-.31,0,0,0,0c-.09-.11.11.12.09.09l-.07-.05-.13-.11a8.52,8.52,0,0,0-1.08-.89,11.27,11.27,0,0,0-2.47-1.4,12.6,12.6,0,0,0-5.91-1.06,11.67,11.67,0,0,0-3.11.7,10.92,10.92,0,0,0-1.41.68,12,12,0,0,0-1.51,1l.07-.06,0,0,0,0-.08.07-.15.14-.31.28a4.54,4.54,0,0,0-.58.58,12.76,12.76,0,0,0-1,1.29,12.35,12.35,0,0,0-1.42,3,12.87,12.87,0,0,0-.5,3.26,12.59,12.59,0,0,0,.44,3.24,12.17,12.17,0,0,0,1.28,2.88l.19.32.27.36.53.7.48.53a4.72,4.72,0,0,0,.53.56,13.86,13.86,0,0,0,5,3.1,12.82,12.82,0,0,0,5.15.65,11.37,11.37,0,0,0,3.94-1.09,8.39,8.39,0,0,0,1.32-.75,6.15,6.15,0,0,0,.91-.66l.73-.61Zm.38.46-.76.58c-.24.19-.58.4-1,.65a12.09,12.09,0,0,1-1.38.79,16.69,16.69,0,0,1-4,1.44,16.17,16.17,0,0,1-5.68.23,14.06,14.06,0,0,1-6.39-2.67,8.1,8.1,0,0,1-.74-.6c-.26-.24-.44-.37-.77-.7l-.59-.65-.3-.33-.32-.42a14.9,14.9,0,0,1-2.06-3.64,16.28,16.28,0,0,1-1-4.2,16,16,0,0,1,.31-4.46,16.38,16.38,0,0,1,1.66-4.27,15.85,15.85,0,0,1,1.31-1.92,9.28,9.28,0,0,1,.75-.89l.41-.42.2-.21.1-.11.06-.05,0,0,.12-.1a15.59,15.59,0,0,1,1.67-1.36,19.64,19.64,0,0,1,2.06-1.28,17.75,17.75,0,0,1,4.44-1.56,15.76,15.76,0,0,1,9.15.87,14.38,14.38,0,0,1,3.82,2.33,14.91,14.91,0,0,1,1.57,1.5l.18.19.09.1.12.14,0,0,0,0,.26.36.51.7a13.34,13.34,0,0,1,1.76,3.76,13.89,13.89,0,0,1,.54,3.63,14.67,14.67,0,0,1-1.24,6,16.5,16.5,0,0,1-2.31,3.83,12.73,12.73,0,0,1-1.06,1.22,10.66,10.66,0,0,1-.84.83l-.73.65Z"/><path class="cls-1" d="M159.5,224.53a37,37,0,0,1-.09-3.94c0-1.32.14-2.63.27-4s.37-2.62.7-3.91l.45-1.94.63-1.92a28.83,28.83,0,0,1,1.48-3.7l.38-.91.43-.93.82-1.78c.52-1.18,1.16-2.36,1.58-3.55l.67-1.79a4.19,4.19,0,0,0,.23-.81l.1-.4s.06-.23,0-.08a.47.47,0,0,0,.08.34l-.06-.72a5.41,5.41,0,0,1,.16-.64c.06-.18.13-.37.21-.55a4.91,4.91,0,0,1,.62-1,4.26,4.26,0,0,1,.92-.93,6.13,6.13,0,0,1,1.16-.69l0,0,.23,0c3.29-.79,6.54-1.49,9.86-2.08,1.65-.31,3.31-.59,5-.83s3.34-.52,5-.67,3.33-.38,5.15-.39,3.66-.17,5.31,0l2.48.19,1.24.1.31,0,.52.07.66.12a51,51,0,0,1,5.16,1.11,45.31,45.31,0,0,1,5,1.65A48.66,48.66,0,0,1,221.1,192l2.33,1.3,2.23,1.47a38.37,38.37,0,0,1,4.15,3.39,17.84,17.84,0,0,1,1.87,1.92,21.23,21.23,0,0,1,1.71,2.08,35.43,35.43,0,0,1,2.87,4.51,34.1,34.1,0,0,1,2,4.91,36.26,36.26,0,0,1,1.23,5.09l.84,3.92-4.25-.29-4.7-.32-2.35-.16-.59,0H228l-1.18,0-4.71-.07-1.18,0h-.5l-.59,0-2.36.08-4.71.15-2.35.08-1.18,0-.59,0c-.4,0,.16,0,.06,0s0,0,0,0,0,0,.05-.07.16-.22.13-.36c0,.07-.09.33-.14.49s.11-.55.05-.28v.12l0,.13,0,.27-.14,1.06-.23,2.13c0,.57-.06,1.14-.11,1.73a7.3,7.3,0,0,0,.54,2.89c.19.12.26.25.51.4l.77.48c.6.29,1.16.58,1.84.87l2.17.87,2.14.82,4.38,1.71,8.7,3.41c1.45.56,2.89,1.09,4.33,1.61a41.08,41.08,0,0,0,3.93,1.23l1,.22.35.36a5.78,5.78,0,0,1,.9,1.22,8.47,8.47,0,0,1,.52,1.11,8.83,8.83,0,0,1,.56,2.25c0,.38.1.83.11,1.15v.92a19,19,0,0,1-.19,2.12l-.41,2-.61,1.92c-.19.65-.52,1.24-.77,1.86a12.21,12.21,0,0,1-.94,1.79c-.35.57-.65,1.17-1.05,1.71l-1.22,1.61a38.08,38.08,0,0,1-2.83,3l-1.47,1.19c-.53.41-.88.74-1.57,1.23l-3.07,2.2-1,.69-1-.55c-5.23-2.87-10.43-5.81-15.6-8.75l-7.83-4.3-7.87-4.24q-3.94-2.1-8-4.1c-1.32-.69-2.67-1.31-4-1.91s-2.67-1.29-4.09-1.8-2.8-1.13-4.19-1.6l-4.25-1.51-4.27-1.45c-1.42-.46-2.81-1.06-4.22-1.58l-.16,0V236l-1-11.5Zm.67,0,.88,11.5-.17-.23c1.41.51,2.79,1.07,4.22,1.52l4.28,1.38,4.3,1.34c1.48.44,2.86,1,4.29,1.44s2.8,1.11,4.21,1.66,2.79,1.15,4.16,1.76c2.76,1.18,5.5,2.41,8.22,3.66,10.92,5,21.55,10.52,32.13,16l-1.95.14,3-2.29c.34-.24.92-.77,1.37-1.13l1.44-1.23c.73-.86,1.55-1.59,2.21-2.52l1-1.4c.33-.46.56-1,.85-1.47a8.89,8.89,0,0,0,.74-1.52,15.89,15.89,0,0,0,.61-1.57l.46-1.6.29-1.63c0-.5.12-1.14.1-1.54l0-.91c0-.3-.07-.45-.09-.68a5.34,5.34,0,0,0-.36-1.3,4.87,4.87,0,0,0-.28-.56c-.07-.13-.27-.37-.19-.28l1.35.59a31.4,31.4,0,0,1-5.08-1.35c-1.52-.5-3-1-4.49-1.55l-8.83-3.19L214.47,236l-2.25-.8-2.2-.81a15.82,15.82,0,0,1-4.94-2.8,5.56,5.56,0,0,1-1.17-1.64,7.41,7.41,0,0,1-.5-1.53l0-.2,0-.09-.08-.37v-.07l-.07-.56L203,226c0-.92,0-1.85,0-2.77l.16-2.37.13-1.18,0-.29v-.26l.06-.33c.06-.21.07-.32.16-.61a4.94,4.94,0,0,1,1.56-2.23,5.68,5.68,0,0,1,2.1-1.08,7.1,7.1,0,0,1,1.22-.18l.59,0,1.17-.08,2.36-.14,4.7-.29,2.36-.15.59,0,.68,0,1.17,0,4.71-.1,1.18,0h1.35l2.35.08,4.71.16-3.4,3.63a36,36,0,0,0-1.11-4.14,30,30,0,0,0-1.67-3.91,29.31,29.31,0,0,0-2.38-3.55,13.45,13.45,0,0,0-1.39-1.63,18.41,18.41,0,0,0-1.52-1.54,31.51,31.51,0,0,0-3.38-2.79l-1.86-1.23-1.94-1.12a45.52,45.52,0,0,0-8.45-3.49,44.65,44.65,0,0,0-4.48-1.18l-.56-.12-.15,0-.07,0h0l.19,0h0l-.31,0-1.23-.15-2.47-.3c-1.64-.22-3.07-.16-4.63-.26s-3.19,0-4.78,0-3.24.07-4.88.16-3.26.17-4.89.32c-3.27.23-6.55.62-9.78,1l.26-.08c-.12.08-.3.08-.41.18a1.36,1.36,0,0,0-.39.3,1.85,1.85,0,0,0-.34.43,1.49,1.49,0,0,0-.13.25c-.05.07-.08.21-.1.2l-.06-.71a2.57,2.57,0,0,1,.05.83,1,1,0,0,1-.1.39l-.19.55a6.5,6.5,0,0,1-.42,1l-.92,1.82c-.58,1.25-1.32,2.34-2,3.51l-1,1.72L165,205l-.47.87-.92,1.75a14.41,14.41,0,0,0-.79,1.76l-.72,1.77-.57,1.85a28.24,28.24,0,0,0-.87,3.77,38.07,38.07,0,0,0-.42,3.85,35.7,35.7,0,0,0-.06,3.87Z"/><path class="cls-1" d="M195.64,220.7s0,.09,0,.27a1.47,1.47,0,0,0,.22.73,2.05,2.05,0,0,0,.87.79,4,4,0,0,0,.71.19,3.82,3.82,0,0,0,.76,0c.23-.07.52-.06.6-.21a.63.63,0,0,0,.1-.15c-.07,0,.3,0,.44,0,.33-.05.49-.21.69-.18a6,6,0,0,1,.72,0c.1,0,.33-.11.32,0s.11.16.21-.12l.14-.28.07-.14,0-.07v0h0c.06-.25-.08.32-.07.26a1.56,1.56,0,0,0,.18-1,2.77,2.77,0,0,0-.58-1.13,1.37,1.37,0,0,1-.16-.18l-.08-.12-.26-.11-.53-.23,0,0h0c.07,0-.16,0,.15,0h-.05l-.08,0-.19-.06a4.61,4.61,0,0,0-1.55-.34,7.38,7.38,0,0,0-.81.07c-.23.09-.47.17-.7.27a2.3,2.3,0,0,0-.84.83,1.71,1.71,0,0,0-.27.75l-.06.29v0Zm-.64-.15.11-.27a6.09,6.09,0,0,1,.34-.8,10.38,10.38,0,0,1,.72-1.25,6.53,6.53,0,0,1,1.44-1.45,5,5,0,0,1,2.5-.9l.37,0h.3l.17,0H201l.58.06.3,0,.44.14c.29.1.61.21.9.34a6.51,6.51,0,0,1,2.68,2.34,6.35,6.35,0,0,1,.87,3.79l-.07.31V223l0,.15,0,.31a5,5,0,0,1-.32,1,8,8,0,0,1-1.19,1.95,6.92,6.92,0,0,1-3.61,2.18,6.39,6.39,0,0,1-3.87-.37l-.59-.35a7.59,7.59,0,0,1-.85-.6,4.57,4.57,0,0,1-1-1.29,7.72,7.72,0,0,1-.5-1.31c-.07-.43-.1-.82-.14-1.16a8.74,8.74,0,0,1,.16-1.68,7.68,7.68,0,0,1,.22-.93l.08-.31v0Z"/><path class="cls-1" d="M68.36,381.75c.64.1,1.28.2,1.88.32l1.82.37c1.2.26,2.37.56,3.54.84s2.28.66,3.43.93l1.69.49c.56.16,1.11.37,1.67.51,1.12.3,2.23.62,3.33,1s2.2.6,3.29.94l1.64.51a14.26,14.26,0,0,0,1.65.42q1.64.42,3.3.93l-2.5,2.21c.28-1.53.61-3.06,1-4.59.21-.76.42-1.52.69-2.28a23.73,23.73,0,0,1,.88-2.28c.29.78.51,1.56.72,2.33s.38,1.56.54,2.33c.32,1.55.54,3.09.72,4.64l.26,2.24-2.76,0c-1.26,0-2.54-.07-3.82-.16a17.16,17.16,0,0,1-1.91-.21l-1.85-.39c-.62-.13-1.23-.29-1.85-.44l-.91-.22-.89-.32c-1.18-.4-2.35-.86-3.51-1.33s-2.24-1.09-3.33-1.67c-.55-.31-1.1-.6-1.61-.95s-1-.68-1.55-1a28.56,28.56,0,0,1-3-2.31,17,17,0,0,1-1.37-1.32,13.48,13.48,0,0,1-1.27-1.44Z"/><path class="cls-1" d="M168.11,246.88c.51.52,1,1,1.46,1.57s.94,1.07,1.37,1.62c.89,1.09,1.73,2.2,2.54,3.33l.66.91-1.06,1.27c-1.56,1.85-3.18,3.63-4.84,5.36l.85-2.14c.25,1.47.45,2.93.66,4.4s.38,2.93.53,4.4.26,2.95.39,4.42.23,3,.29,4.43.12,3,.12,4.45c0,.74,0,1.49,0,2.23s0,1.49,0,2.23c0,1.49-.08,3-.19,4.5,0,.75-.13,1.51-.2,2.26s-.18,1.53-.31,2.3c-.31-.71-.61-1.41-.87-2.13s-.54-1.42-.77-2.14c-.49-1.44-.93-2.88-1.33-4.34s-.77-2.91-1.06-4.38-.57-2.93-.82-4.4-.46-2.94-.66-4.42c-.11-.74-.17-1.48-.25-2.22s-.16-1.48-.22-2.22q-.41-4.44-.45-8.93l0-1.47.86-.67c1.9-1.46,3.85-2.88,5.86-4.23l-.41,2.18c-.44-1.32-.84-2.65-1.2-4-.2-.67-.34-1.37-.51-2s-.3-1.4-.42-2.11Z"/><path class="cls-1" d="M186.14,261.72a24.49,24.49,0,0,1,7.74-1.29,25.67,25.67,0,0,1,7.91,1.18c5.16,1.54,9.82,4.31,14.18,7.19,2.18,1.46,4.29,3,6.39,4.5s4.19,3,6.29,4.36a48.23,48.23,0,0,0,13,6.54,23.88,23.88,0,0,0,6.84.95,12.22,12.22,0,0,0,1.71-.06c.56-.07,1.16-.08,1.69-.18,1.28-.2,2.58-.39,3.75-.64,2.39-.46,4.93-1,7.41-1.61s5-1.19,7.6-1.73,5.16-1.05,7.79-1.43c1.32-.21,2.66-.33,4-.49s2.69-.21,4.05-.23,2.71-.06,4.08.07l2,.14,2,.3a34.77,34.77,0,0,1,4,.85c1.34.33,2.63.86,3.93,1.29l-1.7.11c1.34-.63,2.65-1.23,4-1.78s2.68-1.11,4-1.64c2.71-1.05,5.44-2.06,8.25-2.88,1.4-.42,2.82-.8,4.26-1.12a23.78,23.78,0,0,1,4.41-.61,9.63,9.63,0,0,1,2.32.17l.59.18.51.21,1,.42,4,1.71-4.22-1L329,275l-.53-.13-.45-.07a8.49,8.49,0,0,0-2,.16,29.24,29.24,0,0,0-4,1.15c-1.33.47-2.64,1-3.94,1.57-2.59,1.16-5.16,2.37-7.7,3.65q-1.9,1-3.78,2l-3.74,2-.66.36-1.05-.25c-1.18-.28-2.32-.68-3.51-.88a30.69,30.69,0,0,0-3.59-.5l-1.81-.14h-1.83c-1.22-.06-2.45.07-3.67.12s-2.46.26-3.69.37-2.47.35-3.7.59c-2.47.47-4.93,1-7.42,1.57l-7.5,1.83c-2.55.6-5,1.23-7.73,1.71-1.36.27-2.62.44-3.9.64-.74.12-1.44.14-2.16.21a15.59,15.59,0,0,1-2.16.06,29.29,29.29,0,0,1-8.45-1.36,49.5,49.5,0,0,1-14.3-7.84c-4.23-3.19-8.11-6.62-12.11-9.78a75,75,0,0,0-6.09-4.53,46.19,46.19,0,0,0-6.55-3.66,27.79,27.79,0,0,0-7.19-2.1,28.81,28.81,0,0,0-7.65,0Z"/><path class="cls-1" d="M436.44,336.3s.48-.66,1.32-2a53.05,53.05,0,0,0,3.24-5.85,27.6,27.6,0,0,0,1.65-4.42,9.37,9.37,0,0,0,.19-5.2,3.89,3.89,0,0,0-1.62-2l-.3-.17-.16-.08,0,0,.06,0-.09,0s.12,0,.08,0l-.11,0-.29.1a10.56,10.56,0,0,0-1.38.7c-1.9,1.11-3.84,2.5-5.86,3.94-4,2.9-8.34,6.16-13.06,9.44a84.16,84.16,0,0,1-7.55,4.77,19.75,19.75,0,0,1-4.57,1.92,5.94,5.94,0,0,1-1.64.16l-1.15-.1c-.75,0-1.56-.15-2.39-.27-6.43-1-12.57-2.87-18.9-4.52l-9.53-2.56-9.61-2.67c-3.22-.86-6.42-1.79-9.6-2.72s-6.38-1.79-9.52-2.77l-9.32-2.9-2.21-.71c-.76-.23-1.55-.5-2.21-.65-1.35-.35-2.82-.7-4.26-.93a70.42,70.42,0,0,0-17.09-.65,140.08,140.08,0,0,0-15.59,2.19c-4.83.92-9.26,1.95-13.2,2.83s-7.38,1.7-10.23,2.32-5.1,1.07-6.64,1.34l-2.37.42-.15-.57,8.58-3.17c2.73-1,6-2.24,9.89-3.57s8.21-2.75,13.07-4.1A112.17,112.17,0,0,1,310,310.61a64.15,64.15,0,0,1,18.69.17,42.66,42.66,0,0,1,4.93,1.1c.87.22,1.58.48,2.34.72l2.34.79,9.1,3.26c3.06,1.12,6.18,2.14,9.3,3.2s6.27,2.11,9.43,3.1l9.46,3,9.44,2.9c6.24,1.89,12.39,3.94,18.26,5,.71.13,1.43.26,2.21.33l1.15.13a3.17,3.17,0,0,0,.64-.06,17.43,17.43,0,0,0,3.83-1.47c2.58-1.3,5.07-2.81,7.48-4.3,4.8-3,9.26-6.06,13.45-8.78,2.1-1.36,4.11-2.66,6.18-3.75a13.08,13.08,0,0,1,1.65-.74l.5-.13.3,0a2.28,2.28,0,0,1,.5,0l.09,0,.16.06.05,0,.2.11a4.25,4.25,0,0,1,.39.25,5.2,5.2,0,0,1,2.11,2.84,10.34,10.34,0,0,1-.38,6,28.6,28.6,0,0,1-1.9,4.51,52.87,52.87,0,0,1-3.54,5.81c-.89,1.28-1.42,1.94-1.42,1.94l-.47-.36Z"/><path class="cls-1" d="M350.71,262.21s-.07.69-.26,1.9-.54,2.92-1.06,4.95c-.24,1-.56,2.11-.9,3.28s-.76,2.35-1.2,3.6-.92,2.53-1.52,3.78-1.15,2.56-1.81,3.82-1.28,2.54-1.92,3.8a24.83,24.83,0,0,1-2.14,3.54,19.12,19.12,0,0,1-2.58,2.9c-.43.43-.88.84-1.31,1.23s-.9.71-1.35,1a23.5,23.5,0,0,1-2.46,1.65c-.79.42-1.49.77-2.08,1a16.82,16.82,0,0,1-1.91.73l-.39-.44a20.26,20.26,0,0,1,.86-1.85c.28-.56.65-1.21,1.08-1.93s.87-1.57,1.41-2.42,1.14-1.76,1.75-2.73,1.33-1.91,2.05-2.91,1.63-1.91,2.46-2.93a34.61,34.61,0,0,0,2.46-3.13c.79-1.08,1.51-2.2,2.21-3.32s1.37-2.24,2-3.32c1.25-2.2,2.4-4.29,3.28-6.13s1.55-3.41,2-4.51.69-1.76.69-1.76l.58.14Z"/><path class="cls-1" d="M261.81,351.17s0,0,0,0Zm.14,0-.05,0h-.07l-.12,0-.24-.05L261,351l-1.85-.35c-1.23-.24-2.46-.5-3.68-.77-2.44-.55-4.88-1.13-7.3-1.77q-7.25-1.92-14.32-4.43c-4.71-1.66-9.34-3.54-13.9-5.54s-9-4.22-13.37-6.62a148.77,148.77,0,0,1-24.48-16.74c-3.76-3.2-7.3-6.62-10.73-10.14q-2.56-2.64-5-5.36c-1.64-1.83-3.29-3.65-4.86-5.54l-4.18-5.05-1,6.25-.3,1.91-.27,1.87c-.16,1.25-.33,2.5-.43,3.76-.2,2.52-.37,5-.33,7.57a51.2,51.2,0,0,0,.57,7.61,32.22,32.22,0,0,0,.84,3.75c.19.62.4,1.23.64,1.82a17.34,17.34,0,0,0,.85,1.73l.56-.21a21,21,0,0,1-.32-3.61c0-1.2,0-2.4.12-3.6s.21-2.4.37-3.6.32-2.38.51-3.58c.42-2.37.82-4.75,1.35-7.12l.24-1.11c.36.41.7.84,1.07,1.25,1.7,1.93,3.49,3.78,5.33,5.57a128.9,128.9,0,0,0,11.73,9.94,161.2,161.2,0,0,0,26,16.05q6.84,3.38,13.93,6.14c4.72,1.86,9.53,3.46,14.38,4.88s9.77,2.64,14.71,3.65c2.47.51,5,1,7.45,1.34,1.25.19,2.49.37,3.74.53l1.88.23h0v.07l.48,0,.23,0h.1v0h0a0,0,0,0,1,0,0h.09s0,0,.23-.06c0-1.11-.11-.36-.11-.59Z"/><path class="cls-1" d="M261.74,351.82h0s0,0,0,0Z"/><path class="cls-1" d="M104.23,303a21.66,21.66,0,0,0-2.4.83,14.45,14.45,0,0,0-2.51,1.27,3.92,3.92,0,0,0-1.12,1,.81.81,0,0,0-.12.94,7.79,7.79,0,0,0,3,2.23,34,34,0,0,0,4.45,1.84c3.23,1.08,6.78,2.06,10.38,2.92,1.8.43,3.62.79,5.42,1.12s3.57.66,5.26,1.07a77.55,77.55,0,0,1,9.08,3c1.32.51,2.51,1,3.57,1.5s2,.92,2.72,1.32c1.5.77,2.34,1.32,2.34,1.32l-.14.57s-1,.13-2.67.18c-.85,0-1.87,0-3,0s-2.47-.12-3.89-.25-2.93-.34-4.53-.59-3.28-.6-5-1c-3.41-.93-6.92-2.37-10.5-3.63-1.78-.64-3.56-1.3-5.31-2s-3.44-1.46-5.06-2.25a31.61,31.61,0,0,1-4.58-2.68,12.34,12.34,0,0,1-1-.81,7.82,7.82,0,0,1-.92-.85l-.39-.41a4.08,4.08,0,0,1-.46-.56,4.12,4.12,0,0,1-.65-1.31,2.62,2.62,0,0,1,0-1.59,3,3,0,0,1,.73-1.19,5.82,5.82,0,0,1,1.75-1.17,13.82,13.82,0,0,1,3-.94,23.31,23.31,0,0,1,2.59-.4l.11.58Z"/><path class="cls-1" d="M104.92,317.26a17,17,0,0,0-2.08.91,13,13,0,0,0-2.15,1.36c-.74.57-1.41,1.47-1.1,2.13a2.61,2.61,0,0,0,.9,1.09,9.46,9.46,0,0,0,1.6,1.09,28.41,28.41,0,0,0,4,1.72,95.26,95.26,0,0,0,9.34,2.55c1.63.33,3.26.67,4.89.93s3.22.53,4.74.87,3,.73,4.38,1.13,2.68.84,3.88,1.24,2.29.81,3.26,1.18,1.81.73,2.5,1c1.37.61,2.15,1.05,2.15,1.05l-.09.46s-.88.12-2.39.16c-.76,0-1.67,0-2.71,0s-2.22-.08-3.49-.19-2.64-.24-4.08-.45-3-.48-4.5-.82-3.12-.84-4.71-1.37l-4.83-1.59c-1.62-.53-3.24-1.09-4.82-1.68s-3.12-1.26-4.59-2a27.3,27.3,0,0,1-4.12-2.41,11.75,11.75,0,0,1-1.69-1.52A4.27,4.27,0,0,1,98,322a2.8,2.8,0,0,1,.62-2.31,5.1,5.1,0,0,1,1.41-1.2,11.32,11.32,0,0,1,2.54-1.13,16.41,16.41,0,0,1,2.28-.59l.12.45Z"/><path class="cls-1" d="M103.45,330.11a10.06,10.06,0,0,0-1.52,1,8.37,8.37,0,0,0-1.46,1.38,2.7,2.7,0,0,0-.74,2.1,1.66,1.66,0,0,0,.17.55,1.74,1.74,0,0,0,.35.53l.21.27a2.34,2.34,0,0,0,.26.24,4.36,4.36,0,0,0,.62.54,15.24,15.24,0,0,0,2.9,1.66,31.67,31.67,0,0,0,3.52,1.29c1.22.38,2.49.72,3.78,1s2.57.58,3.86.8,2.55.45,3.76.72,2.39.56,3.48.89,2.15.63,3.11.94,1.83.62,2.6.9,1.45.55,2,.79c1.11.46,1.73.78,1.73.78l-.06.35a37.64,37.64,0,0,1-6.83,0c-1-.07-2.1-.2-3.25-.36s-2.36-.38-3.6-.65-2.49-.67-3.76-1.1-2.57-.84-3.85-1.3-2.57-.94-3.82-1.47a33.28,33.28,0,0,1-3.6-1.75,14.45,14.45,0,0,1-3.14-2.29,5.09,5.09,0,0,1-1.71-3.25,4.43,4.43,0,0,1,.11-.9,5.4,5.4,0,0,1,.33-.77,5.26,5.26,0,0,1,.9-1.13,8,8,0,0,1,1.79-1.29,10.34,10.34,0,0,1,1.71-.78l.15.32Z"/><path class="cls-1" d="M113.87,306.5a5.35,5.35,0,1,1,5.47-5.35,5.41,5.41,0,0,1-5.47,5.35Zm20.77,7.05S126,296.6,116.87,294.37l0,.06a7.82,7.82,0,0,0-7.9,2.65c-3.1,3.85-1.23,8.25,2,11.16,4,3.61,9.28,3.72,14.31,5a51.26,51.26,0,0,1,11.18,4.55l-1.82-4.24Z"/><path class="cls-1" d="M85.57,336c1.7,1.33,3.35,2.72,5,4.09s3.3,2.77,4.94,4.16,3.2,2.86,4.88,4.23c.83.68,1.69,1.34,2.48,2.07a20.31,20.31,0,0,1,2.19,2.35l-1.14-.65c.37.13.86.26,1.3.38s.91.24,1.37.37l2.8.74,2.86.74c.48.15,1,.25,1.46.39s1,.28,1.48.44v.48a21,21,0,0,1-3,.83l-1.53.26c-.51.08-1,.1-1.54.15a24.8,24.8,0,0,1-3.11.08c-.52,0-1,0-1.56-.08s-1-.1-1.61-.19l-.48-.07-.67-.58a20.28,20.28,0,0,1-2.3-2.24c-.71-.8-1.35-1.67-2-2.52-1.33-1.7-2.75-3.32-4.12-5s-2.73-3.33-4.06-5-2.68-3.37-4-5.1l.34-.33Z"/><path class="cls-1" d="M64.28,297a30.29,30.29,0,0,0-3.13-1.52l-4.82,3.34a28.12,28.12,0,0,0,.4,3.29L64.28,297Z"/><path class="cls-1" d="M92,338.34c-1.37-2.83-3-6.13-4.74-9.61s-3.77-7.15-5.74-10.81c-1-1.83-1.88-3.73-2.73-5.62A33.12,33.12,0,0,0,75.94,307a24.91,24.91,0,0,0-3.73-4.22,36.73,36.73,0,0,0-3.85-3.19l-10.51,7.11a37,37,0,0,0,1.82,4.74,25,25,0,0,0,2.81,4.86,34.91,34.91,0,0,0,4.18,4.38c1.53,1.41,3.06,2.87,4.49,4.4,2.87,3,5.67,6.14,8.48,8.91s5.4,5.39,7.66,7.6l2.11,2L93.2,341,92,338.34Z"/><path class="cls-1" d="M240,220a25.11,25.11,0,0,1,1,3.36,33.43,33.43,0,0,1,.64,3.58c.15,1.32.29,2.75.31,4.19,0,.72,0,1.44,0,2.16a16,16,0,0,1-.1,2.09,12.17,12.17,0,0,1-.39,1.91,11.4,11.4,0,0,1-.54,1.65,11.53,11.53,0,0,1-1.13,2.31c-.33.52-.55.8-.55.8l-.21-.1s0-.38,0-1c0-.32,0-.7.06-1.12s0-.91.08-1.42.1-1.05.15-1.63.14-1.18.2-1.81.23-1.25.32-1.91.21-1.32.27-2a39,39,0,0,0,.19-4c0-1.28,0-2.49-.12-3.53a33.45,33.45,0,0,0-.39-3.43L240,220Z"/></g></svg>