<svg xmlns="http://www.w3.org/2000/svg" viewBox="0 0 600 480"><defs><style>.cls-1{fill:#fcdd17;}.cls-2{fill:#fcdd18;}</style></defs><title>Kids</title><g id="Ebene_1" data-name="Ebene 1"><g id="Kids"><path class="cls-1" d="M320.66,126.06a7.77,7.77,0,0,0-1.05,4.92q0,36.36,0,72.72c0,5.23-.66,5.91-5.9,5.92-15.12,0-30.24,0-45.37,0-3.8,0-3.91.19-2.82,3.89Q277,252.26,288.41,291a15.92,15.92,0,0,1,.64,2.71,2.08,2.08,0,0,1-1.51,2.41,2.12,2.12,0,0,1-2.61-1.14,9.71,9.71,0,0,1-.78-2q-11.64-39.33-23.28-78.65c-.48-1.6-.28-4-2.32-4.42a19.36,19.36,0,0,0-8,0c-.81.16-1,1-1.08,1.71,0,1-.06,2.07-.06,3.11q0,38.22,0,76.45c0,2,.83,5.17-2.24,5.24-3.35.07-2.16-3.22-2.16-5.11-.08-25.69-.05-51.38-.06-77.07,0-4.61,0-4.59-4.69-4.62-6.84,0-5.61.05-7.16,5.28Q221.89,252.43,210.83,290c-.36,1.2-.73,2.38-1.1,3.57-.5,1.61-1.27,3-3.27,2.37s-1.58-2.16-1.15-3.63l6.14-20.87q8.53-28.91,17.05-57.81c1.13-3.83,1-4-3.1-4H180.34c-5.13,0-5.63-.53-5.63-5.73v-143c0-5.37.09-5.46,5.32-5.46H314c5.29,0,5.62.33,5.62,5.65,0,10.36.06,20.72,0,31.08a7,7,0,0,0,2.6,6c9.67,8.12,19.27,16.32,28.9,24.49.91.78,1.77,1.44,3,.55s1-2,.51-3.28a24.33,24.33,0,0,1,1.52-22.68c3.94-6.67,9.83-10.44,17.85-9.36,7.23,1,11.92,5.56,14.6,12.08,3.06,7.46,3,15-1,22.19-1.4,2.56-1.12,3.48,1.89,3.91,7.17,1,11.84,5.2,14.73,11.84,6.41,14.71,13.05,29.33,19.61,44,2.46,5.48,1.85,9.78-1.88,12.65a9.91,9.91,0,0,1-15-3c-2.63-4.81-4.8-9.87-7.23-14.79-.55-1.11-.76-2.83-2.68-2.43s-1.67,2.14-1.61,3.51q1.16,27,2.38,54c.45,10.23.92,20.47,1.32,30.7.29,7.14.56,14.28.7,21.42.12,6.21-3.12,9.76-9.15,10.3-6.38.56-11.09-2.79-12-8.7-2-13.2-3.83-26.42-5.73-39.64-.09-.61-.16-1.24-.3-1.84-.27-1.08-.8-1.91-2.09-1.9s-1.72.87-1.91,2c-1,5.92-2.07,11.83-3.06,17.76-1.34,8.06-2.61,16.15-4,24.21-1,5.89-4.63,8.7-10.43,8.14s-9.51-4.14-9.28-9.92c.68-17.37,1.54-34.73,2.33-52.1.23-5.17.37-10.34.63-15.51.85-16.84.85-33.75,2.3-50.54.68-7.89-1.34-13.3-7.05-18.47-6.2-5.61-11.61-12.09-17.32-18.23A26.92,26.92,0,0,1,320.66,126.06Zm-6-34.47c0-9.79,0-18.57,0-27.35,0-4.26,0-4.29-4.37-4.29H183.51c-4.3,0-4.32,0-4.32,4.31V186.67c0,4.35,0,4.38,4.27,4.38H310.22c4.41,0,4.42,0,4.42-4.59,0-20.09-.09-40.18.09-60.27a12.08,12.08,0,0,0-3.8-9.34c-6-6-11.79-12.21-17.69-18.32-2.26-2.35-3.72-5-3.1-8.37,1.36-7.57,10.3-10.56,16.52-5.49C309.12,86.68,311.47,88.83,314.65,91.59ZM371,198.4c5.7,0,11.39,0,17.09,0,3.51,0,3.52-.28,3.33-3.79-.6-11-1.07-22.11-1.52-33.17-.08-2,.16-4.21,2.56-4.75s3.44,1.41,4.45,3.13c.32.53.58,1.1.85,1.66,2.73,5.81,5.44,11.63,8.21,17.42,1.7,3.55,3.35,7.13,5.29,10.55a5,5,0,0,0,7,1.87c2.34-1.36,3-3.61,1.77-6.41-6.69-15.05-13.48-30-20.06-45.13-2.43-5.58-6.4-8.65-12.4-9.42-4.56-.58-5-.42-6.43,4-1.76,5.63-3,11.42-5.78,16.7-.94,1.81-2.14,3.33-4.46,3.34s-3.48-1.52-4.48-3.31c-2.2-3.93-3.21-8.29-4.46-12.55a5.64,5.64,0,0,0-2.08-3.33c-10.85-7.64-20.69-16.53-30.79-25.1-8.52-7.23-16.93-14.59-25.46-21.81-2.67-2.25-5.77-2-7.76.3-1.65,1.91-1.38,4.61.86,6.95,17.13,18,34.18,36.07,51.57,53.81,2.79,2.85,3.87,5.45,3.71,9.16-.51,12.09-.85,24.19-1.36,36.29-.11,2.71.86,3.68,3.57,3.61C359.78,198.3,365.38,198.4,371,198.4Zm24.48,84.22c-.2-2.27-.51-4.53-.6-6.8-.69-16.86-1.3-33.71-2-50.57-.28-6.51-.81-13-1.09-19.52-.09-2.16-1-2.87-3.07-2.86q-17.87.07-35.73,0c-1.92,0-2.8.67-2.88,2.7-.58,14.26-1.24,28.53-1.86,42.79-.46,10.55-.88,21.1-1.34,31.64a41.28,41.28,0,0,0-.34,4.94c.22,2.92,2.41,4.52,6,4.64,2.81.1,4.05-1.44,4.46-4.1.93-5.93,2-11.84,3-17.76q4-23.9,8.09-47.78c.28-1.65.67-3.56,2.71-3.68,2.24-.14,2.72,1.83,3.14,3.58.1.4.21.81.27,1.22Q377,241,379.93,261q1.72,11.84,3.5,23.65c.29,1.92.93,3.84,3.07,4.25C392.27,290,396,289.17,395.45,282.62ZM246.75,204.7H279q16,0,32,0c1.18,0,2.55.35,3.33-1a5,5,0,0,0-4.44-7.65h-126c-.93,0-1.86,0-2.79.07-.63,0-1.36.2-1.53.85a11.05,11.05,0,0,0,0,6.71c.67,1.81,2.72,1,4.18,1Q215.23,204.73,246.75,204.7ZM371.9,128.05c6.9-.15,14.31-8.44,13.91-15.51a1.57,1.57,0,0,0-1.47-1.64,21.89,21.89,0,0,1-8.47-3.71,2.45,2.45,0,0,0-2.64-.14,21,21,0,0,1-13,1.57c-1.37-.28-2.37,0-2.69,1.67C356,118.35,363.93,128.21,371.9,128.05Zm13.94-21.47a21.54,21.54,0,0,0-3-7.59c-3-4.34-6.91-7.28-12.47-6.65s-9.06,4.16-11.27,9.1c-.46,1-.83,2.14.75,2.39,4.12.66,8.35,1.26,11.92-1.57,2.29-1.81,3.94-1.47,6,.36A16.39,16.39,0,0,0,385.84,106.58Zm-14.95,42.61a79.22,79.22,0,0,0,5.52-15.48c.3-1.11-.37-1.59-1.39-1.38a19.66,19.66,0,0,1-8-.3c-1-.2-2.08-.26-1.67,1.27C366.78,138.68,368.2,144.06,370.89,149.19Z"/></g><path class="cls-1" d="M203.73,147h-7.4V111.77h7.4v14.65l9.15-14.65h8.67l-11.48,17.45L222.24,147h-8.83l-9.68-14.65Z"/><path class="cls-1" d="M232.59,147h-7.4V111.77h7.4Z"/><path class="cls-1" d="M253.69,111.77c3.91,0,6.29.74,8.09,2.54s2.48,4.07,2.48,8.09v14c0,4-.68,6.3-2.48,8.09S257.6,147,253.69,147H238.2V111.77Zm-8.09,28.56h7c3.49,0,4.23-.74,4.23-4.23V122.72c0-3.49-.74-4.23-4.23-4.23h-7Z"/><path class="cls-1" d="M276.63,137.84c.43,2,1.22,2.49,4.23,2.49h2.7c3.28,0,4.23-.8,4.23-3.55v-.47c0-2.75-1-3.54-4.23-3.54h-3.75c-3.92,0-6.35-.75-8.09-2.54a10,10,0,0,1-2.49-7v-2a10,10,0,0,1,2.49-7c1.74-1.8,4.12-2.54,8.09-2.54h4.91c6.88,0,9.79,2.33,10.58,8.52l-7.4.68c-.43-2-1.22-2.48-4.23-2.48H281c-3.28,0-4.23.79-4.23,3.54v.48c0,2.75.95,3.54,4.23,3.54h3.75c3.92,0,6.35.74,8.09,2.54a10,10,0,0,1,2.49,7v2a10,10,0,0,1-2.49,7c-1.74,1.8-4.12,2.54-8.09,2.54h-4.91c-6.88,0-9.79-2.33-10.58-8.51Z"/><path class="cls-2" d="M229.93,378.92a35.61,35.61,0,1,0-25.84,0c-11.34,4.61-20.51,15.12-24,28.64l4.84,1.26c4.23-16.17,17.44-27.47,32.12-27.47s27.9,11.3,32.13,27.47l4.84-1.26C250.44,394,241.28,383.53,229.93,378.92ZM186.4,345.74A30.61,30.61,0,1,1,217,376.35,30.65,30.65,0,0,1,186.4,345.74Z"/><path class="cls-2" d="M312.92,378.92a35.61,35.61,0,1,0-25.84,0c-11.35,4.61-20.51,15.12-24,28.64l4.84,1.26c4.22-16.17,17.43-27.47,32.12-27.47s27.9,11.3,32.12,27.47l4.84-1.26C333.43,394,324.27,383.53,312.92,378.92Zm-43.53-33.18A30.61,30.61,0,1,1,300,376.35,30.64,30.64,0,0,1,269.39,345.74Z"/><path class="cls-2" d="M395.91,378.92a35.61,35.61,0,1,0-25.84,0C358.72,383.53,349.56,394,346,407.56l4.84,1.26c4.23-16.17,17.44-27.47,32.13-27.47s27.9,11.3,32.12,27.47l4.84-1.26C416.42,394,407.26,383.53,395.91,378.92Zm-43.53-33.18A30.61,30.61,0,1,1,383,376.35,30.64,30.64,0,0,1,352.38,345.74Z"/></g></svg>