<svg xmlns="http://www.w3.org/2000/svg" viewBox="0 0 600 480"><defs><style>.cls-1{fill:#fcdd17;}.cls-2{fill:#fcdd18;}</style></defs><title>Kids</title><g id="Ebene_1" data-name="Ebene 1"><g id="Kids"><path class="cls-1" d="M320.66,109.74a7.81,7.81,0,0,0-1.05,4.93q0,36.36,0,72.72c0,5.22-.66,5.91-5.9,5.92q-22.68,0-45.37,0c-3.8,0-3.91.2-2.82,3.9Q277,236,288.41,274.68a16.15,16.15,0,0,1,.64,2.71,2.07,2.07,0,0,1-1.51,2.41,2.1,2.1,0,0,1-2.61-1.14,9.41,9.41,0,0,1-.78-2Q272.51,237.32,260.87,198c-.48-1.59-.28-4-2.32-4.41a19.53,19.53,0,0,0-8,0c-.81.17-1,1-1.08,1.72,0,1-.06,2.07-.06,3.1q0,38.24,0,76.45c0,2,.83,5.18-2.24,5.24-3.35.08-2.16-3.21-2.16-5.1-.08-25.69-.05-51.38-.06-77.07,0-4.61,0-4.6-4.69-4.62-6.84,0-5.61,0-7.16,5.28q-11.16,37.52-22.22,75.07c-.36,1.19-.73,2.38-1.1,3.57-.5,1.61-1.27,3-3.27,2.36s-1.58-2.15-1.15-3.63q3.08-10.43,6.14-20.86,8.53-28.91,17.05-57.82c1.13-3.82,1-4-3.1-4q-22.53,0-45.06,0c-5.13,0-5.63-.53-5.63-5.72v-143c0-5.37.09-5.47,5.32-5.47H314c5.29,0,5.62.34,5.62,5.66,0,10.36.06,20.72,0,31.07a7,7,0,0,0,2.6,6c9.67,8.13,19.27,16.32,28.9,24.5.91.77,1.77,1.44,3,.54s1-2,.51-3.27a24.33,24.33,0,0,1,1.52-22.68c3.94-6.68,9.83-10.44,17.85-9.36,7.23,1,11.92,5.56,14.6,12.07,3.06,7.47,3,15-1,22.19-1.4,2.57-1.12,3.48,1.89,3.91,7.17,1,11.84,5.2,14.73,11.84,6.41,14.72,13.05,29.34,19.61,44,2.46,5.48,1.85,9.78-1.88,12.65a9.9,9.9,0,0,1-15-3c-2.63-4.81-4.8-9.87-7.23-14.79-.55-1.11-.76-2.83-2.68-2.42s-1.67,2.13-1.61,3.51q1.16,27,2.38,54c.45,10.23.92,20.46,1.32,30.7.29,7.14.56,14.27.7,21.41.12,6.22-3.12,9.76-9.15,10.3-6.38.57-11.09-2.79-12-8.69-2-13.21-3.83-26.43-5.73-39.64-.09-.62-.16-1.24-.3-1.84-.27-1.08-.8-1.91-2.09-1.91s-1.72.88-1.91,2c-1,5.92-2.07,11.83-3.06,17.75-1.34,8.07-2.61,16.15-4,24.22-1,5.89-4.63,8.69-10.43,8.14s-9.51-4.15-9.28-9.93c.68-17.37,1.54-34.73,2.33-52.09.23-5.17.37-10.34.63-15.51.85-16.84.85-33.75,2.3-50.54.68-7.89-1.34-13.3-7.05-18.48-6.2-5.61-11.61-12.08-17.32-18.22A26.4,26.4,0,0,1,320.66,109.74Zm-6-34.46c0-9.79,0-18.57,0-27.36,0-4.25,0-4.28-4.37-4.28H183.51c-4.3,0-4.32,0-4.32,4.3V170.35c0,4.36,0,4.39,4.27,4.39H310.22c4.41,0,4.42,0,4.42-4.58,0-20.09-.09-40.19.09-60.28a12.06,12.06,0,0,0-3.8-9.33c-6-6-11.79-12.22-17.69-18.33-2.26-2.34-3.72-5-3.1-8.36,1.36-7.57,10.3-10.57,16.52-5.5C309.12,70.37,311.47,72.52,314.65,75.28ZM371,182.09c5.7,0,11.39,0,17.09,0,3.51,0,3.52-.29,3.33-3.8-.6-11.05-1.07-22.11-1.52-33.16-.08-2,.16-4.21,2.56-4.75s3.44,1.41,4.45,3.13a18.49,18.49,0,0,1,.85,1.66c2.73,5.8,5.44,11.62,8.21,17.42,1.7,3.54,3.35,7.13,5.29,10.54a5,5,0,0,0,7,1.87c2.34-1.35,3-3.61,1.77-6.41-6.69-15-13.48-30-20.06-45.13-2.43-5.57-6.4-8.65-12.4-9.42-4.56-.58-5-.41-6.43,4-1.76,5.62-3,11.42-5.78,16.7-.94,1.81-2.14,3.33-4.46,3.34s-3.48-1.53-4.48-3.31c-2.2-3.93-3.21-8.29-4.46-12.56a5.64,5.64,0,0,0-2.08-3.32c-10.85-7.64-20.69-16.53-30.79-25.1-8.52-7.24-16.93-14.59-25.46-21.81-2.67-2.25-5.77-2-7.76.3-1.65,1.91-1.38,4.61.86,7,17.13,18,34.18,36.07,51.57,53.8,2.79,2.86,3.87,5.46,3.71,9.17-.51,12.09-.85,24.19-1.36,36.28-.11,2.72.86,3.69,3.57,3.62C359.78,182,365.38,182.09,371,182.09Zm24.48,84.21c-.2-2.26-.51-4.53-.6-6.8-.69-16.85-1.3-33.71-2-50.56-.28-6.51-.81-13-1.09-19.52-.09-2.16-1-2.87-3.07-2.86q-17.87.06-35.73,0c-1.92,0-2.8.68-2.88,2.7-.58,14.27-1.24,28.53-1.86,42.8-.46,10.55-.88,21.09-1.34,31.64a41.28,41.28,0,0,0-.34,4.94c.22,2.91,2.41,4.52,6,4.64,2.81.09,4.05-1.45,4.46-4.1.93-5.93,2-11.85,3-17.77q4-23.88,8.09-47.77c.28-1.65.67-3.56,2.71-3.68,2.24-.14,2.72,1.82,3.14,3.58.1.4.21.8.27,1.21q2.88,20,5.77,40,1.72,11.82,3.5,23.65c.29,1.92.93,3.84,3.07,4.25C392.27,273.7,396,272.85,395.45,266.3Zm-148.7-77.91H279q16,0,32,0c1.18,0,2.55.35,3.33-1a5,5,0,0,0-4.44-7.65h-126c-.93,0-1.86,0-2.79.08-.63,0-1.36.2-1.53.85a11.05,11.05,0,0,0,0,6.71c.67,1.8,2.72,1,4.18,1Q215.23,188.42,246.75,188.39ZM371.9,111.73c6.9-.14,14.31-8.44,13.91-15.5a1.58,1.58,0,0,0-1.47-1.65,21.87,21.87,0,0,1-8.47-3.7,2.45,2.45,0,0,0-2.64-.14,20.87,20.87,0,0,1-13,1.56c-1.37-.27-2.37,0-2.69,1.68C356,102,363.93,111.9,371.9,111.73Zm13.94-21.47a21.48,21.48,0,0,0-3-7.58c-3-4.34-6.91-7.28-12.47-6.65s-9.06,4.15-11.27,9.1c-.46,1-.83,2.13.75,2.39,4.12.65,8.35,1.26,11.92-1.58,2.29-1.81,3.94-1.46,6,.37A16.3,16.3,0,0,0,385.84,90.26Zm-14.95,42.62a79.69,79.69,0,0,0,5.52-15.48c.3-1.11-.37-1.59-1.39-1.38a19.49,19.49,0,0,1-8-.31c-1-.2-2.08-.26-1.67,1.28C366.78,122.36,368.2,127.75,370.89,132.88Z"/></g><path class="cls-1" d="M203.73,130.73h-7.4V95.46h7.4v14.65l9.15-14.65h8.67l-11.48,17.45,12.17,17.82h-8.83l-9.68-14.65Z"/><path class="cls-1" d="M232.59,130.73h-7.4V95.46h7.4Z"/><path class="cls-1" d="M253.69,95.46c3.91,0,6.29.74,8.09,2.54s2.48,4.07,2.48,8.09v14c0,4-.68,6.29-2.48,8.09s-4.18,2.54-8.09,2.54H238.2V95.46ZM245.6,124h7c3.49,0,4.23-.74,4.23-4.23V106.41c0-3.49-.74-4.23-4.23-4.23h-7Z"/><path class="cls-1" d="M276.63,121.53c.43,2,1.22,2.48,4.23,2.48h2.7c3.28,0,4.23-.79,4.23-3.54V120c0-2.75-1-3.54-4.23-3.54h-3.75c-3.92,0-6.35-.74-8.09-2.54a10,10,0,0,1-2.49-7v-2a10,10,0,0,1,2.49-7c1.74-1.8,4.12-2.54,8.09-2.54h4.91c6.88,0,9.79,2.33,10.58,8.51l-7.4.69c-.43-2-1.22-2.48-4.23-2.48H281c-3.28,0-4.23.79-4.23,3.54v.47c0,2.75.95,3.55,4.23,3.55h3.75c3.92,0,6.35.74,8.09,2.53a10,10,0,0,1,2.49,7v2a10,10,0,0,1-2.49,7c-1.74,1.8-4.12,2.54-8.09,2.54h-4.91c-6.88,0-9.79-2.33-10.58-8.51Z"/><path class="cls-2" d="M232.82,375.83A35.6,35.6,0,1,0,207,376c-11.25,4.66-20.33,15.12-23.84,28.56l-.81,3.13h75.56l-.82-3.13C253.52,391,244.26,380.4,232.82,375.83Zm-43.74-33.09a30.61,30.61,0,1,1,30.61,30.61A30.64,30.64,0,0,1,189.08,342.74Zm-.15,59.95c5-14.48,17.46-24.34,31.18-24.34s26.15,9.86,31.17,24.34Z"/><path class="cls-2" d="M315.81,375.83A35.61,35.61,0,1,0,290,376c-11.26,4.66-20.33,15.12-23.84,28.56l-.82,3.13h75.56l-.82-3.13C336.5,391,327.25,380.4,315.81,375.83Zm-43.75-33.09a30.61,30.61,0,1,1,30.61,30.61A30.64,30.64,0,0,1,272.06,342.74Zm-.14,59.95c5-14.48,17.45-24.34,31.17-24.34s26.15,9.86,31.18,24.34Z"/><path class="cls-2" d="M423,404.56c-3.55-13.6-12.8-24.16-24.25-28.73A35.6,35.6,0,1,0,373,376c-11.25,4.66-20.32,15.12-23.83,28.56l-.82,3.13h75.56Zm-68-61.82a30.61,30.61,0,1,1,30.61,30.61A30.64,30.64,0,0,1,355.05,342.74Zm-.15,59.95c5-14.48,17.46-24.34,31.18-24.34s26.15,9.86,31.17,24.34Z"/></g></svg>