<svg id="Ebene_1" data-name="Ebene 1" xmlns="http://www.w3.org/2000/svg" viewBox="0 0 600 480"><defs><style>.cls-1{fill:#fcdd18;}</style></defs><title>neu_Raum</title><path class="cls-1" d="M99.11,141.69,146.27,114c15.75-9.26,31.66-18.44,47.51-27.68s31.74-18.49,47.7-27.66L289.37,31.1l1.05-.6,1.08.6,48.64,27.15L364.4,71.92l24.23,13.75L485.36,141l.51.3v.57l-.2,48.61c-.06,16.2,0,32.4,0,48.61s0,32.4.18,48.6l.36,48.61V337l-.68.4-47.47,28.11-47.55,28-95.21,55.75-1.27.75-1.28-.75L244,421.17l-48.66-28.23-48.6-28.34L98.25,336.12l-1.08-.64v-1.22l.29-48.35L98,237.67l.52-48.09Zm.43.25.63,48.34.52,48.13.48,48,.3,47.87-1.07-1.85,48.84,27.92L198,388.39l48.7,28.17,48.62,28.31h-2.56l95.61-55.07,47.87-27.43,47.94-27.3-.68,1.18.35-48.61c.14-16.2.12-32.4.18-48.6s.11-32.41,0-48.61l-.21-48.61.51.86L386.68,89.14,362.3,75.68,338,62.14,289.38,34.88h2.13L243.85,61.76Q220,75.22,196,88.52c-16,8.89-32,17.86-48.05,26.73Z"/><path class="cls-1" d="M99.32,334.26c15.8-9.55,31.7-18.9,47.6-28.27s31.85-18.62,47.84-27.83,32-18.39,48-27.57l48.12-27.33,1.24-.71,1.23.72,48.13,27.81c16,9.36,32,18.63,48,28.07s31.91,18.85,47.83,28.33,31.8,19,47.58,28.77c-16.34-8.75-32.57-17.7-48.8-26.64s-32.41-18-48.56-27.07-32.26-18.24-48.4-27.35L290.85,227.6h2.48l-48.27,27.08c-16.13,9-32.22,18-48.39,26.85s-32.35,17.76-48.55,26.58S115.66,325.67,99.32,334.26Z"/><path class="cls-1" d="M290.44,33c1.17,16,1.85,32.06,2.36,48.09.3,8,.42,16,.62,24.06l.35,24,.07,24.06c-.07,8,0,16-.21,24.05-.22,16-.63,32.09-1.53,48.13-1.18-16-1.86-32.06-2.37-48.09-.3-8-.41-16-.62-24.05l-.34-24.06-.07-24c.07-8,.05-16,.21-24.06C289.14,65.08,289.54,49,290.44,33Z"/><path class="cls-1" d="M353.43,260.69l-.61-36.6-.29-18.37-.21-18.43-.38-37-.19-18.51-.1-18.54v-3l2.64,1.42L388.22,130l33.9,18.36,1.05.57v1.18l-.05,37.38L423,224.87c-.07,12.46-.1,24.92-.25,37.38l-.36,37.38,0,2.08-1.78-1-16.95-10-16.82-10-16.75-10Zm0,0,34.37,19,17,9.43,16.92,9.5-1.79,1-.36-37.38c-.15-12.46-.19-24.92-.25-37.38l-.13-37.38-.06-37.38,1,1.76L386.38,133.4l-33.8-18.55,2.63-1.57-.1,18.32-.18,18.34-.39,36.75-.21,18.41L354,223.58Z"/><path class="cls-1" d="M168.67,159.4l8.4-5.19,8.5-5.18,17.05-10.42,17.23-10.4,17.36-10.35,2.39-1.42,0,2.82.29,35.67.1,35.66v1.16l-1,.58-17.36,9.91-17.37,9.89L186.87,222l-17.45,9.76L167.13,233l0-2.58.26-17.91.35-17.83.43-17.71C168.33,171.07,168.5,165.22,168.67,159.4Zm0,0c.17,6,.34,12,.46,17.95l.43,17.8.35,17.67.26,17.59-2.25-1.31L185.15,219l17.26-10.09,17.3-10,17.31-10-1,1.73.09-35.66.3-35.67,2.41,1.39-17.31,9.73-17.44,9.67-17.62,9.65-8.85,4.86Z"/></svg>