<svg id="Ebene_1" data-name="Ebene 1" xmlns="http://www.w3.org/2000/svg" viewBox="0 0 600 480"><defs><style>.cls-1{fill:#fcdd18;}</style></defs><title>Privatevents</title><path class="cls-1" d="M284.3,236.23l-2.06,4.25c-.72,1.39-1.44,2.79-2.17,4.16l-1.15,2-.57,1-.62,1-1.24,1.93-1.35,1.9c-.91,1.26-1.86,2.5-2.83,3.71a81.07,81.07,0,0,1-6.15,6.91,46.39,46.39,0,0,1-7,5.8,25.87,25.87,0,0,1-3.81,2.17,18.19,18.19,0,0,1-4,1.38,14.27,14.27,0,0,1-4,.33,12.77,12.77,0,0,1-3.79-.89,15.09,15.09,0,0,1-3.48-2,18.38,18.38,0,0,1-1.59-1.39,18.05,18.05,0,0,1-1.5-1.53c-3.87-4.26-6.18-9.81-7.42-15.67A89.63,89.63,0,0,1,228,233a289.08,289.08,0,0,1,1.92-37.54c1.42-12.47,3.67-24.86,6.3-37.18.34-1.53.65-3.08,1-4.61l1.08-4.6c.71-3.07,1.5-6.13,2.28-9.18,1.57-6.11,3.19-12.22,4.92-18.3q4.88-17,10.17-33.93l.21.19c.36.34.73.66,1.11,1s.75.64,1.14.92c.78.59,1.56,1.18,2.37,1.71l1.22.81L263,93a53.63,53.63,0,0,0,10.54,4.69c1.85.49,3.67,1.09,5.56,1.41.94.18,1.87.41,2.81.54l2.83.37c.48.05.95.12,1.42.16l1.42.07,2.85.14c1.89,0,3.79-.06,5.67-.08-1.89-.14-3.77-.21-5.64-.4l-2.8-.38-1.39-.18c-.47-.08-.92-.19-1.38-.28l-2.76-.56c-.91-.19-1.8-.48-2.7-.72-1.82-.44-3.55-1.15-5.31-1.75a55.11,55.11,0,0,1-9.82-5.11l-1.14-.77L262,89.3c-.74-.54-1.43-1.14-2.13-1.73-.35-.28-.67-.61-1-.91s-.66-.62-1-1a24.76,24.76,0,0,1-1.73-1.95l-1.73-2.19-1,2.63c-4.38,11.94-8.62,23.9-12.46,36-1,3-1.94,6.06-2.84,9.11s-1.87,6.09-2.69,9.17-1.71,6.13-2.48,9.23l-1.2,4.63c-.39,1.54-.74,3.1-1.11,4.65a335.84,335.84,0,0,0-6.82,37.71A260.29,260.29,0,0,0,222,233.11c0,3.19.17,6.43.47,9.68a70.24,70.24,0,0,0,1.5,9.79,46.9,46.9,0,0,0,3.31,9.56,33.63,33.63,0,0,0,5.8,8.52,13.61,13.61,0,0,0,1.25,1.27c0,2,0,4-.11,6-.08,2.29-.21,4.59-.49,6.75a15.45,15.45,0,0,1-.28,1.58c-.12.53-.22,1.05-.36,1.63l-.79,3.4-1.64,6.83L224,325.44l-13.52,54.61,16.48-53.79,8.16-26.93,2-6.75,1-3.4c.16-.55.32-1.17.49-1.78s.31-1.22.43-1.86c.45-2.47.71-4.85.94-7.23.06-.73.12-1.46.17-2.19a15,15,0,0,0,1.59.7,18.34,18.34,0,0,0,5.45,1.15h.42c-.38.78-.77,1.56-1.14,2.36-1,2.17-2,4.35-2.85,6.71a19,19,0,0,0-.57,1.82c-.17.61-.34,1.23-.48,1.79l-.86,3.43L240,300.92l-6.58,27.36-11.91,50.14-.19,0,.18.08L220.42,383l1.32-4.45a25.46,25.46,0,0,1,6.41,3.53,9.12,9.12,0,0,1,2.32,2.74c.3.53.26.77.18.85a2.26,2.26,0,0,1-1,.61,15,15,0,0,1-3.52.66,26.18,26.18,0,0,1-3.76.06,41.25,41.25,0,0,1-7.52-1.11c-1.25-.28-2.5-.62-3.74-1-.65-.18-1.21-.34-1.8-.56s-1.2-.45-1.8-.67a28.27,28.27,0,0,1-6.63-3.45,4.27,4.27,0,0,1-1-1.11.76.76,0,0,1-.14-.42.69.69,0,0,1,.09-.41,4.47,4.47,0,0,1,2.79-1.5,35.67,35.67,0,0,1,7.79-.58,27.57,27.57,0,0,0-3.93-.77,21.37,21.37,0,0,0-4.09-.13,8.79,8.79,0,0,0-2.13.44,5.07,5.07,0,0,0-1.09.51,4.5,4.5,0,0,0-1,.86,2.83,2.83,0,0,0-.59,1.43,3,3,0,0,0,0,.79,3.59,3.59,0,0,0,.22.7,6.12,6.12,0,0,0,1.44,2,16.83,16.83,0,0,0,3.44,2.5c1.2.68,2.42,1.29,3.66,1.85.61.29,1.24.54,1.88.79s1.35.48,2,.67c1.29.4,2.6.76,3.92,1.08a36.38,36.38,0,0,0,8.15,1,30.36,30.36,0,0,0,4.15-.29,14.39,14.39,0,0,0,4.17-1.15,6,6,0,0,0,1.07-.66,3.27,3.27,0,0,0,.95-1.2,2.55,2.55,0,0,0,.12-1.67,3.39,3.39,0,0,0-.6-1.19,10.6,10.6,0,0,0-3.16-2.9,20.41,20.41,0,0,0-7.25-2.41l14.62-49.39,8.07-26.94,2-6.72,1-3.33c.17-.58.35-1.08.52-1.59a13.46,13.46,0,0,1,.56-1.51c.85-2,1.9-4.05,3-6.07s2.23-4.05,3.39-6l-.33-.19a27.55,27.55,0,0,0,2.88-1.26,31.36,31.36,0,0,0,4.36-2.67,51.59,51.59,0,0,0,7.42-6.6,76.7,76.7,0,0,0,6.22-7.53c.95-1.31,1.87-2.63,2.76-4,.45-.68.88-1.36,1.31-2l1.23-2.13A140.52,140.52,0,0,0,288.77,233q3.45-8.91,6.45-18t5.67-18.18c-4.63,11.81-9.38,23.58-14.58,35.09Z"/><path class="cls-1" d="M271.76,392.65a6.29,6.29,0,0,0-.41-.91l-.47-.83-.49-.7-1-1.38-1.08-1.29a31.13,31.13,0,0,0-2.3-2.43,36.46,36.46,0,0,0-5.21-4,53.67,53.67,0,0,0-11.66-5.44,96.27,96.27,0,0,0-12.28-3.17c2,.75,4,1.45,5.89,2.26s3.87,1.59,5.75,2.49a54.33,54.33,0,0,1,10.56,6.33,35.56,35.56,0,0,1,4.44,4c.62.77,1.32,1.48,1.86,2.3l.85,1.2.74,1.26c1,1.68,1.26,3,.74,3.9s-2,2-3.73,2.66a30.38,30.38,0,0,1-5.59,1.54c-2,.37-4,.65-6,.84a91.84,91.84,0,0,1-12.19.34,111.11,111.11,0,0,1-12.2-1.15c-4.06-.58-8.09-1.38-12.11-2.32s-8-2-12-3.18l-3-.88c-.93-.3-1.9-.64-2.86-1-1.93-.69-3.85-1.44-5.77-2.2-3.82-1.54-7.6-3.21-11.22-5.09-1.82-.94-3.58-1.95-5.3-3a39.85,39.85,0,0,1-4.84-3.41,14,14,0,0,1-3.5-4,3.55,3.55,0,0,1,.1-3.86,8.49,8.49,0,0,1,1.73-1.84,11.53,11.53,0,0,1,2.32-1.4,27.33,27.33,0,0,1,5.65-1.73,72.54,72.54,0,0,1,12.31-1.22c2.09-.06,4.18,0,6.28,0s4.2.12,6.3.25a97.57,97.57,0,0,0-12.52-1.94,67.86,67.86,0,0,0-12.83,0A28.28,28.28,0,0,0,170.3,365a15.74,15.74,0,0,0-3.2,1.61,12.16,12.16,0,0,0-2.77,2.53,7.6,7.6,0,0,0-1.6,3.93,8.45,8.45,0,0,0,.73,4.12,18.17,18.17,0,0,0,4.33,5.75,55.69,55.69,0,0,0,10.77,7.57c3.76,2.12,7.62,4,11.53,5.72,2,.87,3.94,1.67,5.95,2.43,1,.39,2,.76,3.08,1.11l3.07,1q6.09,1.88,12.34,3.37c4.17,1,8.39,1.76,12.65,2.34a109,109,0,0,0,12.91,1,90.65,90.65,0,0,0,13-.78,45.9,45.9,0,0,0,12.88-3.38,16.36,16.36,0,0,0,3.15-1.91,8.81,8.81,0,0,0,2.66-3.26,6.73,6.73,0,0,0,.34-4.49A5,5,0,0,0,271.76,392.65Z"/><path class="cls-1" d="M272.35,80c.86,0,1.72.06,2.57.09s1.71.08,2.57.14,1.71.11,2.55.23a72.28,72.28,0,0,1,10.11,1.68c.83.21,1.65.43,2.49.63s1.64.52,2.46.77l1.25.38,1.21.47c.81.3,1.63.61,2.47.89-.72-.51-1.45-1-2.19-1.47l-1.13-.71-1.17-.6c-.8-.39-1.59-.78-2.4-1.16s-1.65-.61-2.49-.93a44.84,44.84,0,0,0-10.38-2.25c-.88-.1-1.77-.14-2.65-.18s-1.77-.11-2.65-.07c-1.77,0-3.54.09-5.3.28a42.09,42.09,0,0,0-10.29,2.27c3.5-.29,6.95-.45,10.39-.48Z"/><path class="cls-1" d="M284.32,160.25l-1.85-.5c-.61-.17-1.24-.28-1.86-.41-1.25-.29-2.51-.47-3.77-.68a62,62,0,0,0-22.79,1.05,61,61,0,0,0-7.29,2.15,44.61,44.61,0,0,0-6.88,3.17,115.2,115.2,0,0,1,14.6-3,102,102,0,0,1,14.69-.92c2.44,0,4.88.18,7.32.4s4.86.61,7.28,1a101.24,101.24,0,0,1,14.34,3.95A48.54,48.54,0,0,0,284.32,160.25Z"/><path class="cls-1" d="M297.36,175.37a117.45,117.45,0,0,1-14.75,3,103.89,103.89,0,0,1-14.83.92c-2.47,0-4.94-.18-7.4-.4s-4.91-.6-7.35-1a102.8,102.8,0,0,1-14.49-3.95,49.42,49.42,0,0,0,13.94,6.28l1.86.51c.63.16,1.26.27,1.89.41,1.26.28,2.53.46,3.8.68a66.33,66.33,0,0,0,7.71.58,65.5,65.5,0,0,0,15.3-1.64,60.25,60.25,0,0,0,7.36-2.15A43.23,43.23,0,0,0,297.36,175.37Z"/><path class="cls-1" d="M275.93,239.66c-2.16,3.68-4.41,7.28-6.88,10.73a53.26,53.26,0,0,1-8.51,9.53,24,24,0,0,0,5.6-3.45,39,39,0,0,0,4.78-4.57,65.17,65.17,0,0,0,7.66-10.69,91.2,91.2,0,0,0,5.75-11.75A75.27,75.27,0,0,0,288.28,217c-2.1,3.82-4.1,7.63-6.12,11.42S278.08,236,275.93,239.66Z"/><path class="cls-1" d="M350.16,273.67a33.21,33.21,0,0,0,3.16,1.43l.42.15c.71,1.7,1.41,3.42,2.07,5.14.81,2.14,1.59,4.31,2.18,6.4.13.51.26,1,.36,1.57s.21,1.05.3,1.64l.6,3.45,1.16,6.92,4.53,27.76,8.87,55.55-5.83-56-3-28-.78-7-.42-3.51c-.06-.57-.15-1.21-.24-1.83a18.08,18.08,0,0,0-.33-1.88c-.55-2.45-1.24-4.74-2-7-.18-.57-.38-1.14-.57-1.71a19.55,19.55,0,0,0,3.33-.1,18.67,18.67,0,0,0,4.11-1c0,.71-.08,1.41-.1,2.13-.09,2.39-.14,4.78,0,7.29,0,.65.1,1.29.19,1.9s.17,1.26.26,1.83l.54,3.49,1.13,7,4.62,27.76,8.61,50.81-.18.05h.19l.78,4.61-.52-4.61a25.63,25.63,0,0,1,7.28.75,9,9,0,0,1,3.21,1.61c.48.37.54.61.49.72a2.24,2.24,0,0,1-.66.94,15,15,0,0,1-3,2,28.58,28.58,0,0,1-3.44,1.53,42.33,42.33,0,0,1-7.36,1.92c-1.26.22-2.54.4-3.83.55-.66.08-1.24.15-1.88.18s-1.27.06-1.91.09a27.89,27.89,0,0,1-7.45-.59,4,4,0,0,1-1.37-.62.87.87,0,0,1-.3-.33.8.8,0,0,1-.07-.41,4.42,4.42,0,0,1,2-2.48,35.19,35.19,0,0,1,6.94-3.57,26.82,26.82,0,0,0-3.92.83,20.92,20.92,0,0,0-3.81,1.47,9.22,9.22,0,0,0-1.79,1.23,5.11,5.11,0,0,0-.8.91,4,4,0,0,0-.55,1.17,2.75,2.75,0,0,0,0,1.53,3,3,0,0,0,.34.73,4.24,4.24,0,0,0,.47.55,6.27,6.27,0,0,0,2.1,1.25,17.42,17.42,0,0,0,4.14.95c1.37.16,2.73.25,4.09.28.68,0,1.36,0,2,0s1.43-.09,2.07-.15q2-.19,4-.54a36.32,36.32,0,0,0,7.91-2.24,30,30,0,0,0,3.7-1.89,14.07,14.07,0,0,0,3.4-2.68,6.44,6.44,0,0,0,.72-1,3.26,3.26,0,0,0,.41-1.47,2.47,2.47,0,0,0-.55-1.59,3.33,3.33,0,0,0-1-.86,10.53,10.53,0,0,0-4-1.43,20.1,20.1,0,0,0-7.6.61l-5.83-51.18-3.09-27.95-.75-7-.34-3.47c-.07-.6-.1-1.12-.15-1.67s-.07-1.08-.07-1.6c0-2.18.17-4.47.38-6.76.19-2.05.43-4.12.69-6.16a28.25,28.25,0,0,0,2.21-2,42.94,42.94,0,0,0,7.58-11.14,70.76,70.76,0,0,0,4.56-12.26c.57-2.09,1.07-4.2,1.48-6.34s.71-4.35.91-6.48c.4-4.28.58-8.52.68-12.75s.11-8.44.06-12.65c-.12-8.42-.42-16.82-.85-25.22l-.17-3.15-.05-.79,0-.45-.05-.45-.19-1.57-.76-6.25q-.83-6.26-1.73-12.49c-.61-4.16-1.27-8.32-2-12.47-.38-2.08-.79-4.16-1.28-6.24s-1.18-4.11-1.79-6.11c-2.46-8-4.88-16-7.4-24s-5-16-7.72-23.94L380.37,134c.51,2,1.07,4.08,1.46,6s.73,4.06,1,6.12c.6,4.11,1.1,8.26,1.57,12.41s.88,8.31,1.27,12.47l.59,6.24.14,1.56,0,.33v.33l0,.78.09,3.13q.32,12.54.2,25.05c0,4.17-.1,8.34-.27,12.49s-.4,8.28-.85,12.33c-.22,2.05-.52,4-.93,5.95s-.9,3.94-1.47,5.88A68.68,68.68,0,0,1,379,256.27a36.77,36.77,0,0,1-6.53,9.55,15.47,15.47,0,0,1-9.13,4.87,14.31,14.31,0,0,1-5.14-.4,19.88,19.88,0,0,1-2.61-.86,24.57,24.57,0,0,1-2.56-1.17,31.67,31.67,0,0,1-8.85-7.15,55.75,55.75,0,0,1-6.76-9.79c-2-3.51-3.69-7.26-5.4-11q-5-11.35-9-23.15c-2.7-7.85-5-15.82-7.09-23.88-8.06-31.77-11.81-64.61-15-97.42a148.47,148.47,0,0,0,15.31.91,141.75,141.75,0,0,0,16.87-.89c2.8-.33,5.59-.75,8.35-1.28s5.51-1.2,8.21-2a82.26,82.26,0,0,0,7.93-2.85A62.85,62.85,0,0,0,365,85.86a63.14,63.14,0,0,1-7.61,3.52,80.19,80.19,0,0,1-8,2.48c-2.71.66-5.45,1.19-8.2,1.64s-5.52.73-8.29,1a145.26,145.26,0,0,1-16.69.27,142.52,142.52,0,0,1-16.57-1.57l-1.53-.24.07,1.57c.22,4.2.43,8.39.69,12.58s.56,8.37.87,12.56c.66,8.37,1.35,16.75,2.33,25.1a416.1,416.1,0,0,0,8.45,49.83c2,8.22,4.22,16.37,6.85,24.42s5.7,16,9.09,23.73,7.14,15.66,13,22.45A36.56,36.56,0,0,0,350.16,273.67Z"/><path class="cls-1" d="M435.86,372.13a5.3,5.3,0,0,0-.68-.79,5.75,5.75,0,0,0-.74-.67l-.75-.59-.72-.45-1.44-.89L430,368a31.87,31.87,0,0,0-3.06-1.34A38.08,38.08,0,0,0,420.6,365a53.45,53.45,0,0,0-12.86-.46,95.27,95.27,0,0,0-12.54,1.88c2.1-.08,4.2-.21,6.3-.22s4.19-.05,6.27,0a54.21,54.21,0,0,1,12.19,1.7,35.13,35.13,0,0,1,5.66,2,28.18,28.18,0,0,1,2.61,1.39l1.25.77,1.18.87c1.61,1.15,2.33,2.27,2.2,3.3s-1.09,2.62-2.39,3.91a31.77,31.77,0,0,1-4.55,3.6c-1.65,1.11-3.39,2.14-5.17,3.11a93.38,93.38,0,0,1-11.1,5.07A109.33,109.33,0,0,1,398,395.63c-4,1-8,1.89-12.05,2.58s-8.16,1.28-12.28,1.76l-3.07.34c-1,.1-2,.16-3,.22-2,.12-4.11.18-6.17.23-4.12.08-8.24,0-12.32-.31-2-.15-4.05-.39-6-.69a41,41,0,0,1-5.79-1.25,14.06,14.06,0,0,1-4.8-2.34,3.56,3.56,0,0,1-1.41-3.6,8,8,0,0,1,.88-2.37,12.07,12.07,0,0,1,1.58-2.19,27.66,27.66,0,0,1,4.53-3.79,70.55,70.55,0,0,1,10.86-5.93c1.9-.88,3.83-1.68,5.77-2.46s3.92-1.53,5.9-2.23a97.27,97.27,0,0,0-12.28,3.11,68.29,68.29,0,0,0-11.83,5,29.45,29.45,0,0,0-5.44,3.88,15.12,15.12,0,0,0-2.32,2.73,12.17,12.17,0,0,0-1.56,3.42,7.62,7.62,0,0,0,.06,4.23,8.57,8.57,0,0,0,2.28,3.52,18.18,18.18,0,0,0,6.23,3.59,55.3,55.3,0,0,0,12.87,2.77c4.29.48,8.57.7,12.85.76,2.14,0,4.28,0,6.43-.08,1.08,0,2.15-.1,3.27-.18l3.2-.31q6.34-.64,12.68-1.72c4.21-.74,8.41-1.65,12.56-2.78a107.14,107.14,0,0,0,12.26-4.15,90.56,90.56,0,0,0,11.63-5.78A45.92,45.92,0,0,0,434,383.42a16.48,16.48,0,0,0,2.15-3,8.75,8.75,0,0,0,1.18-4.05A6.76,6.76,0,0,0,435.86,372.13Z"/><path class="cls-1" d="M324.63,77.14a65.63,65.63,0,0,1,7.58-1.65,68.7,68.7,0,0,1,7.71-.77,69.39,69.39,0,0,1,7.76.19A73.89,73.89,0,0,1,363,78a48.7,48.7,0,0,0-15.14-4.9,56.51,56.51,0,0,0-8-.58A54.61,54.61,0,0,0,324,75.05a59.66,59.66,0,0,0-14.5,6.68,43.88,43.88,0,0,0-6.34,4.81,83.93,83.93,0,0,1,14.05-7C319.67,78.65,322.12,77.8,324.63,77.14Z"/><path class="cls-1" d="M357.77,136.73c-.63-.12-1.26-.19-1.89-.29-1.26-.2-2.53-.29-3.8-.43a65.26,65.26,0,0,0-7.66-.08,64.53,64.53,0,0,0-15,2.63,60.78,60.78,0,0,0-7.13,2.63,42.41,42.41,0,0,0-6.66,3.62A114.27,114.27,0,0,1,330,140.88,101.65,101.65,0,0,1,344.58,139c2.45-.12,4.89-.14,7.34-.08s4.89.28,7.33.55a101.17,101.17,0,0,1,14.56,3,48.44,48.44,0,0,0-14.17-5.35Z"/><path class="cls-1" d="M355.59,156.05l-4,.66c-1.32.22-2.66.36-4,.55s-2.67.3-4,.4c-2.67.33-5.36.34-8.05.48-1.34,0-2.68,0-4,0-.67,0-1.34,0-2,0l-2-.12c-1.34-.09-2.69-.15-4-.26l-4-.49c-.68-.08-1.36-.12-2-.23s-1.33-.25-2-.36c-1.35-.24-2.7-.46-4.07-.66,1.27.52,2.56,1,3.85,1.48.65.25,1.3.47,2,.7s1.32.37,2,.55l4,1c1.35.28,2.73.43,4.1.66l2.06.31c.69.07,1.38.09,2.08.14,1.38.08,2.77.19,4.15.25,2.78-.05,5.56,0,8.32-.33,1.38-.13,2.76-.25,4.13-.48l2.06-.32c.68-.1,1.37-.18,2.05-.35l4.05-.9c1.34-.35,2.67-.72,4-1.11s2.63-.85,3.94-1.3,2.58-1,3.85-1.53a53.62,53.62,0,0,0,7.34-3.79,151,151,0,0,1-15.73,4.31C358.23,155.5,356.91,155.76,355.59,156.05Z"/><path class="cls-1" d="M380.76,236.32c.8-3.06,1.36-6.17,1.87-9.29s.79-6.26,1.06-9.4.36-6.29.41-9.43,0-6.29-.16-9.43a135.09,135.09,0,0,0-2-18.71c-.12,6.27-.22,12.51-.4,18.73-.12,3.11-.17,6.22-.36,9.32s-.3,6.2-.56,9.29a182.77,182.77,0,0,1-2.22,18.41c-.57,3-1.22,6.05-2.09,9a50.75,50.75,0,0,1-3.3,8.71,35.33,35.33,0,0,0,4.72-8.2A64.84,64.84,0,0,0,380.76,236.32Z"/></svg>