<svg xmlns="http://www.w3.org/2000/svg" viewBox="0 0 600 480"><defs><style>.cls-1{fill:#fcdd18;}</style></defs><title>Raum</title><g id="Ebene_2" data-name="Ebene 2"><path class="cls-1" d="M391.92,67.76a5.33,5.33,0,0,0-3.77-1.54l-178.38.53h-.24a3,3,0,0,0-1.6.5,3.08,3.08,0,0,0-1.4,2.59V345.65a3.08,3.08,0,0,0,1.83,2.81l131.06,59.46a3.14,3.14,0,0,0,3-.22,3.12,3.12,0,0,0,1.42-2.61V341.2h44.37a5.28,5.28,0,0,0,5.3-5.27V71.49A5.23,5.23,0,0,0,391.92,67.76ZM339.37,403,211,344.79V71.87l8.37,3.65,120,52.32Zm45.27-70.63H343.8V127a3.11,3.11,0,0,0-1.86-2.84L230.34,75.48,384.64,75Z"/><path class="cls-1" d="M324.52,280.13l-16.34-7.6a2.66,2.66,0,0,1-1.53-2.41V214.05a2.66,2.66,0,0,1,3.73-2.43l15.6,6.9-1.43,3.24-14.36-6.35v54.15L326,276.92Z"/></g></svg>