<svg id="Ebene_1" data-name="Ebene 1" xmlns="http://www.w3.org/2000/svg" viewBox="0 0 600 480"><defs><style>.cls-1{fill:none;}.cls-2{fill:#fcdd17;}</style></defs><title>Raum</title><polygon class="cls-1" points="178.74 166.12 178.94 237.21 238.51 202.78 238.31 131.7 178.74 166.12"/><polygon class="cls-1" points="365.32 124.23 364.92 266.56 417.43 296.88 417.83 154.55 365.32 124.23"/><path class="cls-1" d="M126.63,134.21l.55,194.85L290.62,234.7l-.55-194.85Zm49.79,107.36-.22-76.9,64.63-37.34.22,76.9Z"/><polygon class="cls-1" points="295.12 444.22 461.29 347.66 300.07 254.58 133.9 351.15 295.12 444.22"/><polygon class="cls-1" points="309.38 234.69 362.08 265.12 362.49 119.33 420.68 152.93 420.26 298.71 472.82 329.06 473.37 134.21 309.94 39.85 309.38 234.69"/><path class="cls-2" d="M176.2,164.67l.22,76.9,64.63-37.34-.22-76.9Zm2.74,72.54-.21-71.09,59.58-34.42.21,71.08Z"/><path class="cls-2" d="M120.28,351.15l174.88,101L474.92,347.66,300,246.69Zm341-3.49L295.12,444.22,133.9,351.15l166.17-96.57Z"/><path class="cls-2" d="M297,27.88,119.68,130.24l.6,210.78L297.57,238.66ZM127.18,329.06l-.55-194.85L290.07,39.85l.55,194.85Z"/><path class="cls-2" d="M303,27.89l-.6,210.77L479.72,341l.6-210.76ZM472.82,329.05l-52.56-30.34v3.06l-58.19-33.59v-3.06l-52.7-30.43.55-194.84,163.44,94.36Z"/><path class="cls-2" d="M362.49,119.33l-.41,145.79,58.18,33.59.42-145.78Zm2.43,147.23.4-142.33,52.51,30.32-.4,142.33Z"/><polygon class="cls-2" points="362.07 268.18 420.26 301.77 420.26 298.71 362.08 265.12 362.07 268.18"/></svg>